{
.appVersion = "911";
copyright = "Copyright (c) 2012, vernon adams (vern@newtypography.co.uk), with Reserved Font Names 'Cutive'.";
customParameters = (
{
name = license;
value = "This Font Software is licensed under the SIL Open Font License, Version 1.1. This license is available with a FAQ at: http://scripts.sil.org/OFL";
},
{
name = licenseURL;
value = "http://scripts.sil.org/OFL";
},
{
name = vendorID;
value = newt;
},
{
name = panose;
value = (
0,
0,
5,
0,
0,
0,
0,
0,
0,
0
);
},
{
name = unicodeRanges;
value = (
0,
1,
2
);
},
{
name = codePageRanges;
value = (
1252,
1250,
1254,
1257
);
},
{
name = glyphOrder;
value = (
.notdef,
space,
A,
Aacute,
Abreve,
Acircumflex,
Adieresis,
Agrave,
Amacron,
Aogonek,
Aring,
Atilde,
AE,
B,
C,
Cacute,
Ccaron,
Ccedilla,
Ccircumflex,
Cdotaccent,
D,
Eth,
Dcaron,
Dcroat,
E,
Eacute,
Ebreve,
Ecaron,
Ecircumflex,
Edieresis,
Edotaccent,
Egrave,
Emacron,
Eogonek,
F,
G,
Gbreve,
Gcircumflex,
Gcommaaccent,
Gdotaccent,
H,
Hbar,
Hcircumflex,
I,
IJ,
Iacute,
Ibreve,
Icircumflex,
Idieresis,
Idotaccent,
Igrave,
Imacron,
Iogonek,
Itilde,
J,
Jcircumflex,
K,
Kcommaaccent,
L,
Lacute,
Lcaron,
Lcommaaccent,
Ldot,
Lslash,
M,
N,
Nacute,
Ncaron,
Ncommaaccent,
Eng,
Ntilde,
O,
Oacute,
Obreve,
Ocircumflex,
Odieresis,
Ograve,
Ohungarumlaut,
Omacron,
Oslash,
Otilde,
OE,
P,
Thorn,
Q,
R,
Racute,
Rcaron,
Rcommaaccent,
S,
Sacute,
Scaron,
Scedilla,
Scircumflex,
Scommaaccent,
T,
Tbar,
Tcaron,
U,
Uacute,
Ubreve,
Ucircumflex,
Udieresis,
Ugrave,
Uhungarumlaut,
Umacron,
Uogonek,
Uring,
Utilde,
V,
W,
Wacute,
Wcircumflex,
Wdieresis,
Wgrave,
X,
Y,
Yacute,
Ycircumflex,
Ydieresis,
Ygrave,
Z,
Zacute,
Zcaron,
Zdotaccent,
uni01C4,
uni01C5,
uni01C7,
uni01C8,
uni01CA,
uni01CB,
uni01F1,
uni01F2,
uni01F4,
uni0200,
uni0202,
uni0204,
uni0206,
uni0208,
uni020A,
uni020C,
uni020E,
uni0210,
uni0212,
uni0214,
uni0216,
uni021A,
uni1E02,
uni1E0A,
uni1E1E,
uni1E40,
uni1E56,
uni1E60,
uni1E6A,
a,
aacute,
abreve,
acircumflex,
adieresis,
agrave,
amacron,
aogonek,
aring,
atilde,
ae,
b,
c,

glyphs = (
{
glyphname = .notdef;
lastChange = "2016-08-11 21:18:16 +0000";
layers = (
{
layerId = "012FDA75-DADD-42E4-B1EF-A5A6AF7510CB";
paths = (
{
closed = 1;
nodes = (
"102 0 LINE",
"102 1092 LINE",
"922 1092 LINE",
"922 0 LINE"
);
},
{
closed = 1;
nodes = (
"204 102 LINE",
"820 102 LINE",
"820 990 LINE",
"204 990 LINE"
);
}
);
width = 1240;
}
);
note = .notdef;
},
{
glyphname = A;
lastChange = "2016-08-11 21:18:16 +0000";
layers = (
{
layerId = "012FDA75-DADD-42E4-B1EF-A5A6AF7510CB";
paths = (
{
closed = 1;
nodes = (
"58 0 OFFCURVE",
"40 19 OFFCURVE",
"40 43 CURVE SMOOTH",
"40 66 OFFCURVE",
"58 86 OFFCURVE",
"89 86 CURVE SMOOTH",
"174 86 LINE",
"559 1085 LINE",
"342 1085 LINE SMOOTH",
"310 1085 OFFCURVE",
"292 1104 OFFCURVE",
"292 1128 CURVE SMOOTH",
"292 1151 OFFCURVE",
"310 1171 OFFCURVE",
"341 1171 CURVE SMOOTH",
"644 1171 LINE SMOOTH",
"683 1171 OFFCURVE",
"710 1149 OFFCURVE",
"725 1106 CURVE SMOOTH",
"1087 86 LINE",
"1166 86 LINE SMOOTH",
"1197 86 OFFCURVE",
"1214 67 OFFCURVE",
"1214 44 CURVE SMOOTH",
"1214 20 OFFCURVE",
"1195 0 OFFCURVE",
"1164 0 CURVE SMOOTH",
"798 0 LINE SMOOTH",
"766 0 OFFCURVE",
"747 20 OFFCURVE",
"747 44 CURVE SMOOTH",
"747 67 OFFCURVE",
"765 86 OFFCURVE",
"796 86 CURVE SMOOTH",
"982 86 LINE",
"875 392 LINE",
"392 392 LINE",
"280 86 LINE",
"439 86 LINE SMOOTH",
"470 86 OFFCURVE",
"489 66 OFFCURVE",
"489 43 CURVE SMOOTH",
"489 19 OFFCURVE",
"470 0 OFFCURVE",
"438 0 CURVE SMOOTH",
"90 0 LINE SMOOTH"
);
},
{
closed = 1;
nodes = (
"425 475 LINE",
"845 475 LINE",
"646 1072 LINE"
);
}
);
width = 1240;
}
);
note = A;
unicode = 0041;
},
{
glyphname = Aogonek;
lastChange = "2016-08-11 21:18:16 +0000";
layers = (
{
layerId = "012FDA75-DADD-42E4-B1EF-A5A6AF7510CB";
paths = (
{
closed = 1;
nodes = (
"725 1106 LINE SMOOTH",
"710 1149 OFFCURVE",
"683 1171 OFFCURVE",
"644 1171 CURVE SMOOTH",
"341 1171 LINE SMOOTH",
"310 1171 OFFCURVE",
"292 1151 OFFCURVE",
"292 1128 CURVE SMOOTH",
"292 1104 OFFCURVE",
"310 1085 OFFCURVE",
"342 1085 CURVE SMOOTH",
"559 1085 LINE",
"174 86 LINE",
"89 86 LINE SMOOTH",
"58 86 OFFCURVE",
"40 66 OFFCURVE",
"40 43 CURVE SMOOTH",
"40 19 OFFCURVE",
"58 0 OFFCURVE",
"90 0 CURVE SMOOTH",
"438 0 LINE SMOOTH",
"470 0 OFFCURVE",
"489 19 OFFCURVE",
"489 43 CURVE SMOOTH",
"489 66 OFFCURVE",
"470 86 OFFCURVE",
"439 86 CURVE SMOOTH",
"280 86 LINE",
"392 392 LINE",
"875 392 LINE",
"982 86 LINE",
"796 86 LINE SMOOTH",
"765 86 OFFCURVE",
"747 67 OFFCURVE",
"747 44 CURVE SMOOTH",
"747 20 OFFCURVE",
"766 0 OFFCURVE",
"798 0 CURVE SMOOTH",
"1010 0 LINE",
"978 -29 OFFCURVE",
"950 -64 OFFCURVE",
"926 -103 CURVE SMOOTH",
"877 -182 OFFCURVE",
"851 -262 OFFCURVE",
"851 -303 CURVE SMOOTH",
"851 -379 OFFCURVE",
"895 -413 OFFCURVE",
"963 -413 CURVE SMOOTH",
"984 -413 OFFCURVE",
"1003 -409 OFFCURVE",
"1022 -401 CURVE SMOOTH",
"1059 -385 OFFCURVE",
"1085 -359 OFFCURVE",
"1085 -336 CURVE SMOOTH",
"1085 -326 OFFCURVE",
"1076 -321 OFFCURVE",
"1059 -321 CURVE",
"1036 -322 LINE",
"1013 -322 LINE SMOOTH",
"973 -322 OFFCURVE",
"949 -314 OFFCURVE",
"949 -274 CURVE SMOOTH",
"949 -222 OFFCURVE",
"998 -124 OFFCURVE",
"1061 0 CURVE",
"1164 0 LINE SMOOTH",
"1195 0 OFFCURVE",
"1214 20 OFFCURVE",
"1214 44 CURVE SMOOTH",
"1214 67 OFFCURVE",
"1197 86 OFFCURVE",
"1166 86 CURVE SMOOTH",
"1087 86 LINE"
);
},
{
closed = 1;
nodes = (
"646 1072 LINE",
"845 475 LINE",
"425 475 LINE"
);
}
);
width = 1240;
}
);
note = Aogonek;
unicode = 0104;
},
{
glyphname = AE;
lastChange = "2016-08-11 21:18:16 +0000";
layers = (
{
layerId = "012FDA75-DADD-42E4-B1EF-A5A6AF7510CB";
paths = (
{
closed = 1;
nodes = (
"56 0 OFFCURVE",
"38 19 OFFCURVE",
"38 43 CURVE SMOOTH",
"38 66 OFFCURVE",
"56 86 OFFCURVE",
"87 86 CURVE SMOOTH",
"138 86 LINE",
"463 1085 LINE",
"301 1085 LINE SMOOTH",
"269 1085 OFFCURVE",
"251 1104 OFFCURVE",
"251 1128 CURVE SMOOTH",
"251 1151 OFFCURVE",
"269 1171 OFFCURVE",
"300 1171 CURVE SMOOTH",
"1050 1171 LINE SMOOTH",
"1083 1171 OFFCURVE",
"1106 1150 OFFCURVE",
"1106 1117 CURVE SMOOTH",
"1106 893 LINE SMOOTH",
"1106 865 OFFCURVE",
"1087 849 OFFCURVE",
"1066 849 CURVE SMOOTH",
"1045 849 OFFCURVE",
"1028 863 OFFCURVE",
"1027 887 CURVE SMOOTH",
"1013 1085 LINE",
"729 1085 LINE",
"729 637 LINE",
"871 637 LINE",
"884 740 LINE SMOOTH",
"887 768 OFFCURVE",
"904 785 OFFCURVE",
"924 785 CURVE SMOOTH",
"945 785 OFFCURVE",
"962 767 OFFCURVE",
"962 732 CURVE SMOOTH",
"962 460 LINE SMOOTH",
"962 427 OFFCURVE",
"945 409 OFFCURVE",
"924 409 CURVE SMOOTH",
"904 409 OFFCURVE",
"885 425 OFFCURVE",
"884 452 CURVE",
"871 560 LINE",
"729 560 LINE",
"729 85 LINE",
"1016 85 LINE",
"1032 296 LINE SMOOTH",
"1033 319 OFFCURVE",
"1052 335 OFFCURVE",
"1073 335 CURVE SMOOTH",
"1096 335 OFFCURVE",
"1115 316 OFFCURVE",
"1115 283 CURVE SMOOTH",
"1115 53 LINE SMOOTH",
"1115 20 OFFCURVE",
"1092 0 OFFCURVE",
"1059 0 CURVE SMOOTH",
"613 0 LINE SMOOTH",
"581 0 OFFCURVE",
"562 20 OFFCURVE",
"562 43 CURVE SMOOTH",
"562 66 OFFCURVE",
"581 85 OFFCURVE",
"612 85 CURVE SMOOTH",
"642 85 LINE",
"642 392 LINE",
"327 392 LINE",
"231 86 LINE",
"398 86 LINE SMOOTH",
"429 86 OFFCURVE",
"448 66 OFFCURVE",
"448 43 CURVE SMOOTH",
"448 19 OFFCURVE",
"429 0 OFFCURVE",
"397 0 CURVE SMOOTH",
"88 0 LINE SMOOTH"
);
},
{
closed = 1;
nodes = (
"642 475 LINE",
"642 1085 LINE",
"545 1085 LINE",
"354 475 LINE"
);
}
);
width = 1240;
}
);
note = AE;
unicode = 00C6;
},
{
glyphname = B;
lastChange = "2016-08-11 21:18:16 +0000";
layers = (
{
layerId = "012FDA75-DADD-42E4-B1EF-A5A6AF7510CB";
paths = (
{
closed = 1;
nodes = (
"998 637 OFFCURVE",
"1104 536 OFFCURVE",
"1104 348 CURVE SMOOTH",
"1104 112 OFFCURVE",
"902 0 OFFCURVE",
"602 0 CURVE SMOOTH",
"244 0 LINE SMOOTH",
"212 0 OFFCURVE",
"193 19 OFFCURVE",
"193 43 CURVE SMOOTH",
"193 66 OFFCURVE",
"212 86 OFFCURVE",
"243 86 CURVE SMOOTH",
"403 86 LINE",
"403 1085 LINE",
"237 1085 LINE SMOOTH",
"206 1085 OFFCURVE",
"188 1105 OFFCURVE",
"188 1129 CURVE SMOOTH",
"188 1152 OFFCURVE",
"205 1171 OFFCURVE",
"236 1171 CURVE SMOOTH",
"592 1171 LINE SMOOTH",
"843 1171 OFFCURVE",
"1007 1092 OFFCURVE",
"1007 889 CURVE SMOOTH",
"1007 772 OFFCURVE",
"938 688 OFFCURVE",
"843 660 CURVE"
);
},
{
closed = 1;
nodes = (
"681 673 OFFCURVE",
"729 680 OFFCURVE",
"773 695 CURVE SMOOTH",
"861 724 OFFCURVE",
"921 789 OFFCURVE",
"921 885 CURVE SMOOTH",
"921 1029 OFFCURVE",
"806 1085 OFFCURVE",
"605 1085 CURVE SMOOTH",
"499 1085 LINE",
"499 673 LINE",
"629 673 LINE SMOOTH"
);
},
{
closed = 1;
nodes = (
"860 86 OFFCURVE",
"1008 164 OFFCURVE",
"1008 363 CURVE SMOOTH",
"1008 430 OFFCURVE",
"991 480 OFFCURVE",
"958 514 CURVE SMOOTH",
"890 582 OFFCURVE",
"785 597 OFFCURVE",
"629 597 CURVE SMOOTH",
"499 597 LINE",
"499 86 LINE",
"605 86 LINE SMOOTH"
);
}
);
width = 1240;
}
);
note = B;
unicode = 0042;
},
{
glyphname = C;
lastChange = "2016-08-11 21:18:16 +0000";
layers = (
{
layerId = "012FDA75-DADD-42E4-B1EF-A5A6AF7510CB";
paths = (
{
closed = 1;
nodes = (
"1146 340 OFFCURVE",
"1146 337 OFFCURVE",
"1145 336 CURVE",
"1132 276 OFFCURVE",
"1105 219 OFFCURVE",
"1066 166 CURVE SMOOTH",
"987 58 OFFCURVE",
"852 -17 OFFCURVE",
"669 -17 CURVE SMOOTH",
"566 -17 OFFCURVE",
"474 9 OFFCURVE",
"393 60 CURVE SMOOTH",
"230 163 OFFCURVE",
"132 358 OFFCURVE",
"132 607 CURVE SMOOTH",
"132 720 OFFCURVE",
"155 821 OFFCURVE",
"202 909 CURVE SMOOTH",
"294 1085 OFFCURVE",
"464 1187 OFFCURVE",
"668 1187 CURVE SMOOTH",
"720 1187 OFFCURVE",
"770 1180 OFFCURVE",
"817 1165 CURVE SMOOTH",
"912 1135 OFFCURVE",
"986 1080 OFFCURVE",
"1022 1015 CURVE",
"1022 1121 LINE SMOOTH",
"1022 1152 OFFCURVE",
"1044 1171 OFFCURVE",
"1071 1171 CURVE SMOOTH",
"1098 1171 OFFCURVE",
"1120 1152 OFFCURVE",
"1120 1120 CURVE SMOOTH",
"1120 827 LINE SMOOTH",
"1120 796 OFFCURVE",
"1099 780 OFFCURVE",
"1074 780 CURVE SMOOTH",
"1050 780 OFFCURVE",
"1031 798 OFFCURVE",
"1026 827 CURVE SMOOTH",
"1016 881 OFFCURVE",
"994 929 OFFCURVE",
"961 970 CURVE SMOOTH",
"893 1053 OFFCURVE",
"790 1101 OFFCURVE",
"671 1101 CURVE SMOOTH",
"581 1101 OFFCURVE",
"503 1080 OFFCURVE",
"436 1037 CURVE SMOOTH",
"303 952 OFFCURVE",
"228 793 OFFCURVE",
"228 600 CURVE SMOOTH",
"228 491 OFFCURVE",
"248 397 OFFCURVE",
"289 317 CURVE SMOOTH",
"369 156 OFFCURVE",
"511 69 OFFCURVE",
"670 69 CURVE SMOOTH",
"859 69 OFFCURVE",
"994 178 OFFCURVE",
"1049 359 CURVE",
"1056 378 OFFCURVE",
"1069 387 OFFCURVE",
"1089 387 CURVE SMOOTH",
"1117 387 OFFCURVE",
"1146 366 OFFCURVE",
"1146 343 CURVE SMOOTH"
);
}
);
width = 1240;
}
);
note = C;
unicode = 0043;
},
{
glyphname = Ccedilla;
lastChange = "2016-08-11 21:18:16 +0000";
layers = (
{
layerId = "012FDA75-DADD-42E4-B1EF-A5A6AF7510CB";
paths = (
{
closed = 1;
nodes = (
"1069 387 OFFCURVE",
"1056 378 OFFCURVE",
"1049 359 CURVE",
"994 178 OFFCURVE",
"859 69 OFFCURVE",
"670 69 CURVE SMOOTH",
"591 69 OFFCURVE",
"517 90 OFFCURVE",
"450 133 CURVE SMOOTH",
"315 217 OFFCURVE",
"228 383 OFFCURVE",
"228 600 CURVE SMOOTH",
"228 697 OFFCURVE",
"246 783 OFFCURVE",
"282 859 CURVE SMOOTH",
"354 1011 OFFCURVE",
"491 1101 OFFCURVE",
"671 1101 CURVE SMOOTH",
"730 1101 OFFCURVE",
"785 1090 OFFCURVE",
"835 1067 CURVE SMOOTH",
"935 1021 OFFCURVE",
"1006 935 OFFCURVE",
"1026 827 CURVE SMOOTH",
"1031 798 OFFCURVE",
"1050 780 OFFCURVE",
"1074 780 CURVE SMOOTH",
"1099 780 OFFCURVE",
"1120 796 OFFCURVE",
"1120 827 CURVE SMOOTH",
"1120 1120 LINE SMOOTH",
"1120 1152 OFFCURVE",
"1098 1171 OFFCURVE",
"1071 1171 CURVE SMOOTH",
"1044 1171 OFFCURVE",
"1022 1152 OFFCURVE",
"1022 1121 CURVE SMOOTH",
"1022 1015 LINE",
"1004 1048 OFFCURVE",
"977 1077 OFFCURVE",
"942 1103 CURVE SMOOTH",
"870 1155 OFFCURVE",
"772 1187 OFFCURVE",
"668 1187 CURVE SMOOTH",
"566 1187 OFFCURVE",
"474 1163 OFFCURVE",
"393 1114 CURVE SMOOTH",
"230 1017 OFFCURVE",
"132 834 OFFCURVE",
"132 607 CURVE SMOOTH",
"132 490 OFFCURVE",
"153 386 OFFCURVE",
"194 295 CURVE SMOOTH",
"277 113 OFFCURVE",
"429 2 OFFCURVE",
"617 -15 CURVE",
"514 -310 LINE SMOOTH",
"509 -326 OFFCURVE",
"506 -340 OFFCURVE",
"506 -351 CURVE SMOOTH",
"506 -384 OFFCURVE",
"524 -405 OFFCURVE",
"555 -405 CURVE SMOOTH",
"584 -405 OFFCURVE",
"610 -381 OFFCURVE",
"617 -325 CURVE SMOOTH",
"656 -17 LINE",
"669 -17 LINE SMOOTH",
"760 -17 OFFCURVE",
"840 0 OFFCURVE",
"907 34 CURVE SMOOTH",
"1041 102 OFFCURVE",
"1118 216 OFFCURVE",
"1145 336 CURVE",
"1146 337 OFFCURVE",
"1146 340 OFFCURVE",
"1146 343 CURVE SMOOTH",
"1146 366 OFFCURVE",
"1117 387 OFFCURVE",
"1089 387 CURVE SMOOTH"
);
}
);
width = 1240;
}
);
note = Ccedilla;
unicode = 00C7;
},
{
glyphname = D;
lastChange = "2016-08-11 21:18:16 +0000";
layers = (
{
layerId = "012FDA75-DADD-42E4-B1EF-A5A6AF7510CB";
paths = (
{
closed = 1;
nodes = (
"871 1171 OFFCURVE",
"1084 980 OFFCURVE",
"1084 591 CURVE SMOOTH",
"1084 180 OFFCURVE",
"886 0 OFFCURVE",
"513 0 CURVE SMOOTH",
"152 0 LINE SMOOTH",
"120 0 OFFCURVE",
"101 19 OFFCURVE",
"101 43 CURVE SMOOTH",
"101 66 OFFCURVE",
"120 86 OFFCURVE",
"151 86 CURVE SMOOTH",
"314 86 LINE",
"314 1085 LINE",
"155 1085 LINE SMOOTH",
"124 1085 OFFCURVE",
"107 1104 OFFCURVE",
"107 1127 CURVE SMOOTH",
"107 1151 OFFCURVE",
"126 1171 OFFCURVE",
"157 1171 CURVE SMOOTH",
"515 1171 LINE SMOOTH"
);
},
{
closed = 1;
nodes = (
"845 86 OFFCURVE",
"988 250 OFFCURVE",
"988 591 CURVE SMOOTH",
"988 908 OFFCURVE",
"826 1085 OFFCURVE",
"534 1085 CURVE SMOOTH",
"410 1085 LINE",
"410 86 LINE",
"520 86 LINE SMOOTH"
);
}
);
width = 1240;
}
);
note = D;
unicode = 0044;
},
{
glyphname = Eth;
lastChange = "2016-08-11 21:18:16 +0000";
layers = (
{
layerId = "012FDA75-DADD-42E4-B1EF-A5A6AF7510CB";
paths = (
{
closed = 1;
nodes = (
"172 572 LINE SMOOTH",
"141 572 OFFCURVE",
"126 585 OFFCURVE",
"126 611 CURVE SMOOTH",
"126 636 OFFCURVE",
"140 648 OFFCURVE",
"168 648 CURVE SMOOTH",
"314 648 LINE",
"314 1085 LINE",
"155 1085 LINE SMOOTH",
"124 1085 OFFCURVE",
"107 1104 OFFCURVE",
"107 1127 CURVE SMOOTH",
"107 1151 OFFCURVE",
"126 1171 OFFCURVE",
"157 1171 CURVE SMOOTH",
"515 1171 LINE SMOOTH",
"871 1171 OFFCURVE",
"1084 980 OFFCURVE",
"1084 591 CURVE SMOOTH",
"1084 180 OFFCURVE",
"886 0 OFFCURVE",
"513 0 CURVE SMOOTH",
"152 0 LINE SMOOTH",
"120 0 OFFCURVE",
"101 19 OFFCURVE",
"101 43 CURVE SMOOTH",
"101 66 OFFCURVE",
"120 86 OFFCURVE",
"151 86 CURVE SMOOTH",
"314 86 LINE",
"314 572 LINE"
);
},
{
closed = 1;
nodes = (
"629 86 OFFCURVE",
"718 105 OFFCURVE",
"785 142 CURVE SMOOTH",
"920 217 OFFCURVE",
"978 363 OFFCURVE",
"978 591 CURVE SMOOTH",
"978 910 OFFCURVE",
"825 1085 OFFCURVE",
"534 1085 CURVE SMOOTH",
"420 1085 LINE",
"420 648 LINE",
"607 648 LINE SMOOTH",
"638 648 OFFCURVE",
"646 634 OFFCURVE",
"646 611 CURVE SMOOTH",
"646 585 OFFCURVE",
"632 572 OFFCURVE",
"605 572 CURVE SMOOTH",
"420 572 LINE",
"420 86 LINE",
"520 86 LINE SMOOTH"
);
}
);
width = 1240;
}
);
note = Eth;
unicode = 00D0;
},
{
glyphname = Dcroat;
lastChange = "2016-08-11 21:18:16 +0000";
layers = (
{
layerId = "012FDA75-DADD-42E4-B1EF-A5A6AF7510CB";
paths = (
{
closed = 1;
nodes = (
"172 572 LINE SMOOTH",
"141 572 OFFCURVE",
"126 585 OFFCURVE",
"126 611 CURVE SMOOTH",
"126 636 OFFCURVE",
"140 648 OFFCURVE",
"168 648 CURVE SMOOTH",
"314 648 LINE",
"314 1085 LINE",
"155 1085 LINE SMOOTH",
"124 1085 OFFCURVE",
"107 1104 OFFCURVE",
"107 1127 CURVE SMOOTH",
"107 1151 OFFCURVE",
"126 1171 OFFCURVE",
"157 1171 CURVE SMOOTH",
"515 1171 LINE SMOOTH",
"871 1171 OFFCURVE",
"1084 980 OFFCURVE",
"1084 591 CURVE SMOOTH",
"1084 180 OFFCURVE",
"886 0 OFFCURVE",
"513 0 CURVE SMOOTH",
"152 0 LINE SMOOTH",
"120 0 OFFCURVE",
"101 19 OFFCURVE",
"101 43 CURVE SMOOTH",
"101 66 OFFCURVE",
"120 86 OFFCURVE",
"151 86 CURVE SMOOTH",
"314 86 LINE",
"314 572 LINE"
);
},
{
closed = 1;
nodes = (
"629 86 OFFCURVE",
"718 105 OFFCURVE",
"785 142 CURVE SMOOTH",
"920 217 OFFCURVE",
"978 363 OFFCURVE",
"978 591 CURVE SMOOTH",
"978 910 OFFCURVE",
"825 1085 OFFCURVE",
"534 1085 CURVE SMOOTH",
"420 1085 LINE",
"420 648 LINE",
"607 648 LINE SMOOTH",
"638 648 OFFCURVE",
"646 634 OFFCURVE",
"646 611 CURVE SMOOTH",
"646 585 OFFCURVE",
"632 572 OFFCURVE",
"605 572 CURVE SMOOTH",
"420 572 LINE",
"420 86 LINE",
"520 86 LINE SMOOTH"
);
}
);
width = 1240;
}
);
note = Dcroat;
unicode = 0110;
},
{
glyphname = E;
lastChange = "2016-08-11 21:18:16 +0000";
layers = (
{
layerId = "012FDA75-DADD-42E4-B1EF-A5A6AF7510CB";
paths = (
{
closed = 1;
nodes = (
"837 404 OFFCURVE",
"820 386 OFFCURVE",
"799 386 CURVE SMOOTH",
"779 386 OFFCURVE",
"760 402 OFFCURVE",
"759 429 CURVE",
"746 577 LINE",
"420 577 LINE",
"420 85 LINE",
"1035 85 LINE",
"1051 336 LINE SMOOTH",
"1052 359 OFFCURVE",
"1072 375 OFFCURVE",
"1095 375 CURVE SMOOTH",
"1118 375 OFFCURVE",
"1137 356 OFFCURVE",
"1137 323 CURVE SMOOTH",
"1137 53 LINE SMOOTH",
"1137 20 OFFCURVE",
"1114 0 OFFCURVE",
"1081 0 CURVE SMOOTH",
"155 0 LINE SMOOTH",
"123 0 OFFCURVE",
"104 20 OFFCURVE",
"104 43 CURVE SMOOTH",
"104 66 OFFCURVE",
"123 85 OFFCURVE",
"154 85 CURVE SMOOTH",
"324 85 LINE",
"324 1085 LINE",
"189 1085 LINE SMOOTH",
"158 1085 OFFCURVE",
"141 1104 OFFCURVE",
"141 1127 CURVE SMOOTH",
"141 1151 OFFCURVE",
"160 1171 OFFCURVE",
"191 1171 CURVE SMOOTH",
"1069 1171 LINE SMOOTH",
"1102 1171 OFFCURVE",
"1125 1150 OFFCURVE",
"1125 1117 CURVE SMOOTH",
"1125 847 LINE SMOOTH",
"1125 819 OFFCURVE",
"1106 803 OFFCURVE",
"1085 803 CURVE SMOOTH",
"1064 803 OFFCURVE",
"1044 817 OFFCURVE",
"1043 841 CURVE SMOOTH",
"1029 1085 LINE",
"420 1085 LINE",
"420 654 LINE",
"746 654 LINE",
"759 787 LINE SMOOTH",
"762 815 OFFCURVE",
"779 832 OFFCURVE",
"799 832 CURVE SMOOTH",
"820 832 OFFCURVE",
"837 814 OFFCURVE",
"837 779 CURVE SMOOTH",
"837 437 LINE SMOOTH"
);
}
);
width = 1240;
}
);
note = E;
unicode = 0045;
},
{
glyphname = Eogonek;
lastChange = "2016-08-11 21:18:16 +0000";
layers = (
{
layerId = "012FDA75-DADD-42E4-B1EF-A5A6AF7510CB";
paths = (
{
closed = 1;
nodes = (
"1072 375 OFFCURVE",
"1052 359 OFFCURVE",
"1051 336 CURVE SMOOTH",
"1035 85 LINE",
"420 85 LINE",
"420 577 LINE",
"746 577 LINE",
"759 429 LINE",
"760 402 OFFCURVE",
"779 386 OFFCURVE",
"799 386 CURVE SMOOTH",
"820 386 OFFCURVE",
"837 404 OFFCURVE",
"837 437 CURVE SMOOTH",
"837 779 LINE SMOOTH",
"837 814 OFFCURVE",
"820 832 OFFCURVE",
"799 832 CURVE SMOOTH",
"779 832 OFFCURVE",
"762 815 OFFCURVE",
"759 787 CURVE SMOOTH",
"746 654 LINE",
"420 654 LINE",
"420 1085 LINE",
"1029 1085 LINE",
"1043 841 LINE SMOOTH",
"1044 817 OFFCURVE",
"1064 803 OFFCURVE",
"1085 803 CURVE SMOOTH",
"1106 803 OFFCURVE",
"1125 819 OFFCURVE",
"1125 847 CURVE SMOOTH",
"1125 1117 LINE SMOOTH",
"1125 1150 OFFCURVE",
"1102 1171 OFFCURVE",
"1069 1171 CURVE SMOOTH",
"191 1171 LINE SMOOTH",
"160 1171 OFFCURVE",
"141 1151 OFFCURVE",
"141 1127 CURVE SMOOTH",
"141 1104 OFFCURVE",
"158 1085 OFFCURVE",
"189 1085 CURVE SMOOTH",
"324 1085 LINE",
"324 85 LINE",
"154 85 LINE SMOOTH",
"123 85 OFFCURVE",
"104 66 OFFCURVE",
"104 43 CURVE SMOOTH",
"104 20 OFFCURVE",
"123 0 OFFCURVE",
"155 0 CURVE SMOOTH",
"722 0 LINE",
"690 -29 OFFCURVE",
"662 -64 OFFCURVE",
"638 -103 CURVE SMOOTH",
"589 -182 OFFCURVE",
"563 -262 OFFCURVE",
"563 -303 CURVE SMOOTH",
"563 -379 OFFCURVE",
"607 -413 OFFCURVE",
"675 -413 CURVE SMOOTH",
"696 -413 OFFCURVE",
"715 -409 OFFCURVE",
"734 -401 CURVE SMOOTH",
"771 -385 OFFCURVE",
"797 -359 OFFCURVE",
"797 -336 CURVE SMOOTH",
"797 -326 OFFCURVE",
"788 -321 OFFCURVE",
"771 -321 CURVE",
"748 -322 LINE",
"725 -322 LINE SMOOTH",
"685 -322 OFFCURVE",
"661 -314 OFFCURVE",
"661 -274 CURVE SMOOTH",
"661 -222 OFFCURVE",
"710 -124 OFFCURVE",
"773 0 CURVE",
"1081 0 LINE SMOOTH",
"1114 0 OFFCURVE",
"1137 20 OFFCURVE",
"1137 53 CURVE SMOOTH",
"1137 323 LINE SMOOTH",
"1137 356 OFFCURVE",
"1118 375 OFFCURVE",
"1095 375 CURVE SMOOTH"
);
}
);
width = 1240;
}
);
note = Eogonek;
unicode = 0118;
},
{
glyphname = F;
lastChange = "2016-08-11 21:18:16 +0000";
layers = (
{
layerId = "012FDA75-DADD-42E4-B1EF-A5A6AF7510CB";
paths = (
{
closed = 1;
nodes = (
"848 404 OFFCURVE",
"831 386 OFFCURVE",
"810 386 CURVE SMOOTH",
"790 386 OFFCURVE",
"771 402 OFFCURVE",
"770 429 CURVE",
"757 577 LINE",
"420 577 LINE",
"420 85 LINE",
"770 85 LINE SMOOTH",
"799 85 OFFCURVE",
"816 66 OFFCURVE",
"816 43 CURVE SMOOTH",
"816 19 OFFCURVE",
"799 0 OFFCURVE",
"771 0 CURVE SMOOTH",
"155 0 LINE SMOOTH",
"123 0 OFFCURVE",
"104 20 OFFCURVE",
"104 43 CURVE SMOOTH",
"104 66 OFFCURVE",
"123 85 OFFCURVE",
"154 85 CURVE SMOOTH",
"324 85 LINE",
"324 1085 LINE",
"189 1085 LINE SMOOTH",
"158 1085 OFFCURVE",
"141 1104 OFFCURVE",
"141 1127 CURVE SMOOTH",
"141 1151 OFFCURVE",
"160 1171 OFFCURVE",
"191 1171 CURVE SMOOTH",
"1082 1171 LINE SMOOTH",
"1115 1171 OFFCURVE",
"1138 1150 OFFCURVE",
"1138 1117 CURVE SMOOTH",
"1138 847 LINE SMOOTH",
"1138 819 OFFCURVE",
"1119 803 OFFCURVE",
"1098 803 CURVE SMOOTH",
"1077 803 OFFCURVE",
"1057 817 OFFCURVE",
"1056 841 CURVE SMOOTH",
"1042 1085 LINE",
"420 1085 LINE",
"420 654 LINE",
"757 654 LINE",
"770 787 LINE SMOOTH",
"773 815 OFFCURVE",
"790 832 OFFCURVE",
"810 832 CURVE SMOOTH",
"831 832 OFFCURVE",
"848 814 OFFCURVE",
"848 779 CURVE SMOOTH",
"848 437 LINE SMOOTH"
);
}
);
width = 1240;
}
);
note = F;
unicode = 0046;
},
{
glyphname = G;
lastChange = "2016-08-11 21:18:16 +0000";
layers = (
{
layerId = "012FDA75-DADD-42E4-B1EF-A5A6AF7510CB";
paths = (
{
closed = 1;
nodes = (
"1083 49 LINE SMOOTH",
"1083 13 OFFCURVE",
"1061 -8 OFFCURVE",
"1036 -8 CURVE SMOOTH",
"1009 -8 OFFCURVE",
"987 14 OFFCURVE",
"987 51 CURVE SMOOTH",
"987 175 LINE",
"970 138 OFFCURVE",
"943 105 OFFCURVE",
"906 76 CURVE SMOOTH",
"831 18 OFFCURVE",
"723 -17 OFFCURVE",
"606 -17 CURVE SMOOTH",
"504 -17 OFFCURVE",
"414 9 OFFCURVE",
"336 60 CURVE SMOOTH",
"180 162 OFFCURVE",
"89 356 OFFCURVE",
"89 607 CURVE SMOOTH",
"89 722 OFFCURVE",
"111 823 OFFCURVE",
"154 911 CURVE SMOOTH",
"240 1086 OFFCURVE",
"402 1187 OFFCURVE",
"605 1187 CURVE SMOOTH",
"657 1187 OFFCURVE",
"707 1180 OFFCURVE",
"754 1165 CURVE SMOOTH",
"849 1135 OFFCURVE",
"923 1080 OFFCURVE",
"959 1015 CURVE",
"959 1121 LINE SMOOTH",
"959 1152 OFFCURVE",
"981 1171 OFFCURVE",
"1008 1171 CURVE SMOOTH",
"1035 1171 OFFCURVE",
"1057 1152 OFFCURVE",
"1057 1120 CURVE SMOOTH",
"1057 827 LINE SMOOTH",
"1057 796 OFFCURVE",
"1036 780 OFFCURVE",
"1011 780 CURVE SMOOTH",
"987 780 OFFCURVE",
"968 798 OFFCURVE",
"963 827 CURVE SMOOTH",
"953 881 OFFCURVE",
"931 929 OFFCURVE",
"898 970 CURVE SMOOTH",
"830 1053 OFFCURVE",
"727 1101 OFFCURVE",
"608 1101 CURVE SMOOTH",
"519 1101 OFFCURVE",
"442 1080 OFFCURVE",
"379 1037 CURVE SMOOTH",
"251 952 OFFCURVE",
"185 796 OFFCURVE",
"185 600 CURVE SMOOTH",
"185 491 OFFCURVE",
"204 396 OFFCURVE",
"241 316 CURVE SMOOTH",
"315 156 OFFCURVE",
"448 69 OFFCURVE",
"607 69 CURVE SMOOTH",
"806 69 OFFCURVE",
"936 173 OFFCURVE",
"987 332 CURVE",
"987 510 LINE",
"863 510 LINE SMOOTH",
"832 510 OFFCURVE",
"813 530 OFFCURVE",
"813 554 CURVE SMOOTH",
"813 577 OFFCURVE",
"831 596 OFFCURVE",
"862 596 CURVE SMOOTH",
"1146 596 LINE SMOOTH",
"1177 596 OFFCURVE",
"1195 577 OFFCURVE",
"1195 554 CURVE SMOOTH",
"1195 530 OFFCURVE",
"1176 510 OFFCURVE",
"1144 510 CURVE SMOOTH",
"1083 510 LINE"
);
}
);
width = 1240;
}
);
note = G;
unicode = 0047;
},
{
glyphname = H;
lastChange = "2016-08-11 21:18:16 +0000";
layers = (
{
layerId = "012FDA75-DADD-42E4-B1EF-A5A6AF7510CB";
paths = (
{
closed = 1;
nodes = (
"112 0 OFFCURVE",
"93 20 OFFCURVE",
"93 44 CURVE SMOOTH",
"93 67 OFFCURVE",
"110 86 OFFCURVE",
"141 86 CURVE SMOOTH",
"265 86 LINE",
"265 1085 LINE",
"157 1085 LINE SMOOTH",
"125 1085 OFFCURVE",
"107 1104 OFFCURVE",
"107 1128 CURVE SMOOTH",
"107 1151 OFFCURVE",
"126 1171 OFFCURVE",
"157 1171 CURVE SMOOTH",
"459 1171 LINE SMOOTH",
"490 1171 OFFCURVE",
"509 1151 OFFCURVE",
"509 1127 CURVE SMOOTH",
"509 1104 OFFCURVE",
"492 1085 OFFCURVE",
"461 1085 CURVE SMOOTH",
"361 1085 LINE",
"361 638 LINE",
"901 638 LINE",
"901 1085 LINE",
"801 1085 LINE SMOOTH",
"770 1085 OFFCURVE",
"753 1104 OFFCURVE",
"753 1127 CURVE SMOOTH",
"753 1151 OFFCURVE",
"772 1171 OFFCURVE",
"803 1171 CURVE SMOOTH",
"1097 1171 LINE SMOOTH",
"1128 1171 OFFCURVE",
"1147 1151 OFFCURVE",
"1147 1130 CURVE SMOOTH",
"1147 1106 OFFCURVE",
"1129 1085 OFFCURVE",
"1097 1085 CURVE SMOOTH",
"997 1085 LINE",
"997 86 LINE",
"1097 86 LINE SMOOTH",
"1129 86 OFFCURVE",
"1147 67 OFFCURVE",
"1147 43 CURVE SMOOTH",
"1147 20 OFFCURVE",
"1128 0 OFFCURVE",
"1097 0 CURVE SMOOTH",
"803 0 LINE SMOOTH",
"772 0 OFFCURVE",
"753 20 OFFCURVE",
"753 44 CURVE SMOOTH",
"753 67 OFFCURVE",
"770 86 OFFCURVE",
"801 86 CURVE SMOOTH",
"901 86 LINE",
"901 558 LINE",
"361 558 LINE",
"361 86 LINE",
"461 86 LINE SMOOTH",
"492 86 OFFCURVE",
"509 67 OFFCURVE",
"509 46 CURVE SMOOTH",
"509 21 OFFCURVE",
"490 0 OFFCURVE",
"459 0 CURVE SMOOTH",
"143 0 LINE SMOOTH"
);
}
);
width = 1240;
}
);
note = H;
unicode = 0048;
},
{
glyphname = Hbar;
lastChange = "2016-08-11 21:18:16 +0000";
layers = (
{
layerId = "012FDA75-DADD-42E4-B1EF-A5A6AF7510CB";
paths = (
{
closed = 1;
nodes = (
"1133 855 OFFCURVE",
"1147 868 OFFCURVE",
"1147 894 CURVE SMOOTH",
"1147 917 OFFCURVE",
"1139 931 OFFCURVE",
"1108 931 CURVE SMOOTH",
"997 931 LINE",
"997 1085 LINE",
"1097 1085 LINE SMOOTH",
"1129 1085 OFFCURVE",
"1147 1106 OFFCURVE",
"1147 1130 CURVE SMOOTH",
"1147 1151 OFFCURVE",
"1128 1171 OFFCURVE",
"1097 1171 CURVE SMOOTH",
"803 1171 LINE SMOOTH",
"772 1171 OFFCURVE",
"753 1151 OFFCURVE",
"753 1127 CURVE SMOOTH",
"753 1104 OFFCURVE",
"770 1085 OFFCURVE",
"801 1085 CURVE SMOOTH",
"901 1085 LINE",
"901 931 LINE",
"361 931 LINE",
"361 1085 LINE",
"461 1085 LINE SMOOTH",
"492 1085 OFFCURVE",
"509 1104 OFFCURVE",
"509 1127 CURVE SMOOTH",
"509 1151 OFFCURVE",
"490 1171 OFFCURVE",
"459 1171 CURVE SMOOTH",
"157 1171 LINE SMOOTH",
"126 1171 OFFCURVE",
"107 1151 OFFCURVE",
"107 1128 CURVE SMOOTH",
"107 1104 OFFCURVE",
"125 1085 OFFCURVE",
"157 1085 CURVE SMOOTH",
"265 1085 LINE",
"265 931 LINE",
"149 931 LINE SMOOTH",
"121 931 OFFCURVE",
"107 919 OFFCURVE",
"107 894 CURVE SMOOTH",
"107 868 OFFCURVE",
"122 855 OFFCURVE",
"153 855 CURVE SMOOTH",
"265 855 LINE",
"265 86 LINE",
"141 86 LINE SMOOTH",
"110 86 OFFCURVE",
"93 67 OFFCURVE",
"93 44 CURVE SMOOTH",
"93 20 OFFCURVE",
"112 0 OFFCURVE",
"143 0 CURVE SMOOTH",
"459 0 LINE SMOOTH",
"490 0 OFFCURVE",
"509 21 OFFCURVE",
"509 46 CURVE SMOOTH",
"509 67 OFFCURVE",
"492 86 OFFCURVE",
"461 86 CURVE SMOOTH",
"361 86 LINE",
"361 558 LINE",
"901 558 LINE",
"901 86 LINE",
"801 86 LINE SMOOTH",
"770 86 OFFCURVE",
"753 67 OFFCURVE",
"753 44 CURVE SMOOTH",
"753 20 OFFCURVE",
"772 0 OFFCURVE",
"803 0 CURVE SMOOTH",
"1097 0 LINE SMOOTH",
"1128 0 OFFCURVE",
"1147 20 OFFCURVE",
"1147 43 CURVE SMOOTH",
"1147 67 OFFCURVE",
"1129 86 OFFCURVE",
"1097 86 CURVE SMOOTH",
"997 86 LINE",
"997 855 LINE",
"1106 855 LINE SMOOTH"
);
},
{
closed = 1;
nodes = (
"361 638 LINE",
"361 855 LINE",
"901 855 LINE",
"901 638 LINE"
);
}
);
width = 1240;
}
);
note = Hbar;
unicode = 0126;
},
{
glyphname = I;
lastChange = "2016-08-11 21:18:16 +0000";
layers = (
{
layerId = "012FDA75-DADD-42E4-B1EF-A5A6AF7510CB";
paths = (
{
closed = 1;
nodes = (
"278 0 OFFCURVE",
"259 19 OFFCURVE",
"259 43 CURVE SMOOTH",
"259 66 OFFCURVE",
"278 86 OFFCURVE",
"309 86 CURVE SMOOTH",
"614 86 LINE",
"614 1085 LINE",
"309 1085 LINE SMOOTH",
"278 1085 OFFCURVE",
"259 1104 OFFCURVE",
"259 1127 CURVE SMOOTH",
"259 1151 OFFCURVE",
"278 1171 OFFCURVE",
"310 1171 CURVE SMOOTH",
"995 1171 LINE SMOOTH",
"1026 1171 OFFCURVE",
"1045 1151 OFFCURVE",
"1045 1127 CURVE SMOOTH",
"1045 1104 OFFCURVE",
"1027 1085 OFFCURVE",
"996 1085 CURVE SMOOTH",
"710 1085 LINE",
"710 86 LINE",
"996 86 LINE SMOOTH",
"1027 86 OFFCURVE",
"1045 66 OFFCURVE",
"1045 43 CURVE SMOOTH",
"1045 19 OFFCURVE",
"1027 0 OFFCURVE",
"995 0 CURVE SMOOTH",
"310 0 LINE SMOOTH"
);
}
);
width = 1240;
}
);
note = I;
unicode = 0049;
},
{
glyphname = IJ;
lastChange = "2016-08-11 21:18:16 +0000";
layers = (
{
layerId = "012FDA75-DADD-42E4-B1EF-A5A6AF7510CB";
paths = (
{
closed = 1;
nodes = (
"1040 307 LINE SMOOTH",
"1040 227 OFFCURVE",
"1030 165 OFFCURVE",
"1009 122 CURVE SMOOTH",
"967 34 OFFCURVE",
"869 0 OFFCURVE",
"676 0 CURVE SMOOTH",
"656 0 OFFCURVE",
"644 18 OFFCURVE",
"644 41 CURVE SMOOTH",
"644 62 OFFCURVE",
"656 81 OFFCURVE",
"676 81 CURVE SMOOTH",
"758 81 OFFCURVE",
"818 87 OFFCURVE",
"855 100 CURVE SMOOTH",
"929 124 OFFCURVE",
"944 175 OFFCURVE",
"944 304 CURVE SMOOTH",
"944 1085 LINE",
"348 1085 LINE",
"348 86 LINE",
"479 86 LINE SMOOTH",
"510 86 OFFCURVE",
"528 66 OFFCURVE",
"528 43 CURVE SMOOTH",
"528 19 OFFCURVE",
"510 0 OFFCURVE",
"478 0 CURVE SMOOTH",
"118 0 LINE SMOOTH",
"86 0 OFFCURVE",
"67 19 OFFCURVE",
"67 43 CURVE SMOOTH",
"67 66 OFFCURVE",
"86 86 OFFCURVE",
"117 86 CURVE SMOOTH",
"252 86 LINE",
"252 1085 LINE",
"97 1085 LINE SMOOTH",
"66 1085 OFFCURVE",
"47 1104 OFFCURVE",
"47 1127 CURVE SMOOTH",
"47 1151 OFFCURVE",
"67 1171 OFFCURVE",
"98 1171 CURVE SMOOTH",
"1142 1171 LINE SMOOTH",
"1174 1171 OFFCURVE",
"1192 1152 OFFCURVE",
"1192 1128 CURVE SMOOTH",
"1192 1105 OFFCURVE",
"1174 1085 OFFCURVE",
"1143 1085 CURVE SMOOTH",
"1040 1085 LINE"
);
}
);
width = 1240;
}
);
note = IJ;
unicode = 0132;
},
{
glyphname = Iogonek;
lastChange = "2016-08-11 21:18:16 +0000";
layers = (
{
layerId = "012FDA75-DADD-42E4-B1EF-A5A6AF7510CB";
paths = (
{
closed = 1;
nodes = (
"710 1085 LINE",
"996 1085 LINE SMOOTH",
"1027 1085 OFFCURVE",
"1045 1104 OFFCURVE",
"1045 1127 CURVE SMOOTH",
"1045 1151 OFFCURVE",
"1026 1171 OFFCURVE",
"995 1171 CURVE SMOOTH",
"310 1171 LINE SMOOTH",
"278 1171 OFFCURVE",
"259 1151 OFFCURVE",
"259 1127 CURVE SMOOTH",
"259 1104 OFFCURVE",
"278 1085 OFFCURVE",
"309 1085 CURVE SMOOTH",
"614 1085 LINE",
"614 86 LINE",
"309 86 LINE SMOOTH",
"278 86 OFFCURVE",
"259 66 OFFCURVE",
"259 43 CURVE SMOOTH",
"259 19 OFFCURVE",
"278 0 OFFCURVE",
"310 0 CURVE SMOOTH",
"616 0 LINE",
"584 -29 OFFCURVE",
"556 -64 OFFCURVE",
"532 -103 CURVE SMOOTH",
"483 -182 OFFCURVE",
"457 -262 OFFCURVE",
"457 -303 CURVE SMOOTH",
"457 -379 OFFCURVE",
"501 -413 OFFCURVE",
"569 -413 CURVE SMOOTH",
"590 -413 OFFCURVE",
"609 -409 OFFCURVE",
"628 -401 CURVE SMOOTH",
"665 -385 OFFCURVE",
"691 -359 OFFCURVE",
"691 -336 CURVE SMOOTH",
"691 -326 OFFCURVE",
"682 -321 OFFCURVE",
"665 -321 CURVE",
"642 -322 LINE",
"619 -322 LINE SMOOTH",
"579 -322 OFFCURVE",
"555 -314 OFFCURVE",
"555 -274 CURVE SMOOTH",
"555 -222 OFFCURVE",
"604 -124 OFFCURVE",
"667 0 CURVE",
"995 0 LINE SMOOTH",
"1027 0 OFFCURVE",
"1045 19 OFFCURVE",
"1045 43 CURVE SMOOTH",
"1045 66 OFFCURVE",
"1027 86 OFFCURVE",
"996 86 CURVE SMOOTH",
"710 86 LINE"
);
}
);
width = 1240;
}
);
note = Iogonek;
unicode = 012E;
},
{
glyphname = J;
lastChange = "2016-08-11 21:18:16 +0000";
layers = (
{
layerId = "012FDA75-DADD-42E4-B1EF-A5A6AF7510CB";
paths = (
{
closed = 1;
nodes = (
"855 317 LINE SMOOTH",
"855 244 OFFCURVE",
"836 182 OFFCURVE",
"797 133 CURVE SMOOTH",
"719 33 OFFCURVE",
"588 -13 OFFCURVE",
"451 -13 CURVE SMOOTH",
"396 -13 OFFCURVE",
"344 -5 OFFCURVE",
"297 10 CURVE SMOOTH",
"201 40 OFFCURVE",
"138 98 OFFCURVE",
"138 171 CURVE SMOOTH",
"138 283 LINE SMOOTH",
"138 311 OFFCURVE",
"162 328 OFFCURVE",
"187 328 CURVE SMOOTH",
"212 328 OFFCURVE",
"234 311 OFFCURVE",
"234 283 CURVE SMOOTH",
"234 182 LINE SMOOTH",
"234 160 OFFCURVE",
"245 140 OFFCURVE",
"266 123 CURVE SMOOTH",
"308 88 OFFCURVE",
"381 68 OFFCURVE",
"460 68 CURVE SMOOTH",
"511 68 OFFCURVE",
"559 77 OFFCURVE",
"604 94 CURVE SMOOTH",
"695 128 OFFCURVE",
"759 201 OFFCURVE",
"759 314 CURVE SMOOTH",
"759 1085 LINE",
"409 1085 LINE SMOOTH",
"378 1085 OFFCURVE",
"361 1104 OFFCURVE",
"361 1127 CURVE SMOOTH",
"361 1151 OFFCURVE",
"379 1171 OFFCURVE",
"410 1171 CURVE SMOOTH",
"1025 1171 LINE SMOOTH",
"1057 1171 OFFCURVE",
"1075 1152 OFFCURVE",
"1075 1128 CURVE SMOOTH",
"1075 1105 OFFCURVE",
"1057 1085 OFFCURVE",
"1026 1085 CURVE SMOOTH",
"855 1085 LINE"
);
}
);
width = 1240;
}
);
note = J;
unicode = 004A;
},
{
glyphname = K;
lastChange = "2016-08-11 21:18:16 +0000";
layers = (
{
layerId = "012FDA75-DADD-42E4-B1EF-A5A6AF7510CB";
paths = (
{
closed = 1;
nodes = (
"52 0 OFFCURVE",
"33 19 OFFCURVE",
"33 43 CURVE SMOOTH",
"33 66 OFFCURVE",
"52 86 OFFCURVE",
"83 86 CURVE SMOOTH",
"242 86 LINE",
"242 1084 LINE",
"83 1084 LINE SMOOTH",
"51 1084 OFFCURVE",
"33 1103 OFFCURVE",
"33 1127 CURVE SMOOTH",
"33 1151 OFFCURVE",
"52 1171 OFFCURVE",
"84 1171 CURVE SMOOTH",
"529 1171 LINE SMOOTH",
"560 1171 OFFCURVE",
"579 1150 OFFCURVE",
"579 1126 CURVE SMOOTH",
"579 1103 OFFCURVE",
"562 1084 OFFCURVE",
"531 1084 CURVE SMOOTH",
"338 1084 LINE",
"338 558 LINE",
"914 1078 LINE",
"919 1083 OFFCURVE",
"921 1086 OFFCURVE",
"921 1088 CURVE SMOOTH",
"921 1092 OFFCURVE",
"915 1094 OFFCURVE",
"902 1094 CURVE SMOOTH",
"813 1094 LINE SMOOTH",
"782 1094 OFFCURVE",
"764 1111 OFFCURVE",
"764 1131 CURVE SMOOTH",
"764 1152 OFFCURVE",
"783 1171 OFFCURVE",
"814 1171 CURVE SMOOTH",
"1176 1171 LINE SMOOTH",
"1207 1171 OFFCURVE",
"1225 1151 OFFCURVE",
"1225 1127 CURVE SMOOTH",
"1225 1103 OFFCURVE",
"1208 1084 OFFCURVE",
"1177 1084 CURVE SMOOTH",
"1039 1084 LINE",
"601 676 LINE",
"1122 86 LINE",
"1259 86 LINE SMOOTH",
"1290 86 OFFCURVE",
"1307 66 OFFCURVE",
"1307 43 CURVE SMOOTH",
"1307 19 OFFCURVE",
"1289 0 OFFCURVE",
"1258 0 CURVE SMOOTH",
"840 0 LINE SMOOTH",
"808 0 OFFCURVE",
"790 19 OFFCURVE",
"790 43 CURVE SMOOTH",
"790 66 OFFCURVE",
"808 86 OFFCURVE",
"839 86 CURVE SMOOTH",
"1005 86 LINE",
"527 621 LINE",
"342 465 LINE",
"342 86 LINE",
"586 86 LINE SMOOTH",
"617 86 OFFCURVE",
"635 66 OFFCURVE",
"635 43 CURVE SMOOTH",
"635 19 OFFCURVE",
"617 0 OFFCURVE",
"585 0 CURVE SMOOTH",
"84 0 LINE SMOOTH"
);
}
);
width = 1240;
}
);
note = K;
unicode = 004B;
},
{
glyphname = L;
lastChange = "2016-08-11 21:18:16 +0000";
layers = (
{
layerId = "012FDA75-DADD-42E4-B1EF-A5A6AF7510CB";
paths = (
{
closed = 1;
nodes = (
"672 1171 OFFCURVE",
"691 1151 OFFCURVE",
"691 1127 CURVE SMOOTH",
"691 1104 OFFCURVE",
"672 1085 OFFCURVE",
"641 1085 CURVE SMOOTH",
"489 1085 LINE",
"489 86 LINE",
"946 86 LINE",
"971 89 OFFCURVE",
"984 95 OFFCURVE",
"987 123 CURVE SMOOTH",
"1021 399 LINE SMOOTH",
"1025 427 OFFCURVE",
"1046 442 OFFCURVE",
"1071 442 CURVE SMOOTH",
"1099 442 OFFCURVE",
"1122 424 OFFCURVE",
"1122 393 CURVE SMOOTH",
"1122 387 LINE",
"1092 66 LINE SMOOTH",
"1087 27 OFFCURVE",
"1061 0 OFFCURVE",
"1020 0 CURVE SMOOTH",
"125 0 LINE SMOOTH",
"93 0 OFFCURVE",
"74 19 OFFCURVE",
"74 43 CURVE SMOOTH",
"74 66 OFFCURVE",
"93 86 OFFCURVE",
"124 86 CURVE SMOOTH",
"393 86 LINE",
"393 1085 LINE",
"166 1085 LINE SMOOTH",
"135 1085 OFFCURVE",
"117 1104 OFFCURVE",
"117 1127 CURVE SMOOTH",
"117 1151 OFFCURVE",
"136 1171 OFFCURVE",
"167 1171 CURVE SMOOTH",
"640 1171 LINE SMOOTH"
);
}
);
width = 1240;
}
);
note = L;
unicode = 004C;
},
{
glyphname = Lslash;
lastChange = "2016-08-11 21:18:16 +0000";
layers = (
{
layerId = "012FDA75-DADD-42E4-B1EF-A5A6AF7510CB";
paths = (
{
closed = 1;
nodes = (
"1046 442 OFFCURVE",
"1025 427 OFFCURVE",
"1021 399 CURVE SMOOTH",
"987 123 LINE SMOOTH",
"984 95 OFFCURVE",
"971 89 OFFCURVE",
"946 86 CURVE",
"489 86 LINE",
"489 612 LINE",
"780 685 LINE SMOOTH",
"807 692 OFFCURVE",
"818 703 OFFCURVE",
"818 722 CURVE SMOOTH",
"818 750 OFFCURVE",
"802 768 OFFCURVE",
"777 768 CURVE SMOOTH",
"772 768 OFFCURVE",
"765 767 OFFCURVE",
"758 765 CURVE",
"489 699 LINE",
"489 1085 LINE",
"641 1085 LINE SMOOTH",
"672 1085 OFFCURVE",
"691 1104 OFFCURVE",
"691 1127 CURVE SMOOTH",
"691 1151 OFFCURVE",
"672 1171 OFFCURVE",
"640 1171 CURVE SMOOTH",
"167 1171 LINE SMOOTH",
"136 1171 OFFCURVE",
"117 1151 OFFCURVE",
"117 1127 CURVE SMOOTH",
"117 1104 OFFCURVE",
"135 1085 OFFCURVE",
"166 1085 CURVE SMOOTH",
"393 1085 LINE",
"393 676 LINE",
"223 634 LINE SMOOTH",
"196 627 OFFCURVE",
"183 614 OFFCURVE",
"183 594 CURVE SMOOTH",
"183 566 OFFCURVE",
"198 548 OFFCURVE",
"223 548 CURVE SMOOTH",
"230 548 OFFCURVE",
"237 549 OFFCURVE",
"245 551 CURVE SMOOTH",
"393 588 LINE",
"393 86 LINE",
"124 86 LINE SMOOTH",
"93 86 OFFCURVE",
"74 66 OFFCURVE",
"74 43 CURVE SMOOTH",
"74 19 OFFCURVE",
"93 0 OFFCURVE",
"125 0 CURVE SMOOTH",
"1020 0 LINE SMOOTH",
"1061 0 OFFCURVE",
"1087 27 OFFCURVE",
"1092 66 CURVE SMOOTH",
"1122 387 LINE",
"1122 393 LINE SMOOTH",
"1122 424 OFFCURVE",
"1099 442 OFFCURVE",
"1071 442 CURVE SMOOTH"
);
}
);
width = 1240;
}
);
note = Lslash;
unicode = 0141;
},
{
glyphname = M;
lastChange = "2016-08-11 21:18:16 +0000";
layers = (
{
layerId = "012FDA75-DADD-42E4-B1EF-A5A6AF7510CB";
paths = (
{
closed = 1;
nodes = (
"785 0 OFFCURVE",
"766 20 OFFCURVE",
"766 44 CURVE SMOOTH",
"766 67 OFFCURVE",
"784 86 OFFCURVE",
"815 86 CURVE SMOOTH",
"948 86 LINE",
"948 982 LINE",
"691 390 LINE SMOOTH",
"678 359 OFFCURVE",
"652 342 OFFCURVE",
"625 342 CURVE SMOOTH",
"600 342 OFFCURVE",
"577 356 OFFCURVE",
"565 385 CURVE SMOOTH",
"298 978 LINE",
"298 86 LINE",
"418 86 LINE SMOOTH",
"450 86 OFFCURVE",
"468 67 OFFCURVE",
"468 44 CURVE SMOOTH",
"468 20 OFFCURVE",
"449 0 OFFCURVE",
"417 0 CURVE SMOOTH",
"70 0 LINE SMOOTH",
"38 0 OFFCURVE",
"20 19 OFFCURVE",
"20 43 CURVE SMOOTH",
"20 66 OFFCURVE",
"38 86 OFFCURVE",
"69 86 CURVE SMOOTH",
"202 86 LINE",
"202 1085 LINE",
"83 1085 LINE SMOOTH",
"52 1085 OFFCURVE",
"34 1104 OFFCURVE",
"34 1127 CURVE SMOOTH",
"34 1151 OFFCURVE",
"53 1171 OFFCURVE",
"84 1171 CURVE SMOOTH",
"282 1171 LINE SMOOTH",
"302 1171 OFFCURVE",
"317 1159 OFFCURVE",
"328 1136 CURVE SMOOTH",
"629 473 LINE",
"919 1141 LINE SMOOTH",
"926 1158 OFFCURVE",
"943 1171 OFFCURVE",
"964 1171 CURVE SMOOTH",
"1156 1171 LINE SMOOTH",
"1188 1171 OFFCURVE",
"1207 1151 OFFCURVE",
"1207 1127 CURVE SMOOTH",
"1207 1104 OFFCURVE",
"1188 1085 OFFCURVE",
"1157 1085 CURVE SMOOTH",
"1044 1085 LINE",
"1044 86 LINE",
"1172 86 LINE SMOOTH",
"1203 86 OFFCURVE",
"1220 67 OFFCURVE",
"1220 44 CURVE SMOOTH",
"1220 20 OFFCURVE",
"1201 0 OFFCURVE",
"1170 0 CURVE SMOOTH",
"817 0 LINE SMOOTH"
);
}
);
width = 1240;
}
);
note = M;
unicode = 004D;
},
{
glyphname = N;
lastChange = "2016-08-11 21:18:16 +0000";
layers = (
{
layerId = "012FDA75-DADD-42E4-B1EF-A5A6AF7510CB";
paths = (
{
closed = 1;
nodes = (
"129 1085 LINE SMOOTH",
"98 1085 OFFCURVE",
"80 1104 OFFCURVE",
"80 1127 CURVE SMOOTH",
"80 1151 OFFCURVE",
"99 1171 OFFCURVE",
"130 1171 CURVE SMOOTH",
"417 1171 LINE SMOOTH",
"438 1171 OFFCURVE",
"449 1164 OFFCURVE",
"457 1147 CURVE SMOOTH",
"943 194 LINE",
"943 1085 LINE",
"794 1085 LINE SMOOTH",
"763 1085 OFFCURVE",
"745 1104 OFFCURVE",
"745 1127 CURVE SMOOTH",
"745 1151 OFFCURVE",
"764 1171 OFFCURVE",
"796 1171 CURVE SMOOTH",
"1133 1171 LINE SMOOTH",
"1164 1171 OFFCURVE",
"1183 1151 OFFCURVE",
"1183 1127 CURVE SMOOTH",
"1183 1104 OFFCURVE",
"1166 1085 OFFCURVE",
"1135 1085 CURVE SMOOTH",
"1039 1085 LINE",
"1039 47 LINE SMOOTH",
"1039 6 OFFCURVE",
"1018 -16 OFFCURVE",
"990 -16 CURVE SMOOTH",
"969 -16 OFFCURVE",
"946 -2 OFFCURVE",
"934 22 CURVE SMOOTH",
"381 1084 LINE",
"381 86 LINE",
"519 86 LINE SMOOTH",
"550 86 OFFCURVE",
"568 66 OFFCURVE",
"568 43 CURVE SMOOTH",
"568 19 OFFCURVE",
"550 0 OFFCURVE",
"518 0 CURVE SMOOTH",
"160 0 LINE SMOOTH",
"128 0 OFFCURVE",
"110 19 OFFCURVE",
"110 43 CURVE SMOOTH",
"110 66 OFFCURVE",
"128 86 OFFCURVE",
"159 86 CURVE SMOOTH",
"285 86 LINE",
"285 1085 LINE"
);
}
);
width = 1240;
}
);
note = N;
unicode = 004E;
},
{
glyphname = Eng;
lastChange = "2016-08-11 21:18:16 +0000";
layers = (
{
layerId = "012FDA75-DADD-42E4-B1EF-A5A6AF7510CB";
paths = (
{
closed = 1;
nodes = (
"1039 -94 OFFCURVE",
"1020 -161 OFFCURVE",
"982 -219 CURVE SMOOTH",
"906 -335 OFFCURVE",
"772 -401 OFFCURVE",
"629 -401 CURVE SMOOTH",
"605 -401 OFFCURVE",
"589 -382 OFFCURVE",
"589 -359 CURVE SMOOTH",
"589 -338 OFFCURVE",
"603 -320 OFFCURVE",
"630 -320 CURVE SMOOTH",
"682 -320 OFFCURVE",
"732 -308 OFFCURVE",
"780 -284 CURVE SMOOTH",
"876 -237 OFFCURVE",
"943 -147 OFFCURVE",
"943 -32 CURVE SMOOTH",
"943 52 LINE",
"847 227 LINE SMOOTH",
"595 685 OFFCURVE",
"440 971 OFFCURVE",
"381 1084 CURVE",
"381 86 LINE",
"519 86 LINE SMOOTH",
"550 86 OFFCURVE",
"568 66 OFFCURVE",
"568 43 CURVE SMOOTH",
"568 19 OFFCURVE",
"550 0 OFFCURVE",
"518 0 CURVE SMOOTH",
"160 0 LINE SMOOTH",
"128 0 OFFCURVE",
"110 19 OFFCURVE",
"110 43 CURVE SMOOTH",
"110 66 OFFCURVE",
"128 86 OFFCURVE",
"159 86 CURVE SMOOTH",
"285 86 LINE",
"285 1085 LINE",
"129 1085 LINE SMOOTH",
"98 1085 OFFCURVE",
"80 1104 OFFCURVE",
"80 1127 CURVE SMOOTH",
"80 1151 OFFCURVE",
"99 1171 OFFCURVE",
"130 1171 CURVE SMOOTH",
"407 1171 LINE SMOOTH",
"428 1171 OFFCURVE",
"439 1164 OFFCURVE",
"447 1147 CURVE",
"943 224 LINE",
"943 1085 LINE",
"794 1085 LINE SMOOTH",
"763 1085 OFFCURVE",
"745 1104 OFFCURVE",
"745 1127 CURVE SMOOTH",
"745 1151 OFFCURVE",
"764 1171 OFFCURVE",
"796 1171 CURVE SMOOTH",
"1133 1171 LINE SMOOTH",
"1164 1171 OFFCURVE",
"1183 1151 OFFCURVE",
"1183 1127 CURVE SMOOTH",
"1183 1104 OFFCURVE",
"1166 1085 OFFCURVE",
"1135 1085 CURVE SMOOTH",
"1039 1085 LINE",
"1039 -19 LINE SMOOTH"
);
}
);
width = 1240;
}
);
note = Eng;
unicode = 014A;
},
{
glyphname = O;
lastChange = "2016-08-11 21:18:16 +0000";
layers = (
{
layerId = "012FDA75-DADD-42E4-B1EF-A5A6AF7510CB";
paths = (
{
closed = 1;
nodes = (
"1132 478 OFFCURVE",
"1113 380 OFFCURVE",
"1074 289 CURVE SMOOTH",
"996 106 OFFCURVE",
"837 -17 OFFCURVE",
"620 -17 CURVE SMOOTH",
"511 -17 OFFCURVE",
"418 11 OFFCURVE",
"341 68 CURVE SMOOTH",
"186 180 OFFCURVE",
"108 374 OFFCURVE",
"108 582 CURVE SMOOTH",
"108 686 OFFCURVE",
"128 784 OFFCURVE",
"167 877 CURVE SMOOTH",
"245 1061 OFFCURVE",
"403 1187 OFFCURVE",
"620 1187 CURVE SMOOTH",
"729 1187 OFFCURVE",
"822 1158 OFFCURVE",
"899 1101 CURVE SMOOTH",
"1054 986 OFFCURVE",
"1132 790 OFFCURVE",
"1132 582 CURVE SMOOTH"
);
},
{
closed = 1;
nodes = (
"1036 672 OFFCURVE",
"1020 757 OFFCURVE",
"988 836 CURVE SMOOTH",
"924 994 OFFCURVE",
"796 1101 OFFCURVE",
"620 1101 CURVE SMOOTH",
"532 1101 OFFCURVE",
"457 1077 OFFCURVE",
"394 1028 CURVE SMOOTH",
"269 930 OFFCURVE",
"204 762 OFFCURVE",
"204 582 CURVE SMOOTH",
"204 493 OFFCURVE",
"220 410 OFFCURVE",
"251 332 CURVE SMOOTH",
"314 175 OFFCURVE",
"441 69 OFFCURVE",
"620 69 CURVE SMOOTH",
"709 69 OFFCURVE",
"785 93 OFFCURVE",
"848 142 CURVE SMOOTH",
"973 238 OFFCURVE",
"1036 405 OFFCURVE",
"1036 582 CURVE SMOOTH"
);
}
);
width = 1240;
}
);
note = O;
unicode = 004F;
},
{
glyphname = Oslash;
lastChange = "2016-08-11 21:18:16 +0000";
layers = (
{
layerId = "012FDA75-DADD-42E4-B1EF-A5A6AF7510CB";
paths = (
{
closed = 1;
nodes = (
"1036 1279 OFFCURVE",
"1037 1284 OFFCURVE",
"1037 1289 CURVE SMOOTH",
"1037 1308 OFFCURVE",
"1018 1321 OFFCURVE",
"999 1321 CURVE SMOOTH",
"987 1321 OFFCURVE",
"978 1316 OFFCURVE",
"972 1305 CURVE SMOOTH",
"876 1117 LINE",
"801 1164 OFFCURVE",
"715 1187 OFFCURVE",
"620 1187 CURVE SMOOTH",
"511 1187 OFFCURVE",
"418 1158 OFFCURVE",
"341 1101 CURVE SMOOTH",
"186 986 OFFCURVE",
"108 790 OFFCURVE",
"108 582 CURVE SMOOTH",
"108 373 OFFCURVE",
"190 176 OFFCURVE",
"339 69 CURVE",
"229 -146 LINE SMOOTH",
"227 -150 OFFCURVE",
"226 -154 OFFCURVE",
"226 -158 CURVE SMOOTH",
"226 -175 OFFCURVE",
"245 -192 OFFCURVE",
"265 -192 CURVE SMOOTH",
"279 -192 OFFCURVE",
"289 -185 OFFCURVE",
"295 -172 CURVE",
"399 33 LINE",
"466 0 OFFCURVE",
"539 -17 OFFCURVE",
"620 -17 CURVE SMOOTH",
"729 -17 OFFCURVE",
"822 11 OFFCURVE",
"899 68 CURVE SMOOTH",
"1054 180 OFFCURVE",
"1132 374 OFFCURVE",
"1132 582 CURVE SMOOTH",
"1132 777 OFFCURVE",
"1061 963 OFFCURVE",
"932 1075 CURVE",
"1033 1274 LINE"
);
},
{
closed = 1;
nodes = (
"204 672 OFFCURVE",
"220 757 OFFCURVE",
"252 836 CURVE SMOOTH",
"316 994 OFFCURVE",
"444 1101 OFFCURVE",
"620 1101 CURVE SMOOTH",
"701 1101 OFFCURVE",
"773 1079 OFFCURVE",
"834 1036 CURVE",
"381 151 LINE",
"266 244 OFFCURVE",
"204 409 OFFCURVE",
"204 582 CURVE SMOOTH"
);
},
{
closed = 1;
nodes = (
"552 69 OFFCURVE",
"492 83 OFFCURVE",
"440 112 CURVE",
"888 991 LINE",
"984 894 OFFCURVE",
"1036 741 OFFCURVE",
"1036 582 CURVE SMOOTH",
"1036 493 OFFCURVE",
"1020 410 OFFCURVE",
"989 332 CURVE SMOOTH",
"926 175 OFFCURVE",
"799 69 OFFCURVE",
"620 69 CURVE SMOOTH"
);
}
);
width = 1240;
}
);
note = Oslash;
unicode = 00D8;
},
{
glyphname = OE;
lastChange = "2016-08-11 21:18:16 +0000";
layers = (
{
layerId = "012FDA75-DADD-42E4-B1EF-A5A6AF7510CB";
paths = (
{
closed = 1;
nodes = (
"924 404 OFFCURVE",
"907 386 OFFCURVE",
"886 386 CURVE SMOOTH",
"866 386 OFFCURVE",
"847 402 OFFCURVE",
"846 429 CURVE",
"833 577 LINE",
"677 577 LINE",
"677 85 LINE",
"1012 85 LINE",
"1028 336 LINE SMOOTH",
"1029 359 OFFCURVE",
"1049 375 OFFCURVE",
"1072 375 CURVE SMOOTH",
"1095 375 OFFCURVE",
"1114 356 OFFCURVE",
"1114 323 CURVE SMOOTH",
"1114 53 LINE SMOOTH",
"1114 20 OFFCURVE",
"1091 0 OFFCURVE",
"1058 0 CURVE SMOOTH",
"563 0 LINE SMOOTH",
"486 0 OFFCURVE",
"414 23 OFFCURVE",
"346 68 CURVE SMOOTH",
"210 158 OFFCURVE",
"118 338 OFFCURVE",
"118 582 CURVE SMOOTH",
"118 704 OFFCURVE",
"139 810 OFFCURVE",
"182 899 CURVE SMOOTH",
"266 1078 OFFCURVE",
"413 1172 OFFCURVE",
"566 1172 CURVE SMOOTH",
"1046 1171 LINE SMOOTH",
"1079 1171 OFFCURVE",
"1102 1150 OFFCURVE",
"1102 1117 CURVE SMOOTH",
"1102 847 LINE SMOOTH",
"1102 819 OFFCURVE",
"1083 803 OFFCURVE",
"1062 803 CURVE SMOOTH",
"1041 803 OFFCURVE",
"1021 817 OFFCURVE",
"1020 841 CURVE SMOOTH",
"1006 1084 LINE",
"677 1084 LINE",
"677 654 LINE",
"833 654 LINE",
"846 787 LINE SMOOTH",
"849 815 OFFCURVE",
"866 832 OFFCURVE",
"886 832 CURVE SMOOTH",
"907 832 OFFCURVE",
"924 814 OFFCURVE",
"924 779 CURVE SMOOTH",
"924 437 LINE SMOOTH"
);
},
{
closed = 1;
nodes = (
"504 1084 OFFCURVE",
"447 1065 OFFCURVE",
"394 1026 CURVE SMOOTH",
"286 949 OFFCURVE",
"214 793 OFFCURVE",
"214 582 CURVE SMOOTH",
"214 479 OFFCURVE",
"230 390 OFFCURVE",
"263 315 CURVE SMOOTH",
"328 163 OFFCURVE",
"442 82 OFFCURVE",
"561 82 CURVE SMOOTH",
"579 82 LINE",
"579 1084 LINE",
"564 1084 LINE SMOOTH"
);
}
);
width = 1240;
}
);
note = OE;
unicode = 0152;
},
{
glyphname = P;
lastChange = "2016-08-11 21:18:16 +0000";
layers = (
{
layerId = "012FDA75-DADD-42E4-B1EF-A5A6AF7510CB";
paths = (
{
closed = 1;
nodes = (
"645 1171 OFFCURVE",
"738 1165 OFFCURVE",
"812 1152 CURVE SMOOTH",
"959 1126 OFFCURVE",
"1068 1039 OFFCURVE",
"1068 847 CURVE SMOOTH",
"1068 751 OFFCURVE",
"1045 680 OFFCURVE",
"999 634 CURVE SMOOTH",
"907 541 OFFCURVE",
"775 527 OFFCURVE",
"558 527 CURVE SMOOTH",
"442 527 LINE",
"442 86 LINE",
"771 86 LINE SMOOTH",
"802 86 OFFCURVE",
"820 66 OFFCURVE",
"820 43 CURVE SMOOTH",
"820 19 OFFCURVE",
"802 0 OFFCURVE",
"770 0 CURVE SMOOTH",
"174 0 LINE SMOOTH",
"142 0 OFFCURVE",
"123 19 OFFCURVE",
"123 43 CURVE SMOOTH",
"123 66 OFFCURVE",
"142 86 OFFCURVE",
"173 86 CURVE SMOOTH",
"346 86 LINE",
"346 1085 LINE",
"187 1085 LINE SMOOTH",
"156 1085 OFFCURVE",
"138 1104 OFFCURVE",
"138 1127 CURVE SMOOTH",
"138 1151 OFFCURVE",
"157 1171 OFFCURVE",
"188 1171 CURVE SMOOTH",
"532 1171 LINE SMOOTH"
);
},
{
closed = 1;
nodes = (
"675 607 OFFCURVE",
"742 612 OFFCURVE",
"794 621 CURVE SMOOTH",
"897 639 OFFCURVE",
"972 702 OFFCURVE",
"972 843 CURVE SMOOTH",
"972 918 OFFCURVE",
"952 973 OFFCURVE",
"912 1008 CURVE SMOOTH",
"831 1079 OFFCURVE",
"727 1085 OFFCURVE",
"552 1085 CURVE SMOOTH",
"442 1085 LINE",
"442 607 LINE",
"594 607 LINE SMOOTH"
);
}
);
width = 1240;
}
);
note = P;
unicode = 0050;
},
{
glyphname = Thorn;
lastChange = "2016-08-11 21:18:16 +0000";
layers = (
{
layerId = "012FDA75-DADD-42E4-B1EF-A5A6AF7510CB";
paths = (
{
closed = 1;
nodes = (
"569 928 OFFCURVE",
"681 923 OFFCURVE",
"766 913 CURVE SMOOTH",
"934 892 OFFCURVE",
"1067 811 OFFCURVE",
"1067 619 CURVE SMOOTH",
"1067 527 OFFCURVE",
"1037 459 OFFCURVE",
"976 415 CURVE SMOOTH",
"855 327 OFFCURVE",
"694 318 OFFCURVE",
"429 318 CURVE",
"429 82 LINE",
"656 82 LINE SMOOTH",
"682 82 OFFCURVE",
"695 68 OFFCURVE",
"695 41 CURVE SMOOTH",
"695 14 OFFCURVE",
"682 0 OFFCURVE",
"655 0 CURVE SMOOTH",
"109 0 LINE SMOOTH",
"82 0 OFFCURVE",
"68 14 OFFCURVE",
"68 41 CURVE SMOOTH",
"68 68 OFFCURVE",
"81 82 OFFCURVE",
"108 82 CURVE SMOOTH",
"333 82 LINE",
"333 1085 LINE",
"121 1085 LINE SMOOTH",
"95 1085 OFFCURVE",
"82 1099 OFFCURVE",
"82 1127 CURVE SMOOTH",
"82 1156 OFFCURVE",
"96 1171 OFFCURVE",
"123 1171 CURVE SMOOTH",
"600 1171 LINE SMOOTH",
"624 1171 OFFCURVE",
"631 1155 OFFCURVE",
"631 1130 CURVE SMOOTH",
"631 1100 OFFCURVE",
"618 1085 OFFCURVE",
"592 1085 CURVE SMOOTH",
"429 1085 LINE",
"429 928 LINE"
);
},
{
closed = 1;
nodes = (
"570 392 OFFCURVE",
"678 398 OFFCURVE",
"754 411 CURVE SMOOTH",
"906 436 OFFCURVE",
"971 497 OFFCURVE",
"971 626 CURVE SMOOTH",
"971 746 OFFCURVE",
"915 806 OFFCURVE",
"762 832 CURVE SMOOTH",
"685 845 OFFCURVE",
"574 851 OFFCURVE",
"429 851 CURVE",
"429 392 LINE"
);
}
);
width = 1240;
}
);
note = Thorn;
unicode = 00DE;
},
{
glyphname = Q;
lastChange = "2016-08-11 21:18:16 +0000";
layers = (
{
layerId = "012FDA75-DADD-42E4-B1EF-A5A6AF7510CB";
paths = (
{
closed = 1;
nodes = (
"421 14 OFFCURVE",
"348 52 OFFCURVE",
"289 111 CURVE SMOOTH",
"169 227 OFFCURVE",
"108 399 OFFCURVE",
"108 582 CURVE SMOOTH",
"108 686 OFFCURVE",
"128 784 OFFCURVE",
"167 877 CURVE SMOOTH",
"245 1061 OFFCURVE",
"403 1187 OFFCURVE",
"620 1187 CURVE SMOOTH",
"729 1187 OFFCURVE",
"822 1158 OFFCURVE",
"899 1101 CURVE SMOOTH",
"1054 986 OFFCURVE",
"1132 790 OFFCURVE",
"1132 582 CURVE SMOOTH",
"1132 480 OFFCURVE",
"1113 384 OFFCURVE",
"1076 294 CURVE SMOOTH",
"1000 113 OFFCURVE",
"847 -12 OFFCURVE",
"636 -17 CURVE",
"722 -108 LINE SMOOTH",
"757 -144 OFFCURVE",
"795 -162 OFFCURVE",
"836 -162 CURVE SMOOTH",
"884 -162 OFFCURVE",
"941 -140 OFFCURVE",
"1008 -95 CURVE SMOOTH",
"1017 -89 OFFCURVE",
"1026 -86 OFFCURVE",
"1037 -86 CURVE SMOOTH",
"1058 -86 OFFCURVE",
"1077 -107 OFFCURVE",
"1077 -130 CURVE SMOOTH",
"1077 -147 OFFCURVE",
"1069 -160 OFFCURVE",
"1054 -169 CURVE",
"1006 -214 OFFCURVE",
"907 -246 OFFCURVE",
"854 -246 CURVE SMOOTH",
"805 -246 OFFCURVE",
"764 -239 OFFCURVE",
"731 -224 CURVE SMOOTH",
"665 -196 OFFCURVE",
"625 -151 OFFCURVE",
"521 -24 CURVE SMOOTH",
"506 -5 LINE"
);
},
{
closed = 1;
nodes = (
"1036 672 OFFCURVE",
"1020 757 OFFCURVE",
"988 836 CURVE SMOOTH",
"924 994 OFFCURVE",
"796 1101 OFFCURVE",
"620 1101 CURVE SMOOTH",
"532 1101 OFFCURVE",
"457 1077 OFFCURVE",
"394 1028 CURVE SMOOTH",
"269 930 OFFCURVE",
"204 762 OFFCURVE",
"204 582 CURVE SMOOTH",
"204 493 OFFCURVE",
"220 410 OFFCURVE",
"251 332 CURVE SMOOTH",
"314 175 OFFCURVE",
"441 69 OFFCURVE",
"620 69 CURVE SMOOTH",
"709 69 OFFCURVE",
"785 93 OFFCURVE",
"848 142 CURVE SMOOTH",
"973 238 OFFCURVE",
"1036 405 OFFCURVE",
"1036 582 CURVE SMOOTH"
);
}
);
width = 1240;
}
);
note = Q;
unicode = 0051;
},
{
glyphname = R;
lastChange = "2016-08-11 21:18:16 +0000";
layers = (
{
layerId = "012FDA75-DADD-42E4-B1EF-A5A6AF7510CB";
paths = (
{
closed = 1;
nodes = (
"640 82 OFFCURVE",
"658 64 OFFCURVE",
"658 41 CURVE SMOOTH",
"658 20 OFFCURVE",
"640 0 OFFCURVE",
"608 0 CURVE SMOOTH",
"209 0 LINE SMOOTH",
"177 0 OFFCURVE",
"158 20 OFFCURVE",
"158 41 CURVE SMOOTH",
"158 64 OFFCURVE",
"176 82 OFFCURVE",
"208 82 CURVE SMOOTH",
"333 82 LINE",
"333 1085 LINE",
"236 1085 LINE SMOOTH",
"205 1085 OFFCURVE",
"186 1104 OFFCURVE",
"186 1127 CURVE SMOOTH",
"186 1151 OFFCURVE",
"205 1171 OFFCURVE",
"237 1171 CURVE SMOOTH",
"557 1171 LINE SMOOTH",
"664 1171 OFFCURVE",
"753 1163 OFFCURVE",
"823 1147 CURVE SMOOTH",
"963 1114 OFFCURVE",
"1047 1026 OFFCURVE",
"1047 853 CURVE SMOOTH",
"1047 710 OFFCURVE",
"960 622 OFFCURVE",
"841 578 CURVE",
"1045 82 LINE",
"1129 82 LINE SMOOTH",
"1176 82 OFFCURVE",
"1193 65 OFFCURVE",
"1193 42 CURVE SMOOTH",
"1193 18 OFFCURVE",
"1174 0 OFFCURVE",
"1130 0 CURVE SMOOTH",
"895 0 LINE SMOOTH",
"863 0 OFFCURVE",
"844 19 OFFCURVE",
"844 42 CURVE SMOOTH",
"844 63 OFFCURVE",
"862 82 OFFCURVE",
"893 82 CURVE SMOOTH",
"944 82 LINE",
"764 556 LINE",
"749 551 OFFCURVE",
"651 542 OFFCURVE",
"604 542 CURVE SMOOTH",
"429 542 LINE",
"429 82 LINE",
"609 82 LINE SMOOTH"
);
},
{
closed = 1;
nodes = (
"429 619 LINE",
"536 619 LINE SMOOTH",
"629 619 OFFCURVE",
"705 625 OFFCURVE",
"764 636 CURVE SMOOTH",
"880 658 OFFCURVE",
"951 719 OFFCURVE",
"951 846 CURVE SMOOTH",
"951 913 OFFCURVE",
"938 964 OFFCURVE",
"912 998 CURVE SMOOTH",
"860 1066 OFFCURVE",
"757 1085 OFFCURVE",
"556 1085 CURVE SMOOTH",
"429 1085 LINE"
);
}
);
width = 1240;
}
);
note = R;
unicode = 0052;
},
{
glyphname = S;
lastChange = "2016-08-11 21:18:16 +0000";
layers = (
{
layerId = "012FDA75-DADD-42E4-B1EF-A5A6AF7510CB";
paths = (
{
closed = 1;
nodes = (
"914 982 OFFCURVE",
"899 1010 OFFCURVE",
"872 1033 CURVE SMOOTH",
"818 1079 OFFCURVE",
"733 1101 OFFCURVE",
"650 1101 CURVE SMOOTH",
"479 1101 OFFCURVE",
"378 1019 OFFCURVE",
"378 886 CURVE SMOOTH",
"378 841 OFFCURVE",
"386 807 OFFCURVE",
"403 782 CURVE SMOOTH",
"435 733 OFFCURVE",
"482 715 OFFCURVE",
"615 668 CURVE SMOOTH",
"751 621 LINE SMOOTH",
"821 597 OFFCURVE",
"878 572 OFFCURVE",
"922 546 CURVE SMOOTH",
"1009 493 OFFCURVE",
"1057 419 OFFCURVE",
"1057 308 CURVE SMOOTH",
"1057 233 OFFCURVE",
"1040 171 OFFCURVE",
"1007 122 CURVE SMOOTH",
"940 25 OFFCURVE",
"825 -17 OFFCURVE",
"689 -17 CURVE SMOOTH",
"576 -17 OFFCURVE",
"434 30 OFFCURVE",
"363 105 CURVE",
"363 66 OFFCURVE",
"359 36 OFFCURVE",
"351 15 CURVE SMOOTH",
"343 -6 OFFCURVE",
"331 -17 OFFCURVE",
"316 -17 CURVE SMOOTH",
"281 -17 OFFCURVE",
"268 1 OFFCURVE",
"268 57 CURVE SMOOTH",
"268 371 LINE SMOOTH",
"268 402 OFFCURVE",
"287 418 OFFCURVE",
"312 418 CURVE SMOOTH",
"337 418 OFFCURVE",
"358 400 OFFCURVE",
"358 369 CURVE SMOOTH",
"358 250 LINE SMOOTH",
"358 222 OFFCURVE",
"374 194 OFFCURVE",
"407 166 CURVE SMOOTH",
"472 109 OFFCURVE",
"584 69 OFFCURVE",
"692 69 CURVE SMOOTH",
"851 69 OFFCURVE",
"961 143 OFFCURVE",
"961 304 CURVE SMOOTH",
"961 345 OFFCURVE",
"952 380 OFFCURVE",
"935 407 CURVE SMOOTH",
"900 462 OFFCURVE",
"839 493 OFFCURVE",
"731 530 CURVE SMOOTH",
"567 586 LINE SMOOTH",
"504 607 OFFCURVE",
"453 629 OFFCURVE",
"414 651 CURVE SMOOTH",
"335 694 OFFCURVE",
"282 765 OFFCURVE",
"282 881 CURVE SMOOTH",
"282 946 OFFCURVE",
"297 1001 OFFCURVE",
"328 1047 CURVE SMOOTH",
"389 1139 OFFCURVE",
"499 1187 OFFCURVE",
"627 1187 CURVE SMOOTH",
"744 1187 OFFCURVE",
"854 1164 OFFCURVE",
"917 1095 CURVE",
"917 1156 OFFCURVE",
"932 1187 OFFCURVE",
"969 1187 CURVE SMOOTH",
"997 1187 OFFCURVE",
"1009 1168 OFFCURVE",
"1009 1117 CURVE SMOOTH",
"1009 864 LINE SMOOTH",
"1009 829 OFFCURVE",
"990 811 OFFCURVE",
"963 811 CURVE SMOOTH",
"939 811 OFFCURVE",
"918 829 OFFCURVE",
"918 858 CURVE SMOOTH",
"918 949 LINE"
);
}
);
width = 1240;
}
);
note = S;
unicode = 0053;
},
{
glyphname = Scedilla;
lastChange = "2016-08-11 21:18:16 +0000";
layers = (
{
layerId = "012FDA75-DADD-42E4-B1EF-A5A6AF7510CB";
paths = (
{
closed = 1;
nodes = (
"548 691 OFFCURVE",
"500 710 OFFCURVE",
"471 724 CURVE SMOOTH",
"412 752 OFFCURVE",
"378 797 OFFCURVE",
"378 886 CURVE SMOOTH",
"378 1019 OFFCURVE",
"479 1101 OFFCURVE",
"650 1101 CURVE SMOOTH",
"691 1101 OFFCURVE",
"732 1095 OFFCURVE",
"772 1084 CURVE SMOOTH",
"851 1061 OFFCURVE",
"910 1014 OFFCURVE",
"918 949 CURVE",
"918 858 LINE SMOOTH",
"918 829 OFFCURVE",
"939 811 OFFCURVE",
"963 811 CURVE SMOOTH",
"990 811 OFFCURVE",
"1009 829 OFFCURVE",
"1009 864 CURVE SMOOTH",
"1009 1117 LINE SMOOTH",
"1009 1168 OFFCURVE",
"997 1187 OFFCURVE",
"969 1187 CURVE SMOOTH",
"932 1187 OFFCURVE",
"917 1156 OFFCURVE",
"917 1095 CURVE",
"854 1164 OFFCURVE",
"744 1187 OFFCURVE",
"627 1187 CURVE SMOOTH",
"563 1187 OFFCURVE",
"505 1175 OFFCURVE",
"453 1152 CURVE SMOOTH",
"348 1104 OFFCURVE",
"282 1010 OFFCURVE",
"282 881 CURVE SMOOTH",
"282 823 OFFCURVE",
"294 776 OFFCURVE",
"319 739 CURVE SMOOTH",
"367 665 OFFCURVE",
"442 629 OFFCURVE",
"567 586 CURVE SMOOTH",
"731 530 LINE SMOOTH",
"785 511 OFFCURVE",
"828 493 OFFCURVE",
"861 475 CURVE SMOOTH",
"925 439 OFFCURVE",
"961 387 OFFCURVE",
"961 304 CURVE SMOOTH",
"961 143 OFFCURVE",
"851 69 OFFCURVE",
"692 69 CURVE SMOOTH",
"638 69 OFFCURVE",
"585 78 OFFCURVE",
"534 96 CURVE SMOOTH",
"430 132 OFFCURVE",
"358 194 OFFCURVE",
"358 250 CURVE SMOOTH",
"358 369 LINE SMOOTH",
"358 400 OFFCURVE",
"337 418 OFFCURVE",
"312 418 CURVE SMOOTH",
"287 418 OFFCURVE",
"268 402 OFFCURVE",
"268 371 CURVE SMOOTH",
"268 57 LINE SMOOTH",
"268 1 OFFCURVE",
"281 -17 OFFCURVE",
"316 -17 CURVE SMOOTH",
"331 -17 OFFCURVE",
"343 -6 OFFCURVE",
"351 15 CURVE SMOOTH",
"359 36 OFFCURVE",
"363 66 OFFCURVE",
"363 105 CURVE",
"423 41 OFFCURVE",
"536 -3 OFFCURVE",
"640 -14 CURVE",
"537 -310 LINE SMOOTH",
"532 -326 OFFCURVE",
"529 -340 OFFCURVE",
"529 -351 CURVE SMOOTH",
"529 -384 OFFCURVE",
"547 -405 OFFCURVE",
"578 -405 CURVE SMOOTH",
"607 -405 OFFCURVE",
"633 -381 OFFCURVE",
"640 -325 CURVE SMOOTH",
"679 -17 LINE",
"689 -17 LINE SMOOTH",
"757 -17 OFFCURVE",
"819 -6 OFFCURVE",
"874 16 CURVE SMOOTH",
"985 60 OFFCURVE",
"1057 157 OFFCURVE",
"1057 308 CURVE SMOOTH",
"1057 363 OFFCURVE",
"1045 410 OFFCURVE",
"1022 449 CURVE SMOOTH",
"975 525 OFFCURVE",
"891 573 OFFCURVE",
"751 621 CURVE SMOOTH",
"615 668 LINE SMOOTH"
);
}
);
width = 1240;
}
);
note = Scedilla;
unicode = 015E;
},
{
glyphname = T;
lastChange = "2016-08-11 21:18:16 +0000";
layers = (
{
layerId = "012FDA75-DADD-42E4-B1EF-A5A6AF7510CB";
paths = (
{
closed = 1;
nodes = (
"210 814 LINE SMOOTH",
"209 785 OFFCURVE",
"190 769 OFFCURVE",
"169 769 CURVE SMOOTH",
"144 769 OFFCURVE",
"120 790 OFFCURVE",
"120 823 CURVE SMOOTH",
"120 1117 LINE SMOOTH",
"120 1154 OFFCURVE",
"131 1171 OFFCURVE",
"162 1171 CURVE SMOOTH",
"1078 1171 LINE SMOOTH",
"1106 1171 OFFCURVE",
"1118 1153 OFFCURVE",
"1118 1117 CURVE SMOOTH",
"1118 823 LINE SMOOTH",
"1118 790 OFFCURVE",
"1097 771 OFFCURVE",
"1072 771 CURVE SMOOTH",
"1049 771 OFFCURVE",
"1029 787 OFFCURVE",
"1028 814 CURVE SMOOTH",
"1018 1085 LINE",
"666 1085 LINE",
"666 86 LINE",
"908 86 LINE SMOOTH",
"939 86 OFFCURVE",
"957 67 OFFCURVE",
"957 44 CURVE SMOOTH",
"957 20 OFFCURVE",
"938 0 OFFCURVE",
"906 0 CURVE SMOOTH",
"330 0 LINE SMOOTH",
"298 0 OFFCURVE",
"278 20 OFFCURVE",
"278 44 CURVE SMOOTH",
"278 67 OFFCURVE",
"297 86 OFFCURVE",
"328 86 CURVE SMOOTH",
"570 86 LINE",
"570 1085 LINE",
"222 1085 LINE"
);
}
);
width = 1240;
}
);
note = T;
unicode = 0054;
},
{
glyphname = Tbar;
lastChange = "2016-08-11 21:18:16 +0000";
layers = (
{
layerId = "012FDA75-DADD-42E4-B1EF-A5A6AF7510CB";
paths = (
{
closed = 1;
nodes = (
"131 1171 OFFCURVE",
"120 1154 OFFCURVE",
"120 1117 CURVE SMOOTH",
"120 823 LINE SMOOTH",
"120 790 OFFCURVE",
"144 769 OFFCURVE",
"169 769 CURVE SMOOTH",
"190 769 OFFCURVE",
"209 785 OFFCURVE",
"210 814 CURVE SMOOTH",
"222 1085 LINE",
"570 1085 LINE",
"570 648 LINE",
"400 648 LINE SMOOTH",
"372 648 OFFCURVE",
"358 636 OFFCURVE",
"358 611 CURVE SMOOTH",
"358 585 OFFCURVE",
"373 572 OFFCURVE",
"404 572 CURVE SMOOTH",
"570 572 LINE",
"570 86 LINE",
"328 86 LINE SMOOTH",
"297 86 OFFCURVE",
"278 67 OFFCURVE",
"278 44 CURVE SMOOTH",
"278 20 OFFCURVE",
"298 0 OFFCURVE",
"330 0 CURVE SMOOTH",
"906 0 LINE SMOOTH",
"938 0 OFFCURVE",
"957 20 OFFCURVE",
"957 44 CURVE SMOOTH",
"957 67 OFFCURVE",
"939 86 OFFCURVE",
"908 86 CURVE SMOOTH",
"666 86 LINE",
"666 572 LINE",
"837 572 LINE SMOOTH",
"864 572 OFFCURVE",
"878 585 OFFCURVE",
"878 611 CURVE SMOOTH",
"878 634 OFFCURVE",
"870 648 OFFCURVE",
"839 648 CURVE SMOOTH",
"666 648 LINE",
"666 1085 LINE",
"1018 1085 LINE",
"1028 814 LINE SMOOTH",
"1029 787 OFFCURVE",
"1049 771 OFFCURVE",
"1072 771 CURVE SMOOTH",
"1097 771 OFFCURVE",
"1118 790 OFFCURVE",
"1118 823 CURVE SMOOTH",
"1118 1117 LINE SMOOTH",
"1118 1153 OFFCURVE",
"1106 1171 OFFCURVE",
"1078 1171 CURVE SMOOTH",
"162 1171 LINE SMOOTH"
);
}
);
width = 1240;
}
);
note = Tbar;
unicode = 0166;
},
{
glyphname = U;
lastChange = "2016-08-11 21:18:16 +0000";
layers = (
{
layerId = "012FDA75-DADD-42E4-B1EF-A5A6AF7510CB";
paths = (
{
closed = 1;
nodes = (
"1056 327 OFFCURVE",
"1039 253 OFFCURVE",
"1006 188 CURVE SMOOTH",
"938 59 OFFCURVE",
"811 -17 OFFCURVE",
"654 -17 CURVE SMOOTH",
"574 -17 OFFCURVE",
"504 0 OFFCURVE",
"443 35 CURVE SMOOTH",
"321 103 OFFCURVE",
"249 236 OFFCURVE",
"249 413 CURVE SMOOTH",
"249 1085 LINE",
"104 1085 LINE SMOOTH",
"73 1085 OFFCURVE",
"55 1104 OFFCURVE",
"55 1127 CURVE SMOOTH",
"55 1151 OFFCURVE",
"74 1171 OFFCURVE",
"105 1171 CURVE SMOOTH",
"506 1171 LINE SMOOTH",
"537 1171 OFFCURVE",
"556 1151 OFFCURVE",
"556 1127 CURVE SMOOTH",
"556 1104 OFFCURVE",
"538 1085 OFFCURVE",
"507 1085 CURVE SMOOTH",
"345 1085 LINE",
"345 413 LINE SMOOTH",
"345 194 OFFCURVE",
"455 69 OFFCURVE",
"654 69 CURVE SMOOTH",
"715 69 OFFCURVE",
"769 84 OFFCURVE",
"815 113 CURVE SMOOTH",
"907 171 OFFCURVE",
"960 278 OFFCURVE",
"960 411 CURVE SMOOTH",
"960 1085 LINE",
"839 1085 LINE SMOOTH",
"808 1085 OFFCURVE",
"789 1104 OFFCURVE",
"789 1127 CURVE SMOOTH",
"789 1151 OFFCURVE",
"808 1171 OFFCURVE",
"840 1171 CURVE SMOOTH",
"1173 1171 LINE SMOOTH",
"1217 1171 OFFCURVE",
"1243 1151 OFFCURVE",
"1243 1127 CURVE SMOOTH",
"1243 1104 OFFCURVE",
"1218 1085 OFFCURVE",
"1174 1085 CURVE SMOOTH",
"1056 1085 LINE",
"1056 411 LINE SMOOTH"
);
}
);
width = 1240;
}
);
note = U;
unicode = 0055;
},
{
glyphname = Uogonek;
lastChange = "2016-08-11 21:18:16 +0000";
layers = (
{
layerId = "012FDA75-DADD-42E4-B1EF-A5A6AF7510CB";
paths = (
{
closed = 1;
nodes = (
"808 1171 OFFCURVE",
"789 1151 OFFCURVE",
"789 1127 CURVE SMOOTH",
"789 1104 OFFCURVE",
"808 1085 OFFCURVE",
"839 1085 CURVE SMOOTH",
"960 1085 LINE",
"960 411 LINE SMOOTH",
"960 344 OFFCURVE",
"947 285 OFFCURVE",
"922 234 CURVE SMOOTH",
"871 130 OFFCURVE",
"777 69 OFFCURVE",
"654 69 CURVE SMOOTH",
"455 69 OFFCURVE",
"345 194 OFFCURVE",
"345 413 CURVE SMOOTH",
"345 1085 LINE",
"507 1085 LINE SMOOTH",
"538 1085 OFFCURVE",
"556 1104 OFFCURVE",
"556 1127 CURVE SMOOTH",
"556 1151 OFFCURVE",
"537 1171 OFFCURVE",
"506 1171 CURVE SMOOTH",
"105 1171 LINE SMOOTH",
"74 1171 OFFCURVE",
"55 1151 OFFCURVE",
"55 1127 CURVE SMOOTH",
"55 1104 OFFCURVE",
"73 1085 OFFCURVE",
"104 1085 CURVE SMOOTH",
"249 1085 LINE",
"249 413 LINE SMOOTH",
"249 324 OFFCURVE",
"266 248 OFFCURVE",
"300 183 CURVE SMOOTH",
"368 54 OFFCURVE",
"494 -17 OFFCURVE",
"653 -17 CURVE",
"621 -46 OFFCURVE",
"593 -81 OFFCURVE",
"569 -120 CURVE SMOOTH",
"520 -199 OFFCURVE",
"494 -279 OFFCURVE",
"494 -320 CURVE SMOOTH",
"494 -396 OFFCURVE",
"538 -430 OFFCURVE",
"606 -430 CURVE SMOOTH",
"627 -430 OFFCURVE",
"646 -426 OFFCURVE",
"665 -418 CURVE SMOOTH",
"702 -402 OFFCURVE",
"728 -376 OFFCURVE",
"728 -353 CURVE SMOOTH",
"728 -343 OFFCURVE",
"719 -338 OFFCURVE",
"702 -338 CURVE",
"679 -339 LINE",
"656 -339 LINE SMOOTH",
"616 -339 OFFCURVE",
"592 -331 OFFCURVE",
"592 -291 CURVE SMOOTH",
"592 -246 OFFCURVE",
"635 -152 OFFCURVE",
"690 -45 CURVE",
"697 -28 OFFCURVE",
"702 -18 OFFCURVE",
"705 -14 CURVE",
"775 -7 OFFCURVE",
"837 16 OFFCURVE",
"890 54 CURVE SMOOTH",
"996 129 OFFCURVE",
"1056 256 OFFCURVE",
"1056 411 CURVE SMOOTH",
"1056 1085 LINE",
"1174 1085 LINE SMOOTH",
"1218 1085 OFFCURVE",
"1243 1104 OFFCURVE",
"1243 1127 CURVE SMOOTH",
"1243 1151 OFFCURVE",
"1217 1171 OFFCURVE",
"1173 1171 CURVE SMOOTH",
"840 1171 LINE SMOOTH"
);
}
);
width = 1240;
}
);
note = Uogonek;
unicode = 0172;
},
{
glyphname = V;
lastChange = "2016-08-11 21:18:16 +0000";
layers = (
{
layerId = "012FDA75-DADD-42E4-B1EF-A5A6AF7510CB";
paths = (
{
closed = 1;
nodes = (
"1163 1171 OFFCURVE",
"1181 1152 OFFCURVE",
"1181 1128 CURVE SMOOTH",
"1181 1105 OFFCURVE",
"1163 1085 OFFCURVE",
"1132 1085 CURVE SMOOTH",
"1046 1085 LINE",
"730 20 LINE",
"711 -21 OFFCURVE",
"699 -36 OFFCURVE",
"666 -36 CURVE SMOOTH",
"633 -36 OFFCURVE",
"614 -16 OFFCURVE",
"602 20 CURVE SMOOTH",
"260 1085 LINE",
"156 1085 LINE SMOOTH",
"125 1085 OFFCURVE",
"108 1104 OFFCURVE",
"108 1127 CURVE SMOOTH",
"108 1151 OFFCURVE",
"127 1171 OFFCURVE",
"158 1171 CURVE SMOOTH",
"498 1171 LINE SMOOTH",
"530 1171 OFFCURVE",
"548 1152 OFFCURVE",
"548 1128 CURVE SMOOTH",
"548 1105 OFFCURVE",
"530 1085 OFFCURVE",
"499 1085 CURVE SMOOTH",
"368 1085 LINE",
"671 119 LINE",
"946 1085 LINE",
"826 1085 LINE SMOOTH",
"795 1085 OFFCURVE",
"776 1105 OFFCURVE",
"776 1128 CURVE SMOOTH",
"776 1152 OFFCURVE",
"795 1171 OFFCURVE",
"827 1171 CURVE SMOOTH",
"1131 1171 LINE SMOOTH"
);
}
);
width = 1240;
}
);
note = V;
unicode = 0056;
},
{
glyphname = W;
lastChange = "2016-08-11 21:18:16 +0000";
layers = (
{
layerId = "012FDA75-DADD-42E4-B1EF-A5A6AF7510CB";
paths = (
{
closed = 1;
nodes = (
"873 1085 LINE SMOOTH",
"842 1085 OFFCURVE",
"823 1105 OFFCURVE",
"823 1129 CURVE SMOOTH",
"823 1152 OFFCURVE",
"841 1171 OFFCURVE",
"872 1171 CURVE SMOOTH",
"1151 1171 LINE SMOOTH",
"1182 1171 OFFCURVE",
"1201 1152 OFFCURVE",
"1201 1129 CURVE SMOOTH",
"1201 1105 OFFCURVE",
"1182 1085 OFFCURVE",
"1150 1085 CURVE SMOOTH",
"1080 1085 LINE",
"916 27 LINE SMOOTH",
"911 -2 OFFCURVE",
"891 -17 OFFCURVE",
"864 -17 CURVE SMOOTH",
"841 -17 OFFCURVE",
"819 3 OFFCURVE",
"811 35 CURVE SMOOTH",
"641 701 LINE",
"454 27 LINE SMOOTH",
"446 -2 OFFCURVE",
"426 -17 OFFCURVE",
"403 -17 CURVE SMOOTH",
"378 -17 OFFCURVE",
"355 3 OFFCURVE",
"351 35 CURVE SMOOTH",
"185 1085 LINE",
"101 1085 LINE SMOOTH",
"70 1085 OFFCURVE",
"51 1105 OFFCURVE",
"51 1129 CURVE SMOOTH",
"51 1152 OFFCURVE",
"69 1171 OFFCURVE",
"100 1171 CURVE SMOOTH",
"402 1171 LINE SMOOTH",
"433 1171 OFFCURVE",
"451 1152 OFFCURVE",
"451 1129 CURVE SMOOTH",
"451 1105 OFFCURVE",
"432 1085 OFFCURVE",
"400 1085 CURVE SMOOTH",
"286 1085 LINE",
"424 199 LINE",
"601 850 LINE",
"606 873 OFFCURVE",
"626 886 OFFCURVE",
"646 886 CURVE SMOOTH",
"666 886 OFFCURVE",
"684 873 OFFCURVE",
"689 850 CURVE",
"858 196 LINE",
"980 1085 LINE"
);
}
);
width = 1240;
}
);
note = W;
unicode = 0057;
},
{
glyphname = X;
lastChange = "2016-08-11 21:18:16 +0000";
layers = (
{
layerId = "012FDA75-DADD-42E4-B1EF-A5A6AF7510CB";
paths = (
{
closed = 1;
nodes = (
"1121 1171 OFFCURVE",
"1134 1156 OFFCURVE",
"1134 1127 CURVE SMOOTH",
"1134 1099 OFFCURVE",
"1121 1085 OFFCURVE",
"1095 1085 CURVE SMOOTH",
"1022 1085 LINE",
"686 589 LINE",
"1027 82 LINE",
"1100 82 LINE SMOOTH",
"1126 82 OFFCURVE",
"1139 69 OFFCURVE",
"1139 42 CURVE SMOOTH",
"1139 14 OFFCURVE",
"1125 0 OFFCURVE",
"1098 0 CURVE SMOOTH",
"766 0 LINE SMOOTH",
"734 0 OFFCURVE",
"716 18 OFFCURVE",
"716 41 CURVE SMOOTH",
"716 62 OFFCURVE",
"734 82 OFFCURVE",
"765 82 CURVE SMOOTH",
"921 82 LINE",
"632 510 LINE",
"342 82 LINE",
"491 82 LINE SMOOTH",
"517 82 OFFCURVE",
"530 68 OFFCURVE",
"530 41 CURVE SMOOTH",
"530 14 OFFCURVE",
"517 0 OFFCURVE",
"490 0 CURVE SMOOTH",
"142 0 LINE SMOOTH",
"115 0 OFFCURVE",
"102 14 OFFCURVE",
"102 41 CURVE SMOOTH",
"102 68 OFFCURVE",
"115 82 OFFCURVE",
"141 82 CURVE SMOOTH",
"226 82 LINE",
"574 596 LINE",
"245 1085 LINE",
"163 1085 LINE SMOOTH",
"137 1085 OFFCURVE",
"124 1099 OFFCURVE",
"124 1127 CURVE SMOOTH",
"124 1156 OFFCURVE",
"137 1171 OFFCURVE",
"164 1171 CURVE SMOOTH",
"500 1171 LINE SMOOTH",
"527 1171 OFFCURVE",
"540 1156 OFFCURVE",
"540 1127 CURVE SMOOTH",
"540 1099 OFFCURVE",
"527 1085 OFFCURVE",
"501 1085 CURVE SMOOTH",
"353 1085 LINE",
"628 676 LINE",
"905 1085 LINE",
"804 1085 LINE SMOOTH",
"778 1085 OFFCURVE",
"765 1099 OFFCURVE",
"765 1127 CURVE SMOOTH",
"765 1156 OFFCURVE",
"778 1171 OFFCURVE",
"805 1171 CURVE SMOOTH",
"1094 1171 LINE SMOOTH"
);
}
);
width = 1240;
}
);
note = X;
unicode = 0058;
},
{
glyphname = Y;
lastChange = "2016-08-11 21:18:16 +0000";
layers = (
{
layerId = "012FDA75-DADD-42E4-B1EF-A5A6AF7510CB";
paths = (
{
closed = 1;
nodes = (
"1097 1171 OFFCURVE",
"1116 1153 OFFCURVE",
"1116 1132 CURVE SMOOTH",
"1116 1112 OFFCURVE",
"1098 1095 OFFCURVE",
"1067 1095 CURVE SMOOTH",
"1012 1095 LINE",
"689 548 LINE",
"689 86 LINE",
"921 86 LINE SMOOTH",
"952 86 OFFCURVE",
"969 67 OFFCURVE",
"969 44 CURVE SMOOTH",
"969 20 OFFCURVE",
"950 0 OFFCURVE",
"919 0 CURVE SMOOTH",
"334 0 LINE SMOOTH",
"302 0 OFFCURVE",
"282 20 OFFCURVE",
"282 44 CURVE SMOOTH",
"282 67 OFFCURVE",
"301 86 OFFCURVE",
"332 86 CURVE SMOOTH",
"593 86 LINE",
"593 553 LINE",
"258 1095 LINE",
"174 1095 LINE SMOOTH",
"143 1095 OFFCURVE",
"124 1113 OFFCURVE",
"124 1133 CURVE SMOOTH",
"124 1153 OFFCURVE",
"144 1171 OFFCURVE",
"175 1171 CURVE SMOOTH",
"505 1171 LINE SMOOTH",
"537 1171 OFFCURVE",
"556 1153 OFFCURVE",
"556 1133 CURVE SMOOTH",
"556 1113 OFFCURVE",
"537 1095 OFFCURVE",
"506 1095 CURVE SMOOTH",
"370 1095 LINE",
"646 633 LINE",
"914 1095 LINE",
"803 1095 LINE SMOOTH",
"772 1095 OFFCURVE",
"753 1113 OFFCURVE",
"753 1133 CURVE SMOOTH",
"753 1153 OFFCURVE",
"773 1171 OFFCURVE",
"804 1171 CURVE SMOOTH",
"1065 1171 LINE SMOOTH"
);
}
);
width = 1240;
}
);
note = Y;
unicode = 0059;
},
{
glyphname = Z;
lastChange = "2016-08-11 21:18:16 +0000";
layers = (
{
layerId = "012FDA75-DADD-42E4-B1EF-A5A6AF7510CB";
paths = (
{
closed = 1;
nodes = (
"278 757 OFFCURVE",
"254 775 OFFCURVE",
"254 806 CURVE SMOOTH",
"254 1116 LINE SMOOTH",
"255 1148 OFFCURVE",
"275 1171 OFFCURVE",
"322 1171 CURVE SMOOTH",
"952 1171 LINE SMOOTH",
"983 1171 OFFCURVE",
"1001 1145 OFFCURVE",
"1001 1116 CURVE SMOOTH",
"1001 1103 OFFCURVE",
"998 1092 OFFCURVE",
"991 1081 CURVE SMOOTH",
"369 86 LINE",
"942 86 LINE",
"942 384 LINE SMOOTH",
"943 415 OFFCURVE",
"968 435 OFFCURVE",
"993 435 CURVE SMOOTH",
"1016 435 OFFCURVE",
"1034 418 OFFCURVE",
"1034 385 CURVE SMOOTH",
"1044 53 LINE SMOOTH",
"1045 20 OFFCURVE",
"1024 0 OFFCURVE",
"993 0 CURVE SMOOTH",
"271 0 LINE SMOOTH",
"236 0 OFFCURVE",
"219 10 OFFCURVE",
"219 31 CURVE SMOOTH",
"219 43 OFFCURVE",
"223 56 OFFCURVE",
"232 70 CURVE SMOOTH",
"241 84 OFFCURVE",
"246 92 OFFCURVE",
"247 95 CURVE",
"880 1085 LINE",
"366 1085 LINE",
"350 797 LINE SMOOTH",
"349 772 OFFCURVE",
"329 757 OFFCURVE",
"305 757 CURVE SMOOTH"
);
}
);
width = 1240;
}
);
note = Z;
unicode = 005A;
},
{
glyphname = uni01C4;
lastChange = "2016-08-11 21:18:16 +0000";
layers = (
{
layerId = "012FDA75-DADD-42E4-B1EF-A5A6AF7510CB";
paths = (
{
closed = 1;
nodes = (
"980 1313 OFFCURVE",
"970 1309 OFFCURVE",
"953 1309 CURVE SMOOTH",
"937 1309 OFFCURVE",
"927 1313 OFFCURVE",
"922 1320 CURVE",
"758 1603 LINE",
"753 1608 OFFCURVE",
"751 1613 OFFCURVE",
"751 1620 CURVE SMOOTH",
"751 1636 OFFCURVE",
"769 1650 OFFCURVE",
"788 1650 CURVE SMOOTH",
"799 1650 OFFCURVE",
"807 1647 OFFCURVE",
"811 1641 CURVE SMOOTH",
"953 1432 LINE",
"1066 1641 LINE",
"1070 1647 OFFCURVE",
"1078 1650 OFFCURVE",
"1089 1650 CURVE SMOOTH",
"1108 1650 OFFCURVE",
"1126 1636 OFFCURVE",
"1126 1620 CURVE SMOOTH",
"1126 1613 OFFCURVE",
"1124 1608 OFFCURVE",
"1119 1603 CURVE",
"985 1320 LINE"
);
},
{
closed = 1;
nodes = (
"649 450 OFFCURVE",
"634 336 OFFCURVE",
"605 250 CURVE SMOOTH",
"545 77 OFFCURVE",
"424 0 OFFCURVE",
"228 0 CURVE SMOOTH",
"115 0 LINE SMOOTH",
"83 0 OFFCURVE",
"64 19 OFFCURVE",
"64 43 CURVE SMOOTH",
"64 66 OFFCURVE",
"83 86 OFFCURVE",
"114 86 CURVE SMOOTH",
"139 86 LINE",
"139 1085 LINE",
"118 1085 LINE SMOOTH",
"87 1085 OFFCURVE",
"70 1104 OFFCURVE",
"70 1127 CURVE SMOOTH",
"70 1151 OFFCURVE",
"89 1171 OFFCURVE",
"120 1171 CURVE SMOOTH",
"230 1171 LINE SMOOTH",
"329 1171 OFFCURVE",
"409 1151 OFFCURVE",
"470 1110 CURVE SMOOTH",
"593 1029 OFFCURVE",
"649 862 OFFCURVE",
"649 591 CURVE SMOOTH"
);
},
{
closed = 1;
nodes = (
"1163 20 OFFCURVE",
"1142 0 OFFCURVE",
"1111 0 CURVE SMOOTH",
"739 0 LINE SMOOTH",
"716 0 OFFCURVE",
"704 13 OFFCURVE",
"704 39 CURVE SMOOTH",
"704 53 OFFCURVE",
"708 72 OFFCURVE",
"715 95 CURVE SMOOTH",
"1038 1085 LINE",
"818 1085 LINE",
"818 857 LINE SMOOTH",
"818 832 OFFCURVE",
"797 817 OFFCURVE",
"773 817 CURVE SMOOTH",
"748 817 OFFCURVE",
"732 834 OFFCURVE",
"732 866 CURVE SMOOTH",
"732 1116 LINE SMOOTH",
"733 1151 OFFCURVE",
"745 1171 OFFCURVE",
"790 1171 CURVE SMOOTH",
"1090 1171 LINE SMOOTH",
"1122 1171 OFFCURVE",
"1132 1144 OFFCURVE",
"1132 1111 CURVE SMOOTH",
"1132 1099 OFFCURVE",
"1131 1089 OFFCURVE",
"1129 1081 CURVE",
"811 86 LINE",
"1070 86 LINE",
"1070 314 LINE SMOOTH",
"1071 345 OFFCURVE",
"1092 363 OFFCURVE",
"1116 363 CURVE SMOOTH",
"1140 363 OFFCURVE",
"1162 347 OFFCURVE",
"1162 315 CURVE SMOOTH",
"1162 53 LINE SMOOTH"
);
},
{
closed = 1;
nodes = (
"320 86 OFFCURVE",
"386 104 OFFCURVE",
"432 141 CURVE SMOOTH",
"524 214 OFFCURVE",
"553 352 OFFCURVE",
"553 591 CURVE SMOOTH",
"553 703 OFFCURVE",
"544 795 OFFCURVE",
"525 866 CURVE SMOOTH",
"488 1009 OFFCURVE",
"399 1085 OFFCURVE",
"235 1085 CURVE",
"235 86 LINE"
);
}
);
width = 1240;
}
);
note = uni01C4;
unicode = 01C4;
},
{
glyphname = uni01C5;
lastChange = "2016-08-11 21:18:16 +0000";
layers = (
{
layerId = "012FDA75-DADD-42E4-B1EF-A5A6AF7510CB";
paths = (
{
closed = 1;
nodes = (
"984 939 OFFCURVE",
"974 935 OFFCURVE",
"957 935 CURVE SMOOTH",
"941 935 OFFCURVE",
"931 939 OFFCURVE",
"926 946 CURVE",
"742 1229 LINE",
"737 1234 OFFCURVE",
"735 1239 OFFCURVE",
"735 1246 CURVE SMOOTH",
"735 1262 OFFCURVE",
"753 1276 OFFCURVE",
"772 1276 CURVE SMOOTH",
"783 1276 OFFCURVE",
"791 1273 OFFCURVE",
"795 1267 CURVE",
"957 1058 LINE",
"1120 1267 LINE",
"1124 1273 OFFCURVE",
"1132 1276 OFFCURVE",
"1143 1276 CURVE SMOOTH",
"1162 1276 OFFCURVE",
"1180 1262 OFFCURVE",
"1180 1246 CURVE SMOOTH",
"1180 1239 OFFCURVE",
"1178 1234 OFFCURVE",
"1173 1229 CURVE",
"989 946 LINE"
);
},
{
closed = 1;
nodes = (
"649 450 OFFCURVE",
"634 336 OFFCURVE",
"605 250 CURVE SMOOTH",
"545 77 OFFCURVE",
"424 0 OFFCURVE",
"228 0 CURVE SMOOTH",
"115 0 LINE SMOOTH",
"83 0 OFFCURVE",
"64 19 OFFCURVE",
"64 43 CURVE SMOOTH",
"64 66 OFFCURVE",
"83 86 OFFCURVE",
"114 86 CURVE SMOOTH",
"139 86 LINE",
"139 1085 LINE",
"118 1085 LINE SMOOTH",
"87 1085 OFFCURVE",
"70 1104 OFFCURVE",
"70 1127 CURVE SMOOTH",
"70 1151 OFFCURVE",
"89 1171 OFFCURVE",
"120 1171 CURVE SMOOTH",
"230 1171 LINE SMOOTH",
"329 1171 OFFCURVE",
"409 1151 OFFCURVE",
"470 1110 CURVE SMOOTH",
"593 1029 OFFCURVE",
"649 862 OFFCURVE",
"649 591 CURVE SMOOTH"
);
},
{
closed = 1;
nodes = (
"320 86 OFFCURVE",
"386 104 OFFCURVE",
"432 141 CURVE SMOOTH",
"524 214 OFFCURVE",
"553 352 OFFCURVE",
"553 591 CURVE SMOOTH",
"553 703 OFFCURVE",
"544 795 OFFCURVE",
"525 866 CURVE SMOOTH",
"488 1009 OFFCURVE",
"399 1085 OFFCURVE",
"235 1085 CURVE",
"235 86 LINE"
);
},
{
closed = 1;
nodes = (
"1132 772 OFFCURVE",
"1150 752 OFFCURVE",
"1150 727 CURVE SMOOTH",
"1150 711 OFFCURVE",
"1136 689 OFFCURVE",
"1132 682 CURVE",
"860 82 LINE",
"1065 82 LINE",
"1076 259 LINE SMOOTH",
"1077 282 OFFCURVE",
"1097 297 OFFCURVE",
"1120 297 CURVE SMOOTH",
"1143 297 OFFCURVE",
"1161 282 OFFCURVE",
"1161 255 CURVE SMOOTH",
"1161 46 LINE SMOOTH",
"1161 22 OFFCURVE",
"1135 0 OFFCURVE",
"1110 0 CURVE SMOOTH",
"806 0 LINE SMOOTH",
"769 0 OFFCURVE",
"750 23 OFFCURVE",
"750 59 CURVE SMOOTH",
"750 83 OFFCURVE",
"764 105 OFFCURVE",
"767 109 CURVE",
"1034 692 LINE",
"831 692 LINE",
"823 535 LINE SMOOTH",
"822 507 OFFCURVE",
"804 490 OFFCURVE",
"781 490 CURVE SMOOTH",
"757 490 OFFCURVE",
"736 509 OFFCURVE",
"736 540 CURVE SMOOTH",
"736 726 LINE SMOOTH",
"736 750 OFFCURVE",
"758 772 OFFCURVE",
"782 772 CURVE SMOOTH",
"1089 772 LINE SMOOTH"
);
}
);
width = 1240;
}
);
note = uni01C5;
unicode = 01C5;
},
{
glyphname = uni01C7;
lastChange = "2016-08-11 21:18:16 +0000";
layers = (
{
layerId = "012FDA75-DADD-42E4-B1EF-A5A6AF7510CB";
paths = (
{
closed = 1;
nodes = (
"381 1171 OFFCURVE",
"400 1151 OFFCURVE",
"400 1127 CURVE SMOOTH",
"400 1104 OFFCURVE",
"381 1085 OFFCURVE",
"350 1085 CURVE SMOOTH",
"198 1085 LINE",
"198 86 LINE",
"475 86 LINE SMOOTH",
"477 86 OFFCURVE",
"479 86 OFFCURVE",
"480 87 CURVE",
"483 88 OFFCURVE",
"483 96 OFFCURVE",
"483 99 CURVE SMOOTH",
"490 389 LINE",
"494 417 OFFCURVE",
"515 432 OFFCURVE",
"540 432 CURVE SMOOTH",
"568 432 OFFCURVE",
"591 414 OFFCURVE",
"591 383 CURVE SMOOTH",
"591 66 LINE",
"586 27 OFFCURVE",
"560 0 OFFCURVE",
"519 0 CURVE SMOOTH",
"64 0 LINE SMOOTH",
"32 0 OFFCURVE",
"13 19 OFFCURVE",
"13 43 CURVE SMOOTH",
"13 66 OFFCURVE",
"32 86 OFFCURVE",
"63 86 CURVE SMOOTH",
"102 86 LINE",
"102 1085 LINE",
"55 1085 LINE SMOOTH",
"24 1085 OFFCURVE",
"6 1104 OFFCURVE",
"6 1127 CURVE SMOOTH",
"6 1151 OFFCURVE",
"25 1171 OFFCURVE",
"56 1171 CURVE SMOOTH",
"349 1171 LINE SMOOTH"
);
},
{
closed = 1;
nodes = (
"1154 367 LINE SMOOTH",
"1154 268 OFFCURVE",
"1146 192 OFFCURVE",
"1129 137 CURVE SMOOTH",
"1095 28 OFFCURVE",
"1022 -13 OFFCURVE",
"890 -13 CURVE SMOOTH",
"758 -13 OFFCURVE",
"677 56 OFFCURVE",
"677 171 CURVE SMOOTH",
"677 283 LINE SMOOTH",
"677 311 OFFCURVE",
"701 328 OFFCURVE",
"726 328 CURVE SMOOTH",
"751 328 OFFCURVE",
"773 311 OFFCURVE",
"773 283 CURVE SMOOTH",
"773 170 LINE SMOOTH",
"773 101 OFFCURVE",
"812 68 OFFCURVE",
"899 68 CURVE SMOOTH",
"987 68 OFFCURVE",
"1029 99 OFFCURVE",
"1046 182 CURVE SMOOTH",
"1054 223 OFFCURVE",
"1058 284 OFFCURVE",
"1058 364 CURVE SMOOTH",
"1058 1085 LINE",
"778 1085 LINE SMOOTH",
"747 1085 OFFCURVE",
"730 1104 OFFCURVE",
"730 1127 CURVE SMOOTH",
"730 1151 OFFCURVE",
"748 1171 OFFCURVE",
"779 1171 CURVE SMOOTH",
"1224 1171 LINE SMOOTH",
"1256 1171 OFFCURVE",
"1274 1152 OFFCURVE",
"1274 1128 CURVE SMOOTH",
"1274 1105 OFFCURVE",
"1256 1085 OFFCURVE",
"1225 1085 CURVE SMOOTH",
"1154 1085 LINE"
);
}
);
width = 1240;
}
);
note = uni01C7;
unicode = 01C7;
},
{
glyphname = uni01C8;
lastChange = "2016-08-11 21:18:16 +0000";
layers = (
{
layerId = "012FDA75-DADD-42E4-B1EF-A5A6AF7510CB";
paths = (
{
closed = 1;
nodes = (
"496 1171 OFFCURVE",
"515 1151 OFFCURVE",
"515 1127 CURVE SMOOTH",
"515 1104 OFFCURVE",
"496 1085 OFFCURVE",
"465 1085 CURVE SMOOTH",
"353 1085 LINE",
"353 86 LINE",
"645 86 LINE",
"670 89 OFFCURVE",
"683 95 OFFCURVE",
"686 123 CURVE SMOOTH",
"720 399 LINE SMOOTH",
"724 427 OFFCURVE",
"745 442 OFFCURVE",
"770 442 CURVE SMOOTH",
"798 442 OFFCURVE",
"821 424 OFFCURVE",
"821 393 CURVE SMOOTH",
"821 387 LINE",
"791 66 LINE SMOOTH",
"786 27 OFFCURVE",
"760 0 OFFCURVE",
"719 0 CURVE SMOOTH",
"113 0 LINE SMOOTH",
"81 0 OFFCURVE",
"62 19 OFFCURVE",
"62 43 CURVE SMOOTH",
"62 66 OFFCURVE",
"81 86 OFFCURVE",
"112 86 CURVE SMOOTH",
"257 86 LINE",
"257 1085 LINE",
"154 1085 LINE SMOOTH",
"123 1085 OFFCURVE",
"105 1104 OFFCURVE",
"105 1127 CURVE SMOOTH",
"105 1151 OFFCURVE",
"124 1171 OFFCURVE",
"155 1171 CURVE SMOOTH",
"464 1171 LINE SMOOTH"
);
},
{
closed = 1;
nodes = (
"939 1135 OFFCURVE",
"977 1171 OFFCURVE",
"1022 1171 CURVE SMOOTH",
"1067 1171 OFFCURVE",
"1104 1135 OFFCURVE",
"1104 1088 CURVE SMOOTH",
"1104 1043 OFFCURVE",
"1069 1006 OFFCURVE",
"1022 1006 CURVE SMOOTH",
"975 1006 OFFCURVE",
"939 1043 OFFCURVE",
"939 1088 CURVE SMOOTH"
);
},
{
closed = 1;
nodes = (
"1116 -73 OFFCURVE",
"1101 -126 OFFCURVE",
"1070 -171 CURVE SMOOTH",
"1009 -260 OFFCURVE",
"891 -309 OFFCURVE",
"728 -309 CURVE SMOOTH",
"697 -309 OFFCURVE",
"677 -289 OFFCURVE",
"677 -265 CURVE SMOOTH",
"677 -241 OFFCURVE",
"699 -220 OFFCURVE",
"735 -220 CURVE SMOOTH",
"916 -220 OFFCURVE",
"1020 -151 OFFCURVE",
"1020 0 CURVE SMOOTH",
"1020 732 LINE",
"754 732 LINE SMOOTH",
"726 732 OFFCURVE",
"710 752 OFFCURVE",
"710 775 CURVE SMOOTH",
"710 796 OFFCURVE",
"725 814 OFFCURVE",
"750 814 CURVE SMOOTH",
"1080 814 LINE SMOOTH",
"1101 814 OFFCURVE",
"1116 805 OFFCURVE",
"1116 785 CURVE SMOOTH",
"1116 -10 LINE SMOOTH"
);
}
);
width = 1240;
}
);
note = uni01C8;
unicode = 01C8;
},
{
glyphname = uni01CA;
lastChange = "2016-08-11 21:18:16 +0000";
layers = (
{
layerId = "012FDA75-DADD-42E4-B1EF-A5A6AF7510CB";
paths = (
{
closed = 1;
nodes = (
"79 1085 LINE SMOOTH",
"48 1085 OFFCURVE",
"30 1104 OFFCURVE",
"30 1127 CURVE SMOOTH",
"30 1151 OFFCURVE",
"49 1171 OFFCURVE",
"80 1171 CURVE SMOOTH",
"262 1171 LINE SMOOTH",
"285 1171 OFFCURVE",
"297 1164 OFFCURVE",
"302 1147 CURVE SMOOTH",
"583 282 LINE",
"583 1085 LINE",
"504 1085 LINE SMOOTH",
"473 1085 OFFCURVE",
"455 1104 OFFCURVE",
"455 1127 CURVE SMOOTH",
"455 1151 OFFCURVE",
"474 1171 OFFCURVE",
"506 1171 CURVE SMOOTH",
"1224 1171 LINE SMOOTH",
"1256 1171 OFFCURVE",
"1274 1152 OFFCURVE",
"1274 1128 CURVE SMOOTH",
"1274 1105 OFFCURVE",
"1256 1085 OFFCURVE",
"1225 1085 CURVE SMOOTH",
"1154 1085 LINE",
"1154 307 LINE SMOOTH",
"1154 93 OFFCURVE",
"1086 -14 OFFCURVE",
"951 -14 CURVE SMOOTH",
"924 -14 OFFCURVE",
"899 -7 OFFCURVE",
"874 8 CURVE SMOOTH",
"824 37 OFFCURVE",
"787 97 OFFCURVE",
"787 181 CURVE SMOOTH",
"787 233 LINE SMOOTH",
"787 261 OFFCURVE",
"811 278 OFFCURVE",
"836 278 CURVE SMOOTH",
"861 278 OFFCURVE",
"883 261 OFFCURVE",
"883 233 CURVE SMOOTH",
"883 180 LINE SMOOTH",
"883 96 OFFCURVE",
"923 68 OFFCURVE",
"964 68 CURVE SMOOTH",
"1003 68 OFFCURVE",
"1029 88 OFFCURVE",
"1046 157 CURVE SMOOTH",
"1054 192 OFFCURVE",
"1058 241 OFFCURVE",
"1058 304 CURVE SMOOTH",
"1058 1085 LINE",
"679 1085 LINE",
"679 47 LINE SMOOTH",
"679 6 OFFCURVE",
"658 -16 OFFCURVE",
"630 -16 CURVE SMOOTH",
"607 -16 OFFCURVE",
"582 -2 OFFCURVE",
"574 22 CURVE SMOOTH",
"231 1064 LINE",
"231 86 LINE",
"299 86 LINE SMOOTH",
"330 86 OFFCURVE",
"348 66 OFFCURVE",
"348 43 CURVE SMOOTH",
"348 19 OFFCURVE",
"330 0 OFFCURVE",
"298 0 CURVE SMOOTH",
"100 0 LINE SMOOTH",
"68 0 OFFCURVE",
"50 19 OFFCURVE",
"50 43 CURVE SMOOTH",
"50 66 OFFCURVE",
"68 86 OFFCURVE",
"99 86 CURVE SMOOTH",
"135 86 LINE",
"135 1085 LINE"
);
}
);
width = 1240;
}
);
note = uni01CA;
unicode = 01CA;
},
{
glyphname = uni01CB;
lastChange = "2016-08-11 21:18:16 +0000";
layers = (
{
layerId = "012FDA75-DADD-42E4-B1EF-A5A6AF7510CB";
paths = (
{
closed = 1;
nodes = (
"79 1085 LINE SMOOTH",
"48 1085 OFFCURVE",
"30 1104 OFFCURVE",
"30 1127 CURVE SMOOTH",
"30 1151 OFFCURVE",
"49 1171 OFFCURVE",
"80 1171 CURVE SMOOTH",
"292 1171 LINE SMOOTH",
"315 1171 OFFCURVE",
"327 1164 OFFCURVE",
"332 1147 CURVE",
"643 282 LINE",
"643 1085 LINE",
"564 1085 LINE SMOOTH",
"533 1085 OFFCURVE",
"515 1104 OFFCURVE",
"515 1127 CURVE SMOOTH",
"515 1151 OFFCURVE",
"534 1171 OFFCURVE",
"566 1171 CURVE SMOOTH",
"793 1171 LINE SMOOTH",
"824 1171 OFFCURVE",
"843 1151 OFFCURVE",
"843 1127 CURVE SMOOTH",
"843 1104 OFFCURVE",
"826 1085 OFFCURVE",
"795 1085 CURVE SMOOTH",
"739 1085 LINE",
"739 47 LINE SMOOTH",
"739 6 OFFCURVE",
"718 -16 OFFCURVE",
"690 -16 CURVE SMOOTH",
"667 -16 OFFCURVE",
"642 -2 OFFCURVE",
"634 22 CURVE SMOOTH",
"261 1064 LINE",
"261 86 LINE",
"329 86 LINE SMOOTH",
"360 86 OFFCURVE",
"378 66 OFFCURVE",
"378 43 CURVE SMOOTH",
"378 19 OFFCURVE",
"360 0 OFFCURVE",
"328 0 CURVE SMOOTH",
"100 0 LINE SMOOTH",
"68 0 OFFCURVE",
"50 19 OFFCURVE",
"50 43 CURVE SMOOTH",
"50 66 OFFCURVE",
"68 86 OFFCURVE",
"99 86 CURVE SMOOTH",
"165 86 LINE",
"165 1085 LINE"
);
},
{
closed = 1;
nodes = (
"969 1135 OFFCURVE",
"1007 1171 OFFCURVE",
"1052 1171 CURVE SMOOTH",
"1097 1171 OFFCURVE",
"1134 1135 OFFCURVE",
"1134 1088 CURVE SMOOTH",
"1134 1043 OFFCURVE",
"1099 1006 OFFCURVE",
"1052 1006 CURVE SMOOTH",
"1005 1006 OFFCURVE",
"969 1043 OFFCURVE",
"969 1088 CURVE SMOOTH"
);
},
{
closed = 1;
nodes = (
"1136 -73 OFFCURVE",
"1121 -126 OFFCURVE",
"1090 -171 CURVE SMOOTH",
"1029 -260 OFFCURVE",
"911 -309 OFFCURVE",
"748 -309 CURVE SMOOTH",
"717 -309 OFFCURVE",
"697 -289 OFFCURVE",
"697 -265 CURVE SMOOTH",
"697 -241 OFFCURVE",
"719 -220 OFFCURVE",
"755 -220 CURVE SMOOTH",
"936 -220 OFFCURVE",
"1040 -151 OFFCURVE",
"1040 0 CURVE SMOOTH",
"1040 732 LINE",
"854 732 LINE SMOOTH",
"826 732 OFFCURVE",
"810 752 OFFCURVE",
"810 775 CURVE SMOOTH",
"810 796 OFFCURVE",
"825 814 OFFCURVE",
"850 814 CURVE SMOOTH",
"1100 814 LINE SMOOTH",
"1121 814 OFFCURVE",
"1136 805 OFFCURVE",
"1136 785 CURVE SMOOTH",
"1136 -10 LINE SMOOTH"
);
}
);
width = 1240;
}
);
note = uni01CB;
unicode = 01CB;
},
{
glyphname = uni01F1;
lastChange = "2016-08-11 21:18:16 +0000";
layers = (
{
layerId = "012FDA75-DADD-42E4-B1EF-A5A6AF7510CB";
paths = (
{
closed = 1;
nodes = (
"649 450 OFFCURVE",
"634 336 OFFCURVE",
"605 250 CURVE SMOOTH",
"545 77 OFFCURVE",
"424 0 OFFCURVE",
"228 0 CURVE SMOOTH",
"115 0 LINE SMOOTH",
"83 0 OFFCURVE",
"64 19 OFFCURVE",
"64 43 CURVE SMOOTH",
"64 66 OFFCURVE",
"83 86 OFFCURVE",
"114 86 CURVE SMOOTH",
"139 86 LINE",
"139 1085 LINE",
"118 1085 LINE SMOOTH",
"87 1085 OFFCURVE",
"70 1104 OFFCURVE",
"70 1127 CURVE SMOOTH",
"70 1151 OFFCURVE",
"89 1171 OFFCURVE",
"120 1171 CURVE SMOOTH",
"230 1171 LINE SMOOTH",
"329 1171 OFFCURVE",
"409 1151 OFFCURVE",
"470 1110 CURVE SMOOTH",
"593 1029 OFFCURVE",
"649 862 OFFCURVE",
"649 591 CURVE SMOOTH"
);
},
{
closed = 1;
nodes = (
"1163 20 OFFCURVE",
"1142 0 OFFCURVE",
"1111 0 CURVE SMOOTH",
"739 0 LINE SMOOTH",
"716 0 OFFCURVE",
"704 13 OFFCURVE",
"704 39 CURVE SMOOTH",
"704 53 OFFCURVE",
"708 72 OFFCURVE",
"715 95 CURVE SMOOTH",
"1038 1085 LINE",
"818 1085 LINE",
"818 857 LINE SMOOTH",
"818 832 OFFCURVE",
"797 817 OFFCURVE",
"773 817 CURVE SMOOTH",
"748 817 OFFCURVE",
"732 834 OFFCURVE",
"732 866 CURVE SMOOTH",
"732 1116 LINE SMOOTH",
"733 1151 OFFCURVE",
"745 1171 OFFCURVE",
"790 1171 CURVE SMOOTH",
"1090 1171 LINE SMOOTH",
"1122 1171 OFFCURVE",
"1132 1144 OFFCURVE",
"1132 1111 CURVE SMOOTH",
"1132 1099 OFFCURVE",
"1131 1089 OFFCURVE",
"1129 1081 CURVE",
"811 86 LINE",
"1070 86 LINE",
"1070 314 LINE SMOOTH",
"1071 345 OFFCURVE",
"1092 363 OFFCURVE",
"1116 363 CURVE SMOOTH",
"1140 363 OFFCURVE",
"1162 347 OFFCURVE",
"1162 315 CURVE SMOOTH",
"1162 53 LINE SMOOTH"
);
},
{
closed = 1;
nodes = (
"320 86 OFFCURVE",
"386 104 OFFCURVE",
"432 141 CURVE SMOOTH",
"524 214 OFFCURVE",
"553 352 OFFCURVE",
"553 591 CURVE SMOOTH",
"553 703 OFFCURVE",
"544 795 OFFCURVE",
"525 866 CURVE SMOOTH",
"488 1009 OFFCURVE",
"399 1085 OFFCURVE",
"235 1085 CURVE",
"235 86 LINE"
);
}
);
width = 1240;
}
);
note = uni01F1;
unicode = 01F1;
},
{
glyphname = uni01F2;
lastChange = "2016-08-11 21:18:16 +0000";
layers = (
{
layerId = "012FDA75-DADD-42E4-B1EF-A5A6AF7510CB";
paths = (
{
closed = 1;
nodes = (
"649 450 OFFCURVE",
"634 336 OFFCURVE",
"605 250 CURVE SMOOTH",
"545 77 OFFCURVE",
"424 0 OFFCURVE",
"228 0 CURVE SMOOTH",
"115 0 LINE SMOOTH",
"83 0 OFFCURVE",
"64 19 OFFCURVE",
"64 43 CURVE SMOOTH",
"64 66 OFFCURVE",
"83 86 OFFCURVE",
"114 86 CURVE SMOOTH",
"139 86 LINE",
"139 1085 LINE",
"118 1085 LINE SMOOTH",
"87 1085 OFFCURVE",
"70 1104 OFFCURVE",
"70 1127 CURVE SMOOTH",
"70 1151 OFFCURVE",
"89 1171 OFFCURVE",
"120 1171 CURVE SMOOTH",
"230 1171 LINE SMOOTH",
"329 1171 OFFCURVE",
"409 1151 OFFCURVE",
"470 1110 CURVE SMOOTH",
"593 1029 OFFCURVE",
"649 862 OFFCURVE",
"649 591 CURVE SMOOTH"
);
},
{
closed = 1;
nodes = (
"320 86 OFFCURVE",
"386 104 OFFCURVE",
"432 141 CURVE SMOOTH",
"524 214 OFFCURVE",
"553 352 OFFCURVE",
"553 591 CURVE SMOOTH",
"553 703 OFFCURVE",
"544 795 OFFCURVE",
"525 866 CURVE SMOOTH",
"488 1009 OFFCURVE",
"399 1085 OFFCURVE",
"235 1085 CURVE",
"235 86 LINE"
);
},
{
closed = 1;
nodes = (
"1132 772 OFFCURVE",
"1150 752 OFFCURVE",
"1150 727 CURVE SMOOTH",
"1150 711 OFFCURVE",
"1136 689 OFFCURVE",
"1132 682 CURVE",
"860 82 LINE",
"1065 82 LINE",
"1076 259 LINE SMOOTH",
"1077 282 OFFCURVE",
"1097 297 OFFCURVE",
"1120 297 CURVE SMOOTH",
"1143 297 OFFCURVE",
"1161 282 OFFCURVE",
"1161 255 CURVE SMOOTH",
"1161 46 LINE SMOOTH",
"1161 22 OFFCURVE",
"1135 0 OFFCURVE",
"1110 0 CURVE SMOOTH",
"806 0 LINE SMOOTH",
"769 0 OFFCURVE",
"750 23 OFFCURVE",
"750 59 CURVE SMOOTH",
"750 83 OFFCURVE",
"764 105 OFFCURVE",
"767 109 CURVE",
"1034 692 LINE",
"831 692 LINE",
"823 535 LINE SMOOTH",
"822 507 OFFCURVE",
"804 490 OFFCURVE",
"781 490 CURVE SMOOTH",
"757 490 OFFCURVE",
"736 509 OFFCURVE",
"736 540 CURVE SMOOTH",
"736 726 LINE SMOOTH",
"736 750 OFFCURVE",
"758 772 OFFCURVE",
"782 772 CURVE SMOOTH",
"1089 772 LINE SMOOTH"
);
}
);
width = 1240;
}
);
note = uni01F2;
unicode = 01F2;
},
{
glyphname = a;
lastChange = "2016-08-11 21:18:16 +0000";
layers = (
{
layerId = "012FDA75-DADD-42E4-B1EF-A5A6AF7510CB";
paths = (
{
closed = 1;
nodes = (
"814 646 OFFCURVE",
"760 731 OFFCURVE",
"611 731 CURVE SMOOTH",
"527 731 OFFCURVE",
"461 718 OFFCURVE",
"390 686 CURVE",
"387 635 OFFCURVE",
"381 596 OFFCURVE",
"372 570 CURVE SMOOTH",
"363 544 OFFCURVE",
"347 531 OFFCURVE",
"324 531 CURVE SMOOTH",
"285 531 OFFCURVE",
"264 560 OFFCURVE",
"264 603 CURVE SMOOTH",
"264 643 OFFCURVE",
"279 679 OFFCURVE",
"308 711 CURVE SMOOTH",
"367 775 OFFCURVE",
"476 813 OFFCURVE",
"612 813 CURVE SMOOTH",
"689 813 OFFCURVE",
"749 799 OFFCURVE",
"793 770 CURVE SMOOTH",
"880 713 OFFCURVE",
"910 607 OFFCURVE",
"910 444 CURVE SMOOTH",
"910 132 LINE SMOOTH",
"910 85 OFFCURVE",
"930 72 OFFCURVE",
"962 72 CURVE SMOOTH",
"997 72 OFFCURVE",
"1040 97 OFFCURVE",
"1063 121 CURVE",
"1070 129 OFFCURVE",
"1078 133 OFFCURVE",
"1087 133 CURVE SMOOTH",
"1107 133 OFFCURVE",
"1124 112 OFFCURVE",
"1124 91 CURVE SMOOTH",
"1124 81 OFFCURVE",
"1121 73 OFFCURVE",
"1114 66 CURVE SMOOTH",
"1071 21 OFFCURVE",
"1014 -7 OFFCURVE",
"954 -7 CURVE SMOOTH",
"886 -7 OFFCURVE",
"837 18 OFFCURVE",
"821 113 CURVE",
"756 40 OFFCURVE",
"630 -16 OFFCURVE",
"491 -16 CURVE SMOOTH",
"342 -16 OFFCURVE",
"253 73 OFFCURVE",
"253 210 CURVE SMOOTH",
"253 279 OFFCURVE",
"275 332 OFFCURVE",
"319 367 CURVE SMOOTH",
"407 438 OFFCURVE",
"524 450 OFFCURVE",
"741 465 CURVE SMOOTH",
"814 470 LINE",
"814 490 LINE SMOOTH"
);
},
{
closed = 1;
nodes = (
"773 397 LINE SMOOTH",
"664 386 OFFCURVE",
"582 376 OFFCURVE",
"528 367 CURVE SMOOTH",
"419 347 OFFCURVE",
"350 303 OFFCURVE",
"350 210 CURVE SMOOTH",
"350 109 OFFCURVE",
"410 65 OFFCURVE",
"502 65 CURVE SMOOTH",
"621 65 OFFCURVE",
"742 113 OFFCURVE",
"814 189 CURVE",
"814 401 LINE"
);
}
);
width = 1240;
}
);
note = a;
unicode = 0061;
},
{
glyphname = aogonek;
lastChange = "2016-08-11 21:18:16 +0000";
layers = (
{
layerId = "012FDA75-DADD-42E4-B1EF-A5A6AF7510CB";
paths = (
{
closed = 1;
nodes = (
"1078 133 OFFCURVE",
"1070 129 OFFCURVE",
"1063 121 CURVE",
"1040 97 OFFCURVE",
"997 72 OFFCURVE",
"962 72 CURVE SMOOTH",
"930 72 OFFCURVE",
"910 85 OFFCURVE",
"910 132 CURVE SMOOTH",
"910 444 LINE SMOOTH",
"910 525 OFFCURVE",
"901 593 OFFCURVE",
"884 647 CURVE SMOOTH",
"849 754 OFFCURVE",
"765 813 OFFCURVE",
"612 813 CURVE SMOOTH",
"544 813 OFFCURVE",
"484 804 OFFCURVE",
"431 786 CURVE SMOOTH",
"326 750 OFFCURVE",
"264 683 OFFCURVE",
"264 603 CURVE SMOOTH",
"264 560 OFFCURVE",
"285 531 OFFCURVE",
"324 531 CURVE SMOOTH",
"347 531 OFFCURVE",
"363 544 OFFCURVE",
"372 570 CURVE SMOOTH",
"381 596 OFFCURVE",
"387 635 OFFCURVE",
"390 686 CURVE",
"461 718 OFFCURVE",
"527 731 OFFCURVE",
"611 731 CURVE SMOOTH",
"760 731 OFFCURVE",
"814 646 OFFCURVE",
"814 490 CURVE SMOOTH",
"814 470 LINE",
"741 465 LINE SMOOTH",
"632 458 OFFCURVE",
"546 448 OFFCURVE",
"482 437 CURVE SMOOTH",
"353 414 OFFCURVE",
"253 349 OFFCURVE",
"253 210 CURVE SMOOTH",
"253 73 OFFCURVE",
"342 -16 OFFCURVE",
"491 -16 CURVE SMOOTH",
"630 -16 OFFCURVE",
"756 40 OFFCURVE",
"821 113 CURVE",
"836 24 OFFCURVE",
"881 -4 OFFCURVE",
"945 -7 CURVE",
"911 -36 OFFCURVE",
"881 -71 OFFCURVE",
"856 -111 CURVE SMOOTH",
"804 -192 OFFCURVE",
"776 -275 OFFCURVE",
"776 -319 CURVE SMOOTH",
"776 -395 OFFCURVE",
"820 -429 OFFCURVE",
"888 -429 CURVE SMOOTH",
"909 -429 OFFCURVE",
"928 -425 OFFCURVE",
"947 -417 CURVE SMOOTH",
"984 -401 OFFCURVE",
"1010 -375 OFFCURVE",
"1010 -352 CURVE SMOOTH",
"1010 -342 OFFCURVE",
"1001 -337 OFFCURVE",
"984 -337 CURVE",
"961 -338 LINE",
"938 -338 LINE SMOOTH",
"898 -338 OFFCURVE",
"874 -330 OFFCURVE",
"874 -290 CURVE SMOOTH",
"874 -242 OFFCURVE",
"921 -144 OFFCURVE",
"977 -33 CURVE SMOOTH",
"980 -27 OFFCURVE",
"983 -21 OFFCURVE",
"986 -16 CURVE SMOOTH",
"989 -11 OFFCURVE",
"991 -6 OFFCURVE",
"992 -3 CURVE",
"1039 6 OFFCURVE",
"1079 29 OFFCURVE",
"1114 66 CURVE SMOOTH",
"1121 73 OFFCURVE",
"1124 81 OFFCURVE",
"1124 91 CURVE SMOOTH",
"1124 112 OFFCURVE",
"1107 133 OFFCURVE",
"1087 133 CURVE SMOOTH"
);
},
{
closed = 1;
nodes = (
"742 113 OFFCURVE",
"621 65 OFFCURVE",
"502 65 CURVE SMOOTH",
"410 65 OFFCURVE",
"350 109 OFFCURVE",
"350 210 CURVE SMOOTH",
"350 303 OFFCURVE",
"419 347 OFFCURVE",
"528 367 CURVE SMOOTH",
"582 376 OFFCURVE",
"664 386 OFFCURVE",
"773 397 CURVE SMOOTH",
"814 401 LINE",
"814 189 LINE"
);
}
);
width = 1240;
}
);
note = aogonek;
unicode = 0105;
},
{
glyphname = ae;
lastChange = "2016-08-11 21:18:16 +0000";
layers = (
{
layerId = "012FDA75-DADD-42E4-B1EF-A5A6AF7510CB";
paths = (
{
closed = 1;
nodes = (
"765 -17 OFFCURVE",
"676 41 OFFCURVE",
"628 129 CURVE",
"576 37 OFFCURVE",
"462 -17 OFFCURVE",
"335 -17 CURVE SMOOTH",
"298 -17 OFFCURVE",
"263 -8 OFFCURVE",
"230 11 CURVE SMOOTH",
"163 47 OFFCURVE",
"119 116 OFFCURVE",
"119 203 CURVE SMOOTH",
"119 276 OFFCURVE",
"137 330 OFFCURVE",
"174 365 CURVE SMOOTH",
"247 436 OFFCURVE",
"351 447 OFFCURVE",
"572 459 CURVE",
"572 496 LINE SMOOTH",
"572 546 OFFCURVE",
"568 588 OFFCURVE",
"559 622 CURVE SMOOTH",
"542 689 OFFCURVE",
"496 731 OFFCURVE",
"405 731 CURVE SMOOTH",
"337 731 OFFCURVE",
"282 716 OFFCURVE",
"247 701 CURVE",
"244 647 OFFCURVE",
"239 605 OFFCURVE",
"230 576 CURVE SMOOTH",
"221 546 OFFCURVE",
"206 531 OFFCURVE",
"185 531 CURVE SMOOTH",
"149 531 OFFCURVE",
"129 560 OFFCURVE",
"129 603 CURVE SMOOTH",
"129 731 OFFCURVE",
"221 813 OFFCURVE",
"406 813 CURVE SMOOTH",
"521 813 OFFCURVE",
"607 746 OFFCURVE",
"624 642 CURVE",
"669 749 OFFCURVE",
"758 813 OFFCURVE",
"869 813 CURVE SMOOTH",
"914 813 OFFCURVE",
"955 801 OFFCURVE",
"992 777 CURVE SMOOTH",
"1065 728 OFFCURVE",
"1112 629 OFFCURVE",
"1112 488 CURVE SMOOTH",
"1112 439 OFFCURVE",
"1084 408 OFFCURVE",
"1040 408 CURVE",
"655 394 LINE",
"662 175 OFFCURVE",
"740 61 OFFCURVE",
"884 61 CURVE SMOOTH",
"908 61 OFFCURVE",
"927 63 OFFCURVE",
"942 67 CURVE SMOOTH",
"971 75 OFFCURVE",
"997 94 OFFCURVE",
"1048 146 CURVE",
"1061 157 OFFCURVE",
"1074 163 OFFCURVE",
"1086 163 CURVE SMOOTH",
"1110 163 OFFCURVE",
"1122 151 OFFCURVE",
"1122 127 CURVE SMOOTH",
"1122 112 OFFCURVE",
"1117 98 OFFCURVE",
"1106 85 CURVE SMOOTH",
"1041 9 OFFCURVE",
"953 -17 OFFCURVE",
"876 -17 CURVE SMOOTH"
);
},
{
closed = 1;
nodes = (
"814 731 OFFCURVE",
"771 717 OFFCURVE",
"741 689 CURVE SMOOTH",
"680 633 OFFCURVE",
"665 557 OFFCURVE",
"658 461 CURVE",
"1033 474 LINE",
"1025 614 OFFCURVE",
"989 731 OFFCURVE",
"870 731 CURVE SMOOTH"
);
},
{
closed = 1;
nodes = (
"210 118 OFFCURVE",
"271 60 OFFCURVE",
"352 60 CURVE SMOOTH",
"456 60 OFFCURVE",
"560 108 OFFCURVE",
"603 193 CURVE",
"584 252 OFFCURVE",
"574 318 OFFCURVE",
"573 391 CURVE",
"470 385 OFFCURVE",
"395 377 OFFCURVE",
"346 368 CURVE SMOOTH",
"249 348 OFFCURVE",
"210 304 OFFCURVE",
"210 203 CURVE SMOOTH"
);
}
);
width = 1240;
}
);
note = ae;
unicode = 00E6;
},
{
glyphname = b;
lastChange = "2016-08-11 21:18:16 +0000";
layers = (
{
layerId = "012FDA75-DADD-42E4-B1EF-A5A6AF7510CB";
paths = (
{
closed = 1;
nodes = (
"372 1180 OFFCURVE",
"386 1167 OFFCURVE",
"386 1141 CURVE SMOOTH",
"386 707 LINE",
"466 776 OFFCURVE",
"549 813 OFFCURVE",
"670 813 CURVE SMOOTH",
"747 813 OFFCURVE",
"814 795 OFFCURVE",
"871 760 CURVE SMOOTH",
"985 688 OFFCURVE",
"1048 557 OFFCURVE",
"1048 398 CURVE SMOOTH",
"1048 317 OFFCURVE",
"1033 246 OFFCURVE",
"1003 183 CURVE SMOOTH",
"943 58 OFFCURVE",
"827 -17 OFFCURVE",
"674 -17 CURVE SMOOTH",
"554 -17 OFFCURVE",
"451 31 OFFCURVE",
"382 102 CURVE",
"382 70 OFFCURVE",
"380 46 OFFCURVE",
"375 31 CURVE",
"366 0 OFFCURVE",
"352 -4 OFFCURVE",
"331 -4 CURVE SMOOTH",
"318 -4 OFFCURVE",
"308 1 OFFCURVE",
"301 12 CURVE SMOOTH",
"294 23 OFFCURVE",
"290 43 OFFCURVE",
"290 74 CURVE SMOOTH",
"290 1091 LINE",
"162 1083 LINE",
"157 1082 OFFCURVE",
"150 1080 OFFCURVE",
"142 1080 CURVE SMOOTH",
"119 1080 OFFCURVE",
"103 1097 OFFCURVE",
"103 1118 CURVE SMOOTH",
"103 1137 OFFCURVE",
"113 1155 OFFCURVE",
"136 1159 CURVE",
"325 1178 LINE SMOOTH",
"336 1179 OFFCURVE",
"342 1180 OFFCURVE",
"345 1180 CURVE SMOOTH"
);
},
{
closed = 1;
nodes = (
"732 65 OFFCURVE",
"783 80 OFFCURVE",
"825 110 CURVE SMOOTH",
"909 170 OFFCURVE",
"952 275 OFFCURVE",
"952 398 CURVE SMOOTH",
"952 459 OFFCURVE",
"941 514 OFFCURVE",
"919 565 CURVE SMOOTH",
"875 666 OFFCURVE",
"787 731 OFFCURVE",
"664 731 CURVE SMOOTH",
"547 731 OFFCURVE",
"455 688 OFFCURVE",
"386 602 CURVE",
"386 210 LINE",
"449 121 OFFCURVE",
"544 65 OFFCURVE",
"672 65 CURVE SMOOTH"
);
}
);
width = 1240;
}
);
note = b;
unicode = 0062;
},
{
glyphname = c;
lastChange = "2016-08-11 21:18:16 +0000";
layers = (
{
layerId = "012FDA75-DADD-42E4-B1EF-A5A6AF7510CB";
paths = (
{
closed = 1;
nodes = (
"183 490 OFFCURVE",
"203 562 OFFCURVE",
"244 623 CURVE SMOOTH",
"324 746 OFFCURVE",
"468 813 OFFCURVE",
"635 813 CURVE SMOOTH",
"846 813 OFFCURVE",
"979 736 OFFCURVE",
"979 564 CURVE SMOOTH",
"979 516 OFFCURVE",
"958 484 OFFCURVE",
"919 484 CURVE SMOOTH",
"900 484 OFFCURVE",
"886 496 OFFCURVE",
"879 521 CURVE SMOOTH",
"872 545 OFFCURVE",
"865 586 OFFCURVE",
"858 645 CURVE SMOOTH",
"853 686 LINE",
"786 719 OFFCURVE",
"722 731 OFFCURVE",
"650 731 CURVE SMOOTH",
"573 731 OFFCURVE",
"506 718 OFFCURVE",
"451 692 CURVE SMOOTH",
"339 640 OFFCURVE",
"279 542 OFFCURVE",
"279 407 CURVE SMOOTH",
"279 182 OFFCURVE",
"413 65 OFFCURVE",
"624 65 CURVE SMOOTH",
"747 65 OFFCURVE",
"819 96 OFFCURVE",
"902 172 CURVE",
"913 183 OFFCURVE",
"927 188 OFFCURVE",
"943 188 CURVE SMOOTH",
"963 188 OFFCURVE",
"978 175 OFFCURVE",
"978 147 CURVE SMOOTH",
"978 132 OFFCURVE",
"972 118 OFFCURVE",
"960 105 CURVE SMOOTH",
"891 29 OFFCURVE",
"745 -17 OFFCURVE",
"632 -17 CURVE SMOOTH",
"543 -17 OFFCURVE",
"465 0 OFFCURVE",
"397 34 CURVE SMOOTH",
"261 102 OFFCURVE",
"183 232 OFFCURVE",
"183 407 CURVE SMOOTH"
);
}
);
width = 1240;
}
);
note = c;
unicode = 0063;
},
{
glyphname = ccedilla;
lastChange = "2016-08-11 21:18:16 +0000";
layers = (
{
layerId = "012FDA75-DADD-42E4-B1EF-A5A6AF7510CB";
paths = (
{
closed = 1;
nodes = (
"927 188 OFFCURVE",
"913 183 OFFCURVE",
"902 172 CURVE",
"819 96 OFFCURVE",
"747 65 OFFCURVE",
"624 65 CURVE SMOOTH",
"413 65 OFFCURVE",
"279 182 OFFCURVE",
"279 407 CURVE SMOOTH",
"279 474 OFFCURVE",
"294 532 OFFCURVE",
"323 581 CURVE SMOOTH",
"382 677 OFFCURVE",
"495 731 OFFCURVE",
"650 731 CURVE SMOOTH",
"722 731 OFFCURVE",
"786 719 OFFCURVE",
"853 686 CURVE",
"858 645 LINE SMOOTH",
"865 586 OFFCURVE",
"872 545 OFFCURVE",
"879 521 CURVE SMOOTH",
"886 496 OFFCURVE",
"900 484 OFFCURVE",
"919 484 CURVE SMOOTH",
"958 484 OFFCURVE",
"979 516 OFFCURVE",
"979 564 CURVE SMOOTH",
"979 736 OFFCURVE",
"846 813 OFFCURVE",
"635 813 CURVE SMOOTH",
"552 813 OFFCURVE",
"476 797 OFFCURVE",
"407 764 CURVE SMOOTH",
"270 699 OFFCURVE",
"183 572 OFFCURVE",
"183 407 CURVE SMOOTH",
"183 328 OFFCURVE",
"199 258 OFFCURVE",
"230 198 CURVE SMOOTH",
"292 78 OFFCURVE",
"408 4 OFFCURVE",
"560 -13 CURVE",
"456 -310 LINE SMOOTH",
"451 -326 OFFCURVE",
"448 -340 OFFCURVE",
"448 -351 CURVE SMOOTH",
"448 -384 OFFCURVE",
"466 -405 OFFCURVE",
"497 -405 CURVE SMOOTH",
"526 -405 OFFCURVE",
"552 -381 OFFCURVE",
"559 -325 CURVE SMOOTH",
"598 -16 LINE",
"605 -17 OFFCURVE",
"617 -17 OFFCURVE",
"632 -17 CURVE SMOOTH",
"745 -17 OFFCURVE",
"891 29 OFFCURVE",
"960 105 CURVE SMOOTH",
"972 118 OFFCURVE",
"978 132 OFFCURVE",
"978 147 CURVE SMOOTH",
"978 175 OFFCURVE",
"963 188 OFFCURVE",
"943 188 CURVE SMOOTH"
);
}
);
width = 1240;
}
);
note = ccedilla;
unicode = 00E7;
},
{
glyphname = d;
lastChange = "2016-08-11 21:18:16 +0000";
layers = (
{
layerId = "012FDA75-DADD-42E4-B1EF-A5A6AF7510CB";
paths = (
{
closed = 1;
nodes = (
"887 -3 OFFCURVE",
"868 14 OFFCURVE",
"867 47 CURVE SMOOTH",
"864 107 LINE",
"803 34 OFFCURVE",
"694 -17 OFFCURVE",
"571 -17 CURVE SMOOTH",
"494 -17 OFFCURVE",
"428 1 OFFCURVE",
"371 36 CURVE SMOOTH",
"257 107 OFFCURVE",
"193 237 OFFCURVE",
"193 398 CURVE SMOOTH",
"193 477 OFFCURVE",
"208 549 OFFCURVE",
"239 612 CURVE SMOOTH",
"300 738 OFFCURVE",
"418 813 OFFCURVE",
"571 813 CURVE SMOOTH",
"692 813 OFFCURVE",
"775 776 OFFCURVE",
"855 707 CURVE",
"855 1091 LINE",
"727 1083 LINE",
"722 1082 OFFCURVE",
"715 1080 OFFCURVE",
"707 1080 CURVE SMOOTH",
"684 1080 OFFCURVE",
"668 1097 OFFCURVE",
"668 1118 CURVE SMOOTH",
"668 1137 OFFCURVE",
"678 1155 OFFCURVE",
"701 1159 CURVE",
"890 1178 LINE SMOOTH",
"901 1179 OFFCURVE",
"907 1180 OFFCURVE",
"910 1180 CURVE SMOOTH",
"937 1180 OFFCURVE",
"951 1167 OFFCURVE",
"951 1141 CURVE SMOOTH",
"951 85 LINE",
"1099 96 LINE",
"1105 96 LINE SMOOTH",
"1132 96 OFFCURVE",
"1145 81 OFFCURVE",
"1145 61 CURVE SMOOTH",
"1145 41 OFFCURVE",
"1131 22 OFFCURVE",
"1107 17 CURVE",
"921 -3 LINE",
"914 -3 LINE SMOOTH"
);
},
{
closed = 1;
nodes = (
"516 731 OFFCURVE",
"463 716 OFFCURVE",
"420 686 CURVE SMOOTH",
"333 626 OFFCURVE",
"289 519 OFFCURVE",
"289 398 CURVE SMOOTH",
"289 337 OFFCURVE",
"300 282 OFFCURVE",
"322 231 CURVE SMOOTH",
"366 130 OFFCURVE",
"453 65 OFFCURVE",
"573 65 CURVE SMOOTH",
"694 65 OFFCURVE",
"788 113 OFFCURVE",
"855 210 CURVE",
"855 602 LINE",
"786 688 OFFCURVE",
"694 731 OFFCURVE",
"577 731 CURVE SMOOTH"
);
}
);
width = 1240;
}
);
note = d;
unicode = 0064;
},
{
glyphname = eth;
lastChange = "2016-08-11 21:18:16 +0000";
layers = (
{
layerId = "012FDA75-DADD-42E4-B1EF-A5A6AF7510CB";
paths = (
{
closed = 1;
nodes = (
"928 907 OFFCURVE",
"1010 692 OFFCURVE",
"1010 453 CURVE SMOOTH",
"1010 158 OFFCURVE",
"874 -17 OFFCURVE",
"602 -17 CURVE SMOOTH",
"524 -17 OFFCURVE",
"456 0 OFFCURVE",
"397 34 CURVE SMOOTH",
"279 101 OFFCURVE",
"212 229 OFFCURVE",
"212 394 CURVE SMOOTH",
"212 477 OFFCURVE",
"228 550 OFFCURVE",
"260 613 CURVE SMOOTH",
"323 740 OFFCURVE",
"444 813 OFFCURVE",
"607 813 CURVE SMOOTH",
"723 813 OFFCURVE",
"840 764 OFFCURVE",
"919 615 CURVE",
"874 792 OFFCURVE",
"761 944 OFFCURVE",
"629 1065 CURVE",
"492 971 LINE SMOOTH",
"485 966 OFFCURVE",
"478 964 OFFCURVE",
"471 964 CURVE SMOOTH",
"450 964 OFFCURVE",
"430 985 OFFCURVE",
"430 1008 CURVE SMOOTH",
"430 1020 OFFCURVE",
"435 1030 OFFCURVE",
"446 1038 CURVE SMOOTH",
"565 1121 LINE",
"538 1142 OFFCURVE",
"502 1169 OFFCURVE",
"457 1202 CURVE",
"447 1208 OFFCURVE",
"439 1213 OFFCURVE",
"434 1218 CURVE",
"430 1221 OFFCURVE",
"428 1226 OFFCURVE",
"428 1231 CURVE SMOOTH",
"428 1254 OFFCURVE",
"454 1288 OFFCURVE",
"474 1288 CURVE SMOOTH",
"477 1288 OFFCURVE",
"480 1287 OFFCURVE",
"483 1285 CURVE SMOOTH",
"536 1251 OFFCURVE",
"588 1213 OFFCURVE",
"638 1172 CURVE",
"777 1269 LINE SMOOTH",
"783 1273 OFFCURVE",
"789 1275 OFFCURVE",
"795 1275 CURVE SMOOTH",
"818 1275 OFFCURVE",
"839 1250 OFFCURVE",
"839 1226 CURVE SMOOTH",
"839 1215 OFFCURVE",
"834 1206 OFFCURVE",
"825 1199 CURVE",
"703 1116 LINE"
);
},
{
closed = 1;
nodes = (
"308 323 OFFCURVE",
"321 265 OFFCURVE",
"346 216 CURVE SMOOTH",
"397 118 OFFCURVE",
"489 65 OFFCURVE",
"602 65 CURVE SMOOTH",
"667 65 OFFCURVE",
"724 78 OFFCURVE",
"771 105 CURVE SMOOTH",
"865 158 OFFCURVE",
"914 258 OFFCURVE",
"914 391 CURVE SMOOTH",
"914 464 OFFCURVE",
"900 526 OFFCURVE",
"873 577 CURVE SMOOTH",
"817 679 OFFCURVE",
"719 731 OFFCURVE",
"608 731 CURVE SMOOTH",
"415 731 OFFCURVE",
"308 608 OFFCURVE",
"308 391 CURVE SMOOTH"
);
}
);
width = 1240;
}
);
note = eth;
unicode = 00F0;
},
{
glyphname = dcroat;
lastChange = "2016-08-11 21:18:16 +0000";
layers = (
{
layerId = "012FDA75-DADD-42E4-B1EF-A5A6AF7510CB";
paths = (
{
closed = 1;
nodes = (
"951 85 LINE",
"951 907 LINE",
"1023 907 LINE SMOOTH",
"1056 907 OFFCURVE",
"1070 917 OFFCURVE",
"1070 944 CURVE SMOOTH",
"1070 971 OFFCURVE",
"1056 979 OFFCURVE",
"1021 979 CURVE SMOOTH",
"951 979 LINE",
"951 1141 LINE SMOOTH",
"951 1167 OFFCURVE",
"937 1180 OFFCURVE",
"910 1180 CURVE SMOOTH",
"907 1180 OFFCURVE",
"901 1179 OFFCURVE",
"890 1178 CURVE SMOOTH",
"701 1159 LINE",
"678 1155 OFFCURVE",
"668 1137 OFFCURVE",
"668 1118 CURVE SMOOTH",
"668 1097 OFFCURVE",
"684 1080 OFFCURVE",
"707 1080 CURVE SMOOTH",
"715 1080 OFFCURVE",
"722 1082 OFFCURVE",
"727 1083 CURVE",
"855 1091 LINE",
"855 979 LINE",
"660 979 LINE SMOOTH",
"625 979 OFFCURVE",
"610 971 OFFCURVE",
"610 944 CURVE SMOOTH",
"610 917 OFFCURVE",
"624 907 OFFCURVE",
"661 907 CURVE SMOOTH",
"855 907 LINE",
"855 707 LINE",
"775 776 OFFCURVE",
"692 813 OFFCURVE",
"571 813 CURVE SMOOTH",
"494 813 OFFCURVE",
"428 795 OFFCURVE",
"371 760 CURVE SMOOTH",
"257 688 OFFCURVE",
"193 557 OFFCURVE",
"193 398 CURVE SMOOTH",
"193 317 OFFCURVE",
"208 246 OFFCURVE",
"239 183 CURVE SMOOTH",
"300 58 OFFCURVE",
"418 -17 OFFCURVE",
"571 -17 CURVE SMOOTH",
"694 -17 OFFCURVE",
"803 34 OFFCURVE",
"864 107 CURVE",
"867 47 LINE SMOOTH",
"868 14 OFFCURVE",
"887 -3 OFFCURVE",
"914 -3 CURVE SMOOTH",
"921 -3 LINE",
"1107 17 LINE",
"1131 22 OFFCURVE",
"1145 41 OFFCURVE",
"1145 61 CURVE SMOOTH",
"1145 81 OFFCURVE",
"1132 96 OFFCURVE",
"1105 96 CURVE SMOOTH",
"1099 96 LINE"
);
},
{
closed = 1;
nodes = (
"788 113 OFFCURVE",
"694 65 OFFCURVE",
"573 65 CURVE SMOOTH",
"513 65 OFFCURVE",
"462 80 OFFCURVE",
"419 110 CURVE SMOOTH",
"334 170 OFFCURVE",
"289 277 OFFCURVE",
"289 398 CURVE SMOOTH",
"289 459 OFFCURVE",
"300 514 OFFCURVE",
"322 565 CURVE SMOOTH",
"366 666 OFFCURVE",
"454 731 OFFCURVE",
"577 731 CURVE SMOOTH",
"694 731 OFFCURVE",
"786 688 OFFCURVE",
"855 602 CURVE",
"855 210 LINE"
);
}
);
width = 1240;
}
);
note = dcroat;
unicode = 0111;
},
{
glyphname = e;
lastChange = "2016-08-11 21:18:16 +0000";
layers = (
{
layerId = "012FDA75-DADD-42E4-B1EF-A5A6AF7510CB";
paths = (
{
closed = 1;
nodes = (
"212 490 OFFCURVE",
"232 562 OFFCURVE",
"272 623 CURVE SMOOTH",
"351 746 OFFCURVE",
"491 813 OFFCURVE",
"654 813 CURVE SMOOTH",
"723 813 OFFCURVE",
"785 800 OFFCURVE",
"840 775 CURVE SMOOTH",
"948 723 OFFCURVE",
"1014 622 OFFCURVE",
"1014 479 CURVE SMOOTH",
"1014 428 OFFCURVE",
"984 392 OFFCURVE",
"937 392 CURVE SMOOTH",
"308 387 LINE",
"315 176 OFFCURVE",
"452 65 OFFCURVE",
"657 65 CURVE SMOOTH",
"757 65 OFFCURVE",
"858 102 OFFCURVE",
"934 174 CURVE",
"948 185 OFFCURVE",
"962 191 OFFCURVE",
"975 191 CURVE SMOOTH",
"999 191 OFFCURVE",
"1015 171 OFFCURVE",
"1015 147 CURVE SMOOTH",
"1015 132 OFFCURVE",
"1009 118 OFFCURVE",
"997 105 CURVE SMOOTH",
"928 30 OFFCURVE",
"778 -17 OFFCURVE",
"665 -17 CURVE SMOOTH",
"576 -17 OFFCURVE",
"497 0 OFFCURVE",
"429 34 CURVE SMOOTH",
"292 102 OFFCURVE",
"212 232 OFFCURVE",
"212 407 CURVE SMOOTH"
);
},
{
closed = 1;
nodes = (
"461 731 OFFCURVE",
"335 632 OFFCURVE",
"311 461 CURVE",
"929 465 LINE",
"920 609 OFFCURVE",
"864 731 OFFCURVE",
"656 731 CURVE SMOOTH"
);
}
);
width = 1240;
}
);
note = e;
unicode = 0065;
},
{
glyphname = eogonek;
lastChange = "2016-08-11 21:18:16 +0000";
layers = (
{
layerId = "012FDA75-DADD-42E4-B1EF-A5A6AF7510CB";
paths = (
{
closed = 1;
nodes = (
"962 191 OFFCURVE",
"948 185 OFFCURVE",
"934 174 CURVE",
"858 102 OFFCURVE",
"757 65 OFFCURVE",
"657 65 CURVE SMOOTH",
"452 65 OFFCURVE",
"315 176 OFFCURVE",
"308 387 CURVE",
"937 392 LINE SMOOTH",
"984 392 OFFCURVE",
"1014 428 OFFCURVE",
"1014 479 CURVE SMOOTH",
"1014 550 OFFCURVE",
"999 611 OFFCURVE",
"968 661 CURVE SMOOTH",
"906 761 OFFCURVE",
"793 813 OFFCURVE",
"654 813 CURVE SMOOTH",
"573 813 OFFCURVE",
"499 797 OFFCURVE",
"432 764 CURVE SMOOTH",
"298 699 OFFCURVE",
"212 572 OFFCURVE",
"212 407 CURVE SMOOTH",
"212 320 OFFCURVE",
"231 244 OFFCURVE",
"269 181 CURVE SMOOTH",
"345 53 OFFCURVE",
"486 -17 OFFCURVE",
"665 -17 CURVE SMOOTH",
"681 -17 OFFCURVE",
"698 -16 OFFCURVE",
"716 -14 CURVE",
"683 -43 OFFCURVE",
"655 -78 OFFCURVE",
"630 -117 CURVE SMOOTH",
"581 -197 OFFCURVE",
"554 -277 OFFCURVE",
"554 -320 CURVE SMOOTH",
"554 -396 OFFCURVE",
"598 -430 OFFCURVE",
"666 -430 CURVE SMOOTH",
"687 -430 OFFCURVE",
"706 -426 OFFCURVE",
"725 -418 CURVE SMOOTH",
"762 -402 OFFCURVE",
"788 -376 OFFCURVE",
"788 -353 CURVE SMOOTH",
"788 -343 OFFCURVE",
"779 -338 OFFCURVE",
"762 -338 CURVE",
"739 -339 LINE",
"716 -339 LINE SMOOTH",
"676 -339 OFFCURVE",
"652 -331 OFFCURVE",
"652 -291 CURVE SMOOTH",
"652 -254 OFFCURVE",
"686 -170 OFFCURVE",
"753 -39 CURVE SMOOTH",
"769 -6 LINE",
"861 13 OFFCURVE",
"948 52 OFFCURVE",
"997 105 CURVE SMOOTH",
"1009 118 OFFCURVE",
"1015 132 OFFCURVE",
"1015 147 CURVE SMOOTH",
"1015 171 OFFCURVE",
"999 191 OFFCURVE",
"975 191 CURVE SMOOTH"
);
},
{
closed = 1;
nodes = (
"864 731 OFFCURVE",
"920 609 OFFCURVE",
"929 465 CURVE",
"311 461 LINE",
"335 632 OFFCURVE",
"461 731 OFFCURVE",
"656 731 CURVE SMOOTH"
);
}
);
width = 1240;
}
);
note = eogonek;
unicode = 0119;
},
{
glyphname = f;
lastChange = "2016-08-11 21:18:16 +0000";
layers = (
{
layerId = "012FDA75-DADD-42E4-B1EF-A5A6AF7510CB";
paths = (
{
closed = 1;
nodes = (
"1036 984 OFFCURVE",
"1014 964 OFFCURVE",
"987 964 CURVE SMOOTH",
"962 964 OFFCURVE",
"940 983 OFFCURVE",
"940 1016 CURVE SMOOTH",
"940 1109 LINE",
"862 1104 OFFCURVE",
"802 1091 OFFCURVE",
"759 1072 CURVE SMOOTH",
"673 1032 OFFCURVE",
"641 960 OFFCURVE",
"641 832 CURVE SMOOTH",
"641 766 LINE",
"950 766 LINE SMOOTH",
"975 766 OFFCURVE",
"990 746 OFFCURVE",
"990 725 CURVE SMOOTH",
"990 702 OFFCURVE",
"974 684 OFFCURVE",
"949 684 CURVE SMOOTH",
"640 684 LINE",
"641 82 LINE",
"1003 82 LINE SMOOTH",
"1027 82 OFFCURVE",
"1042 62 OFFCURVE",
"1042 41 CURVE SMOOTH",
"1042 18 OFFCURVE",
"1027 0 OFFCURVE",
"1002 0 CURVE SMOOTH",
"327 0 LINE SMOOTH",
"298 0 OFFCURVE",
"281 19 OFFCURVE",
"281 42 CURVE SMOOTH",
"281 63 OFFCURVE",
"296 82 OFFCURVE",
"323 82 CURVE SMOOTH",
"544 82 LINE",
"544 684 LINE",
"352 684 LINE SMOOTH",
"323 684 OFFCURVE",
"306 703 OFFCURVE",
"306 726 CURVE SMOOTH",
"306 747 OFFCURVE",
"321 766 OFFCURVE",
"348 766 CURVE SMOOTH",
"544 766 LINE",
"544 838 LINE SMOOTH",
"544 1074 OFFCURVE",
"699 1188 OFFCURVE",
"979 1188 CURVE SMOOTH",
"1011 1188 OFFCURVE",
"1036 1168 OFFCURVE",
"1036 1137 CURVE SMOOTH",
"1036 1020 LINE SMOOTH"
);
}
);
width = 1240;
}
);
note = f;
unicode = 0066;
},
{
glyphname = g;
lastChange = "2016-08-11 21:18:16 +0000";
layers = (
{
layerId = "012FDA75-DADD-42E4-B1EF-A5A6AF7510CB";
paths = (
{
closed = 1;
nodes = (
"399 157 OFFCURVE",
"410 134 OFFCURVE",
"454 120 CURVE SMOOTH",
"475 113 OFFCURVE",
"507 109 OFFCURVE",
"548 109 CURVE SMOOTH",
"641 109 LINE SMOOTH",
"723 109 OFFCURVE",
"789 103 OFFCURVE",
"839 92 CURVE SMOOTH",
"939 68 OFFCURVE",
"994 9 OFFCURVE",
"994 -114 CURVE SMOOTH",
"994 -166 OFFCURVE",
"975 -210 OFFCURVE",
"937 -245 CURVE SMOOTH",
"860 -316 OFFCURVE",
"728 -350 OFFCURVE",
"585 -350 CURVE SMOOTH",
"405 -350 OFFCURVE",
"278 -294 OFFCURVE",
"278 -147 CURVE SMOOTH",
"278 -51 OFFCURVE",
"326 23 OFFCURVE",
"397 58 CURVE",
"334 89 OFFCURVE",
"303 125 OFFCURVE",
"303 185 CURVE SMOOTH",
"303 209 OFFCURVE",
"311 232 OFFCURVE",
"327 254 CURVE SMOOTH",
"359 297 OFFCURVE",
"409 326 OFFCURVE",
"448 331 CURVE",
"333 378 OFFCURVE",
"276 436 OFFCURVE",
"276 545 CURVE SMOOTH",
"276 604 OFFCURVE",
"291 653 OFFCURVE",
"320 694 CURVE SMOOTH",
"378 774 OFFCURVE",
"480 813 OFFCURVE",
"599 813 CURVE SMOOTH",
"690 813 OFFCURVE",
"775 786 OFFCURVE",
"838 734 CURVE",
"990 835 LINE SMOOTH",
"1031 863 OFFCURVE",
"1072 877 OFFCURVE",
"1111 877 CURVE SMOOTH",
"1150 877 OFFCURVE",
"1169 860 OFFCURVE",
"1169 826 CURVE SMOOTH",
"1169 811 OFFCURVE",
"1159 798 OFFCURVE",
"1138 789 CURVE SMOOTH",
"1117 780 OFFCURVE",
"1083 775 OFFCURVE",
"1036 775 CURVE",
"867 701 LINE",
"905 654 OFFCURVE",
"924 600 OFFCURVE",
"924 540 CURVE SMOOTH",
"924 365 OFFCURVE",
"813 287 OFFCURVE",
"588 287 CURVE SMOOTH",
"554 287 OFFCURVE",
"523 283 OFFCURVE",
"494 274 CURVE SMOOTH",
"436 257 OFFCURVE",
"399 225 OFFCURVE",
"399 190 CURVE SMOOTH"
);
},
{
closed = 1;
nodes = (
"731 361 OFFCURVE",
"828 407 OFFCURVE",
"828 534 CURVE SMOOTH",
"828 670 OFFCURVE",
"732 731 OFFCURVE",
"597 731 CURVE SMOOTH",
"465 731 OFFCURVE",
"372 669 OFFCURVE",
"372 542 CURVE SMOOTH",
"372 425 OFFCURVE",
"463 361 OFFCURVE",
"591 361 CURVE SMOOTH"
);
},
{
closed = 1;
nodes = (
"447 32 OFFCURVE",
"434 21 OFFCURVE",
"421 3 CURVE SMOOTH",
"394 -34 OFFCURVE",
"374 -85 OFFCURVE",
"374 -122 CURVE SMOOTH",
"374 -233 OFFCURVE",
"439 -268 OFFCURVE",
"583 -268 CURVE SMOOTH",
"751 -268 OFFCURVE",
"898 -222 OFFCURVE",
"898 -118 CURVE SMOOTH",
"898 -77 OFFCURVE",
"890 -45 OFFCURVE",
"875 -23 CURVE SMOOTH",
"843 21 OFFCURVE",
"776 37 OFFCURVE",
"644 37 CURVE SMOOTH",
"460 37 LINE"
);
}
);
width = 1240;
}
);
note = g;
unicode = 0067;
},
{
glyphname = gcommaaccent;
lastChange = "2016-08-11 21:18:16 +0000";
layers = (
{
layerId = "012FDA75-DADD-42E4-B1EF-A5A6AF7510CB";
paths = (
{
closed = 1;
nodes = (
"719 1034 OFFCURVE",
"680 1009 OFFCURVE",
"627 1009 CURVE SMOOTH",
"559 1009 OFFCURVE",
"525 1045 OFFCURVE",
"525 1118 CURVE SMOOTH",
"525 1155 OFFCURVE",
"534 1191 OFFCURVE",
"553 1227 CURVE SMOOTH",
"590 1298 OFFCURVE",
"653 1356 OFFCURVE",
"710 1385 CURVE SMOOTH",
"712 1386 OFFCURVE",
"715 1387 OFFCURVE",
"720 1387 CURVE SMOOTH",
"735 1387 OFFCURVE",
"748 1373 OFFCURVE",
"748 1360 CURVE SMOOTH",
"748 1352 OFFCURVE",
"744 1345 OFFCURVE",
"736 1339 CURVE SMOOTH",
"669 1291 OFFCURVE",
"613 1240 OFFCURVE",
"613 1185 CURVE",
"676 1185 OFFCURVE",
"719 1155 OFFCURVE",
"719 1094 CURVE SMOOTH"
);
},
{
closed = 1;
nodes = (
"399 157 OFFCURVE",
"410 134 OFFCURVE",
"454 120 CURVE SMOOTH",
"475 113 OFFCURVE",
"507 109 OFFCURVE",
"548 109 CURVE SMOOTH",
"641 109 LINE SMOOTH",
"723 109 OFFCURVE",
"789 103 OFFCURVE",
"839 92 CURVE SMOOTH",
"939 68 OFFCURVE",
"994 9 OFFCURVE",
"994 -114 CURVE SMOOTH",
"994 -166 OFFCURVE",
"975 -210 OFFCURVE",
"937 -245 CURVE SMOOTH",
"860 -316 OFFCURVE",
"728 -350 OFFCURVE",
"585 -350 CURVE SMOOTH",
"405 -350 OFFCURVE",
"278 -294 OFFCURVE",
"278 -147 CURVE SMOOTH",
"278 -51 OFFCURVE",
"326 23 OFFCURVE",
"397 58 CURVE",
"334 89 OFFCURVE",
"303 125 OFFCURVE",
"303 185 CURVE SMOOTH",
"303 209 OFFCURVE",
"311 232 OFFCURVE",
"327 254 CURVE SMOOTH",
"359 297 OFFCURVE",
"409 326 OFFCURVE",
"448 331 CURVE",
"333 378 OFFCURVE",
"276 436 OFFCURVE",
"276 545 CURVE SMOOTH",
"276 604 OFFCURVE",
"291 653 OFFCURVE",
"320 694 CURVE SMOOTH",
"378 774 OFFCURVE",
"480 813 OFFCURVE",
"599 813 CURVE SMOOTH",
"690 813 OFFCURVE",
"775 786 OFFCURVE",
"838 734 CURVE",
"990 835 LINE SMOOTH",
"1031 863 OFFCURVE",
"1072 877 OFFCURVE",
"1111 877 CURVE SMOOTH",
"1150 877 OFFCURVE",
"1169 860 OFFCURVE",
"1169 826 CURVE SMOOTH",
"1169 811 OFFCURVE",
"1159 798 OFFCURVE",
"1138 789 CURVE SMOOTH",
"1117 780 OFFCURVE",
"1083 775 OFFCURVE",
"1036 775 CURVE",
"867 701 LINE",
"905 654 OFFCURVE",
"924 600 OFFCURVE",
"924 540 CURVE SMOOTH",
"924 365 OFFCURVE",
"813 287 OFFCURVE",
"588 287 CURVE SMOOTH",
"554 287 OFFCURVE",
"523 283 OFFCURVE",
"494 274 CURVE SMOOTH",
"436 257 OFFCURVE",
"399 225 OFFCURVE",
"399 190 CURVE SMOOTH"
);
},
{
closed = 1;
nodes = (
"731 361 OFFCURVE",
"828 407 OFFCURVE",
"828 534 CURVE SMOOTH",
"828 670 OFFCURVE",
"732 731 OFFCURVE",
"597 731 CURVE SMOOTH",
"465 731 OFFCURVE",
"372 669 OFFCURVE",
"372 542 CURVE SMOOTH",
"372 425 OFFCURVE",
"463 361 OFFCURVE",
"591 361 CURVE SMOOTH"
);
},
{
closed = 1;
nodes = (
"447 32 OFFCURVE",
"434 21 OFFCURVE",
"421 3 CURVE SMOOTH",
"394 -34 OFFCURVE",
"374 -85 OFFCURVE",
"374 -122 CURVE SMOOTH",
"374 -233 OFFCURVE",
"439 -268 OFFCURVE",
"583 -268 CURVE SMOOTH",
"751 -268 OFFCURVE",
"898 -222 OFFCURVE",
"898 -118 CURVE SMOOTH",
"898 -77 OFFCURVE",
"890 -45 OFFCURVE",
"875 -23 CURVE SMOOTH",
"843 21 OFFCURVE",
"776 37 OFFCURVE",
"644 37 CURVE SMOOTH",
"460 37 LINE"
);
}
);
width = 1240;
}
);
note = gcommaaccent;
unicode = 0123;
},
{
glyphname = h;
lastChange = "2016-08-11 21:18:16 +0000";
layers = (
{
layerId = "012FDA75-DADD-42E4-B1EF-A5A6AF7510CB";
paths = (
{
closed = 1;
nodes = (
"896 661 OFFCURVE",
"835 731 OFFCURVE",
"716 731 CURVE SMOOTH",
"655 731 OFFCURVE",
"601 719 OFFCURVE",
"552 696 CURVE SMOOTH",
"454 648 OFFCURVE",
"396 568 OFFCURVE",
"396 497 CURVE SMOOTH",
"396 82 LINE",
"501 82 LINE SMOOTH",
"532 82 OFFCURVE",
"549 63 OFFCURVE",
"549 42 CURVE SMOOTH",
"549 19 OFFCURVE",
"530 0 OFFCURVE",
"499 0 CURVE SMOOTH",
"196 0 LINE SMOOTH",
"167 0 OFFCURVE",
"150 20 OFFCURVE",
"150 43 CURVE SMOOTH",
"150 64 OFFCURVE",
"165 82 OFFCURVE",
"192 82 CURVE SMOOTH",
"300 82 LINE",
"300 1091 LINE",
"152 1082 LINE SMOOTH",
"129 1081 OFFCURVE",
"113 1097 OFFCURVE",
"113 1118 CURVE SMOOTH",
"113 1137 OFFCURVE",
"125 1158 OFFCURVE",
"146 1159 CURVE",
"335 1178 LINE SMOOTH",
"346 1179 OFFCURVE",
"352 1180 OFFCURVE",
"355 1180 CURVE SMOOTH",
"382 1180 OFFCURVE",
"396 1167 OFFCURVE",
"396 1141 CURVE SMOOTH",
"396 639 LINE",
"413 672 OFFCURVE",
"437 701 OFFCURVE",
"469 728 CURVE SMOOTH",
"533 780 OFFCURVE",
"622 813 OFFCURVE",
"711 813 CURVE SMOOTH",
"899 813 OFFCURVE",
"992 712 OFFCURVE",
"992 533 CURVE SMOOTH",
"992 82 LINE",
"1101 82 LINE SMOOTH",
"1126 82 OFFCURVE",
"1141 63 OFFCURVE",
"1141 42 CURVE SMOOTH",
"1141 19 OFFCURVE",
"1126 0 OFFCURVE",
"1099 0 CURVE SMOOTH",
"754 0 LINE SMOOTH",
"725 0 OFFCURVE",
"708 20 OFFCURVE",
"708 43 CURVE SMOOTH",
"708 64 OFFCURVE",
"723 82 OFFCURVE",
"750 82 CURVE SMOOTH",
"896 82 LINE",
"896 540 LINE SMOOTH"
);
}
);
width = 1240;
}
);
note = h;
unicode = 0068;
},
{
glyphname = hbar;
lastChange = "2016-08-11 21:18:16 +0000";
layers = (
{
layerId = "012FDA75-DADD-42E4-B1EF-A5A6AF7510CB";
paths = (
{
closed = 1;
nodes = (
"992 533 LINE SMOOTH",
"992 712 OFFCURVE",
"899 813 OFFCURVE",
"711 813 CURVE SMOOTH",
"666 813 OFFCURVE",
"623 805 OFFCURVE",
"581 790 CURVE SMOOTH",
"496 759 OFFCURVE",
"429 704 OFFCURVE",
"396 639 CURVE",
"396 907 LINE",
"542 907 LINE SMOOTH",
"575 907 OFFCURVE",
"589 917 OFFCURVE",
"589 944 CURVE SMOOTH",
"589 971 OFFCURVE",
"575 979 OFFCURVE",
"540 979 CURVE SMOOTH",
"396 979 LINE",
"396 1141 LINE SMOOTH",
"396 1167 OFFCURVE",
"382 1180 OFFCURVE",
"355 1180 CURVE SMOOTH",
"352 1180 OFFCURVE",
"346 1179 OFFCURVE",
"335 1178 CURVE SMOOTH",
"146 1159 LINE",
"125 1158 OFFCURVE",
"113 1137 OFFCURVE",
"113 1118 CURVE SMOOTH",
"113 1097 OFFCURVE",
"129 1081 OFFCURVE",
"152 1082 CURVE SMOOTH",
"300 1091 LINE",
"300 979 LINE",
"179 979 LINE SMOOTH",
"144 979 OFFCURVE",
"129 971 OFFCURVE",
"129 944 CURVE SMOOTH",
"129 917 OFFCURVE",
"143 907 OFFCURVE",
"180 907 CURVE SMOOTH",
"300 907 LINE",
"300 82 LINE",
"192 82 LINE SMOOTH",
"165 82 OFFCURVE",
"150 64 OFFCURVE",
"150 43 CURVE SMOOTH",
"150 20 OFFCURVE",
"167 0 OFFCURVE",
"196 0 CURVE SMOOTH",
"499 0 LINE SMOOTH",
"530 0 OFFCURVE",
"549 19 OFFCURVE",
"549 42 CURVE SMOOTH",
"549 63 OFFCURVE",
"532 82 OFFCURVE",
"501 82 CURVE SMOOTH",
"396 82 LINE",
"396 497 LINE SMOOTH",
"396 532 OFFCURVE",
"410 568 OFFCURVE",
"437 605 CURVE SMOOTH",
"492 678 OFFCURVE",
"595 731 OFFCURVE",
"716 731 CURVE SMOOTH",
"835 731 OFFCURVE",
"896 661 OFFCURVE",
"896 540 CURVE SMOOTH",
"896 82 LINE",
"750 82 LINE SMOOTH",
"723 82 OFFCURVE",
"708 64 OFFCURVE",
"708 43 CURVE SMOOTH",
"708 20 OFFCURVE",
"725 0 OFFCURVE",
"754 0 CURVE SMOOTH",
"1099 0 LINE SMOOTH",
"1126 0 OFFCURVE",
"1141 19 OFFCURVE",
"1141 42 CURVE SMOOTH",
"1141 63 OFFCURVE",
"1126 82 OFFCURVE",
"1101 82 CURVE SMOOTH",
"992 82 LINE"
);
}
);
width = 1240;
}
);
note = hbar;
unicode = 0127;
},
{
glyphname = i;
lastChange = "2016-08-11 21:18:16 +0000";
layers = (
{
layerId = "012FDA75-DADD-42E4-B1EF-A5A6AF7510CB";
paths = (
{
closed = 1;
nodes = (
"609 1135 OFFCURVE",
"647 1171 OFFCURVE",
"692 1171 CURVE SMOOTH",
"737 1171 OFFCURVE",
"774 1135 OFFCURVE",
"774 1088 CURVE SMOOTH",
"774 1043 OFFCURVE",
"739 1006 OFFCURVE",
"692 1006 CURVE SMOOTH",
"645 1006 OFFCURVE",
"609 1043 OFFCURVE",
"609 1088 CURVE SMOOTH"
);
},
{
closed = 1;
nodes = (
"266 0 OFFCURVE",
"249 20 OFFCURVE",
"249 43 CURVE SMOOTH",
"249 64 OFFCURVE",
"264 82 OFFCURVE",
"291 82 CURVE SMOOTH",
"663 82 LINE",
"663 719 LINE",
"330 674 LINE",
"323 673 LINE",
"298 673 OFFCURVE",
"282 692 OFFCURVE",
"282 715 CURVE SMOOTH",
"282 735 OFFCURVE",
"293 752 OFFCURVE",
"314 755 CURVE SMOOTH",
"712 810 LINE",
"714 811 OFFCURVE",
"718 811 OFFCURVE",
"723 811 CURVE SMOOTH",
"744 811 OFFCURVE",
"759 799 OFFCURVE",
"759 779 CURVE SMOOTH",
"759 82 LINE",
"1092 82 LINE SMOOTH",
"1117 82 OFFCURVE",
"1132 62 OFFCURVE",
"1132 41 CURVE SMOOTH",
"1132 18 OFFCURVE",
"1116 0 OFFCURVE",
"1091 0 CURVE SMOOTH",
"295 0 LINE SMOOTH"
);
}
);
width = 1240;
}
);
note = i;
unicode = 0069;
},
{
glyphname = dotlessi;
lastChange = "2016-08-11 21:18:16 +0000";
layers = (
{
layerId = "012FDA75-DADD-42E4-B1EF-A5A6AF7510CB";
paths = (
{
closed = 1;
nodes = (
"270 0 OFFCURVE",
"253 20 OFFCURVE",
"253 43 CURVE SMOOTH",
"253 64 OFFCURVE",
"268 82 OFFCURVE",
"295 82 CURVE SMOOTH",
"667 82 LINE",
"667 719 LINE",
"334 674 LINE",
"327 673 LINE",
"302 673 OFFCURVE",
"286 692 OFFCURVE",
"286 715 CURVE SMOOTH",
"286 735 OFFCURVE",
"297 752 OFFCURVE",
"318 755 CURVE SMOOTH",
"716 810 LINE",
"718 811 OFFCURVE",
"722 811 OFFCURVE",
"727 811 CURVE SMOOTH",
"748 811 OFFCURVE",
"763 799 OFFCURVE",
"763 779 CURVE SMOOTH",
"763 82 LINE",
"1096 82 LINE SMOOTH",
"1121 82 OFFCURVE",
"1136 62 OFFCURVE",
"1136 41 CURVE SMOOTH",
"1136 18 OFFCURVE",
"1120 0 OFFCURVE",
"1095 0 CURVE SMOOTH",
"299 0 LINE SMOOTH"
);
}
);
width = 1240;
}
);
note = dotlessi;
unicode = 0131;
},
{
glyphname = ij;
lastChange = "2016-08-11 21:18:16 +0000";
layers = (
{
layerId = "012FDA75-DADD-42E4-B1EF-A5A6AF7510CB";
paths = (
{
closed = 1;
nodes = (
"454 1135 OFFCURVE",
"492 1171 OFFCURVE",
"537 1171 CURVE SMOOTH",
"582 1171 OFFCURVE",
"619 1135 OFFCURVE",
"619 1088 CURVE SMOOTH",
"619 1043 OFFCURVE",
"584 1006 OFFCURVE",
"537 1006 CURVE SMOOTH",
"490 1006 OFFCURVE",
"454 1043 OFFCURVE",
"454 1088 CURVE SMOOTH"
);
},
{
closed = 1;
nodes = (
"872 1135 OFFCURVE",
"910 1171 OFFCURVE",
"955 1171 CURVE SMOOTH",
"1000 1171 OFFCURVE",
"1037 1135 OFFCURVE",
"1037 1088 CURVE SMOOTH",
"1037 1043 OFFCURVE",
"1002 1006 OFFCURVE",
"955 1006 CURVE SMOOTH",
"908 1006 OFFCURVE",
"872 1043 OFFCURVE",
"872 1088 CURVE SMOOTH"
);
},
{
closed = 1;
nodes = (
"1042 -72 OFFCURVE",
"1021 -125 OFFCURVE",
"978 -170 CURVE SMOOTH",
"893 -261 OFFCURVE",
"741 -310 OFFCURVE",
"576 -310 CURVE SMOOTH",
"545 -310 OFFCURVE",
"525 -290 OFFCURVE",
"525 -266 CURVE SMOOTH",
"525 -242 OFFCURVE",
"547 -221 OFFCURVE",
"583 -221 CURVE SMOOTH",
"645 -221 OFFCURVE",
"704 -213 OFFCURVE",
"759 -197 CURVE SMOOTH",
"870 -166 OFFCURVE",
"946 -100 OFFCURVE",
"946 -1 CURVE SMOOTH",
"946 731 LINE",
"583 731 LINE",
"583 82 LINE",
"701 82 LINE SMOOTH",
"726 82 OFFCURVE",
"741 62 OFFCURVE",
"741 41 CURVE SMOOTH",
"741 18 OFFCURVE",
"725 0 OFFCURVE",
"700 0 CURVE SMOOTH",
"185 0 LINE SMOOTH",
"156 0 OFFCURVE",
"139 20 OFFCURVE",
"139 43 CURVE SMOOTH",
"139 64 OFFCURVE",
"154 82 OFFCURVE",
"181 82 CURVE SMOOTH",
"487 82 LINE",
"487 731 LINE",
"307 731 LINE SMOOTH",
"282 731 OFFCURVE",
"266 751 OFFCURVE",
"266 774 CURVE SMOOTH",
"266 795 OFFCURVE",
"278 813 OFFCURVE",
"298 813 CURVE SMOOTH",
"1006 813 LINE SMOOTH",
"1027 813 OFFCURVE",
"1042 804 OFFCURVE",
"1042 784 CURVE SMOOTH",
"1042 -11 LINE SMOOTH"
);
}
);
width = 1240;
}
);
note = ij;
unicode = 0133;
},
{
glyphname = iogonek;
lastChange = "2016-08-11 21:18:16 +0000";
layers = (
{
layerId = "012FDA75-DADD-42E4-B1EF-A5A6AF7510CB";
paths = (
{
closed = 1;
nodes = (
"739 1006 OFFCURVE",
"774 1043 OFFCURVE",
"774 1088 CURVE SMOOTH",
"774 1135 OFFCURVE",
"737 1171 OFFCURVE",
"692 1171 CURVE SMOOTH",
"647 1171 OFFCURVE",
"609 1135 OFFCURVE",
"609 1088 CURVE SMOOTH",
"609 1043 OFFCURVE",
"645 1006 OFFCURVE",
"692 1006 CURVE SMOOTH"
);
},
{
closed = 1;
nodes = (
"759 779 LINE SMOOTH",
"759 799 OFFCURVE",
"744 811 OFFCURVE",
"723 811 CURVE SMOOTH",
"718 811 OFFCURVE",
"714 811 OFFCURVE",
"712 810 CURVE",
"314 755 LINE SMOOTH",
"293 752 OFFCURVE",
"282 735 OFFCURVE",
"282 715 CURVE SMOOTH",
"282 692 OFFCURVE",
"298 673 OFFCURVE",
"323 673 CURVE",
"330 674 LINE",
"663 719 LINE",
"663 82 LINE",
"291 82 LINE SMOOTH",
"264 82 OFFCURVE",
"249 64 OFFCURVE",
"249 43 CURVE SMOOTH",
"249 20 OFFCURVE",
"266 0 OFFCURVE",
"295 0 CURVE SMOOTH",
"654 0 LINE",
"622 -29 OFFCURVE",
"594 -64 OFFCURVE",
"570 -103 CURVE SMOOTH",
"521 -182 OFFCURVE",
"495 -262 OFFCURVE",
"495 -303 CURVE SMOOTH",
"495 -379 OFFCURVE",
"539 -413 OFFCURVE",
"607 -413 CURVE SMOOTH",
"628 -413 OFFCURVE",
"647 -409 OFFCURVE",
"666 -401 CURVE SMOOTH",
"703 -385 OFFCURVE",
"729 -359 OFFCURVE",
"729 -336 CURVE SMOOTH",
"729 -326 OFFCURVE",
"720 -321 OFFCURVE",
"703 -321 CURVE",
"680 -322 LINE",
"657 -322 LINE SMOOTH",
"617 -322 OFFCURVE",
"593 -314 OFFCURVE",
"593 -274 CURVE SMOOTH",
"593 -222 OFFCURVE",
"642 -124 OFFCURVE",
"705 0 CURVE",
"1091 0 LINE SMOOTH",
"1116 0 OFFCURVE",
"1132 18 OFFCURVE",
"1132 41 CURVE SMOOTH",
"1132 62 OFFCURVE",
"1117 82 OFFCURVE",
"1092 82 CURVE SMOOTH",
"759 82 LINE"
);
}
);
width = 1240;
}
);
note = iogonek;
unicode = 012F;
},
{
glyphname = j;
lastChange = "2016-08-11 21:18:16 +0000";
layers = (
{
layerId = "012FDA75-DADD-42E4-B1EF-A5A6AF7510CB";
paths = (
{
closed = 1;
nodes = (
"719 1135 OFFCURVE",
"757 1171 OFFCURVE",
"802 1171 CURVE SMOOTH",
"847 1171 OFFCURVE",
"884 1135 OFFCURVE",
"884 1088 CURVE SMOOTH",
"884 1043 OFFCURVE",
"849 1006 OFFCURVE",
"802 1006 CURVE SMOOTH",
"755 1006 OFFCURVE",
"719 1043 OFFCURVE",
"719 1088 CURVE SMOOTH"
);
},
{
closed = 1;
nodes = (
"895 -70 OFFCURVE",
"869 -123 OFFCURVE",
"817 -168 CURVE SMOOTH",
"712 -260 OFFCURVE",
"535 -310 OFFCURVE",
"367 -310 CURVE SMOOTH",
"336 -310 OFFCURVE",
"316 -290 OFFCURVE",
"316 -266 CURVE SMOOTH",
"316 -242 OFFCURVE",
"338 -221 OFFCURVE",
"374 -221 CURVE SMOOTH",
"437 -221 OFFCURVE",
"502 -213 OFFCURVE",
"568 -197 CURVE SMOOTH",
"699 -165 OFFCURVE",
"799 -98 OFFCURVE",
"799 -1 CURVE SMOOTH",
"799 731 LINE",
"343 731 LINE SMOOTH",
"315 731 OFFCURVE",
"299 751 OFFCURVE",
"299 774 CURVE SMOOTH",
"299 795 OFFCURVE",
"314 813 OFFCURVE",
"339 813 CURVE SMOOTH",
"859 813 LINE SMOOTH",
"880 813 OFFCURVE",
"895 804 OFFCURVE",
"895 784 CURVE SMOOTH",
"895 -11 LINE SMOOTH"
);
}
);
width = 1240;
}
);
note = j;
unicode = 006A;
},
{
glyphname = uni0237;
lastChange = "2016-08-11 21:18:16 +0000";
layers = (
{
layerId = "012FDA75-DADD-42E4-B1EF-A5A6AF7510CB";
paths = (
{
closed = 1;
nodes = (
"895 -70 OFFCURVE",
"869 -123 OFFCURVE",
"817 -168 CURVE SMOOTH",
"712 -260 OFFCURVE",
"535 -310 OFFCURVE",
"367 -310 CURVE SMOOTH",
"336 -310 OFFCURVE",
"316 -290 OFFCURVE",
"316 -266 CURVE SMOOTH",
"316 -242 OFFCURVE",
"338 -221 OFFCURVE",
"374 -221 CURVE SMOOTH",
"437 -221 OFFCURVE",
"502 -213 OFFCURVE",
"568 -197 CURVE SMOOTH",
"699 -165 OFFCURVE",
"799 -98 OFFCURVE",
"799 -1 CURVE SMOOTH",
"799 731 LINE",
"343 731 LINE SMOOTH",
"315 731 OFFCURVE",
"299 751 OFFCURVE",
"299 774 CURVE SMOOTH",
"299 795 OFFCURVE",
"314 813 OFFCURVE",
"339 813 CURVE SMOOTH",
"859 813 LINE SMOOTH",
"880 813 OFFCURVE",
"895 804 OFFCURVE",
"895 784 CURVE SMOOTH",
"895 -11 LINE SMOOTH"
);
}
);
width = 1240;
}
);
note = uni0237;
unicode = 0237;
},
{
glyphname = k;
lastChange = "2016-08-11 21:18:16 +0000";
layers = (
{
layerId = "012FDA75-DADD-42E4-B1EF-A5A6AF7510CB";
paths = (
{
closed = 1;
nodes = (
"847 692 LINE",
"744 692 LINE SMOOTH",
"717 692 OFFCURVE",
"702 710 OFFCURVE",
"702 733 CURVE SMOOTH",
"702 756 OFFCURVE",
"719 775 OFFCURVE",
"748 775 CURVE SMOOTH",
"1065 775 LINE SMOOTH",
"1092 775 OFFCURVE",
"1106 756 OFFCURVE",
"1106 729 CURVE SMOOTH",
"1106 710 OFFCURVE",
"1087 692 OFFCURVE",
"1066 692 CURVE SMOOTH",
"977 692 LINE",
"660 446 LINE",
"1001 82 LINE",
"1088 82 LINE SMOOTH",
"1113 82 OFFCURVE",
"1128 62 OFFCURVE",
"1128 41 CURVE SMOOTH",
"1128 18 OFFCURVE",
"1113 0 OFFCURVE",
"1088 0 CURVE SMOOTH",
"775 0 LINE SMOOTH",
"748 0 OFFCURVE",
"733 20 OFFCURVE",
"733 41 CURVE SMOOTH",
"733 64 OFFCURVE",
"750 82 OFFCURVE",
"779 82 CURVE SMOOTH",
"889 82 LINE",
"590 400 LINE",
"464 308 LINE",
"464 82 LINE",
"535 82 LINE SMOOTH",
"559 82 OFFCURVE",
"574 62 OFFCURVE",
"574 41 CURVE SMOOTH",
"574 18 OFFCURVE",
"559 0 OFFCURVE",
"534 0 CURVE SMOOTH",
"200 0 LINE SMOOTH",
"172 0 OFFCURVE",
"154 19 OFFCURVE",
"154 42 CURVE SMOOTH",
"154 63 OFFCURVE",
"169 82 OFFCURVE",
"196 82 CURVE SMOOTH",
"368 82 LINE",
"368 1082 LINE",
"198 1058 LINE",
"196 1057 OFFCURVE",
"194 1057 OFFCURVE",
"191 1057 CURVE SMOOTH",
"166 1057 OFFCURVE",
"150 1076 OFFCURVE",
"150 1099 CURVE SMOOTH",
"150 1119 OFFCURVE",
"161 1136 OFFCURVE",
"182 1139 CURVE",
"416 1181 LINE",
"428 1182 LINE",
"449 1182 OFFCURVE",
"464 1170 OFFCURVE",
"464 1150 CURVE SMOOTH",
"464 399 LINE"
);
}
);
width = 1240;
}
);
note = k;
unicode = 006B;
},
{
glyphname = kgreenlandic;
lastChange = "2016-08-11 21:18:16 +0000";
layers = (
{
layerId = "012FDA75-DADD-42E4-B1EF-A5A6AF7510CB";
paths = (
{
closed = 1;
nodes = (
"851 692 LINE",
"744 692 LINE SMOOTH",
"717 692 OFFCURVE",
"702 710 OFFCURVE",
"702 733 CURVE SMOOTH",
"702 756 OFFCURVE",
"719 775 OFFCURVE",
"748 775 CURVE SMOOTH",
"1065 775 LINE SMOOTH",
"1092 775 OFFCURVE",
"1106 756 OFFCURVE",
"1106 729 CURVE SMOOTH",
"1106 710 OFFCURVE",
"1087 692 OFFCURVE",
"1066 692 CURVE SMOOTH",
"971 692 LINE",
"662 433 LINE",
"1001 82 LINE",
"1088 82 LINE SMOOTH",
"1113 82 OFFCURVE",
"1128 62 OFFCURVE",
"1128 41 CURVE SMOOTH",
"1128 18 OFFCURVE",
"1113 0 OFFCURVE",
"1088 0 CURVE SMOOTH",
"775 0 LINE SMOOTH",
"748 0 OFFCURVE",
"733 20 OFFCURVE",
"733 41 CURVE SMOOTH",
"733 64 OFFCURVE",
"750 82 OFFCURVE",
"779 82 CURVE SMOOTH",
"889 82 LINE",
"597 387 LINE",
"464 287 LINE",
"464 82 LINE",
"535 82 LINE SMOOTH",
"559 82 OFFCURVE",
"574 62 OFFCURVE",
"574 41 CURVE SMOOTH",
"574 18 OFFCURVE",
"559 0 OFFCURVE",
"534 0 CURVE SMOOTH",
"200 0 LINE SMOOTH",
"172 0 OFFCURVE",
"154 19 OFFCURVE",
"154 42 CURVE SMOOTH",
"154 63 OFFCURVE",
"169 82 OFFCURVE",
"196 82 CURVE SMOOTH",
"368 82 LINE",
"368 692 LINE",
"193 692 LINE SMOOTH",
"162 692 OFFCURVE",
"150 710 OFFCURVE",
"150 734 CURVE SMOOTH",
"150 755 OFFCURVE",
"164 774 OFFCURVE",
"189 774 CURVE SMOOTH",
"428 774 LINE SMOOTH",
"449 774 OFFCURVE",
"464 760 OFFCURVE",
"464 736 CURVE SMOOTH",
"464 373 LINE"
);
}
);
width = 1240;
}
);
note = kgreenlandic;
unicode = 0138;
},
{
glyphname = l;
lastChange = "2016-08-11 21:18:16 +0000";
layers = (
{
layerId = "012FDA75-DADD-42E4-B1EF-A5A6AF7510CB";
paths = (
{
closed = 1;
nodes = (
"704 1182 OFFCURVE",
"719 1170 OFFCURVE",
"719 1150 CURVE SMOOTH",
"719 82 LINE",
"1059 82 LINE SMOOTH",
"1083 82 OFFCURVE",
"1098 62 OFFCURVE",
"1098 41 CURVE SMOOTH",
"1098 18 OFFCURVE",
"1083 0 OFFCURVE",
"1058 0 CURVE SMOOTH",
"258 0 LINE SMOOTH",
"229 0 OFFCURVE",
"212 19 OFFCURVE",
"212 42 CURVE SMOOTH",
"212 63 OFFCURVE",
"227 82 OFFCURVE",
"254 82 CURVE SMOOTH",
"623 82 LINE",
"623 1090 LINE",
"270 1062 LINE",
"263 1061 LINE",
"238 1061 OFFCURVE",
"222 1080 OFFCURVE",
"222 1103 CURVE SMOOTH",
"222 1123 OFFCURVE",
"233 1140 OFFCURVE",
"254 1143 CURVE",
"672 1181 LINE",
"683 1182 LINE"
);
}
);
width = 1240;
}
);
note = l;
unicode = 006C;
},
{
glyphname = lslash;
lastChange = "2016-08-11 21:18:16 +0000";
layers = (
{
layerId = "012FDA75-DADD-42E4-B1EF-A5A6AF7510CB";
paths = (
{
closed = 1;
nodes = (
"719 639 LINE",
"929 725 LINE",
"942 731 OFFCURVE",
"949 742 OFFCURVE",
"949 757 CURVE SMOOTH",
"949 778 OFFCURVE",
"933 799 OFFCURVE",
"912 799 CURVE SMOOTH",
"907 799 OFFCURVE",
"902 798 OFFCURVE",
"896 796 CURVE",
"719 724 LINE",
"719 1150 LINE SMOOTH",
"719 1170 OFFCURVE",
"704 1182 OFFCURVE",
"683 1182 CURVE",
"672 1181 LINE",
"254 1143 LINE",
"233 1140 OFFCURVE",
"222 1123 OFFCURVE",
"222 1103 CURVE SMOOTH",
"222 1080 OFFCURVE",
"238 1061 OFFCURVE",
"263 1061 CURVE",
"270 1062 LINE",
"623 1090 LINE",
"623 685 LINE",
"400 595 LINE SMOOTH",
"384 588 OFFCURVE",
"376 577 OFFCURVE",
"376 562 CURVE SMOOTH",
"376 541 OFFCURVE",
"395 519 OFFCURVE",
"418 519 CURVE SMOOTH",
"421 519 OFFCURVE",
"427 520 OFFCURVE",
"435 523 CURVE SMOOTH",
"623 600 LINE",
"623 82 LINE",
"254 82 LINE SMOOTH",
"227 82 OFFCURVE",
"212 63 OFFCURVE",
"212 42 CURVE SMOOTH",
"212 19 OFFCURVE",
"229 0 OFFCURVE",
"258 0 CURVE SMOOTH",
"1058 0 LINE SMOOTH",
"1083 0 OFFCURVE",
"1098 18 OFFCURVE",
"1098 41 CURVE SMOOTH",
"1098 62 OFFCURVE",
"1083 82 OFFCURVE",
"1059 82 CURVE SMOOTH",
"719 82 LINE"
);
}
);
width = 1240;
}
);
note = lslash;
unicode = 0142;
},
{
glyphname = m;
lastChange = "2016-08-11 21:18:16 +0000";
layers = (
{
layerId = "012FDA75-DADD-42E4-B1EF-A5A6AF7510CB";
paths = (
{
closed = 1;
nodes = (
"591 671 OFFCURVE",
"550 731 OFFCURVE",
"486 731 CURVE SMOOTH",
"457 731 OFFCURVE",
"430 720 OFFCURVE",
"403 699 CURVE SMOOTH",
"349 655 OFFCURVE",
"310 580 OFFCURVE",
"307 503 CURVE",
"307 82 LINE",
"392 82 LINE SMOOTH",
"423 82 OFFCURVE",
"440 63 OFFCURVE",
"440 42 CURVE SMOOTH",
"440 19 OFFCURVE",
"421 0 OFFCURVE",
"390 0 CURVE SMOOTH",
"107 0 LINE SMOOTH",
"78 0 OFFCURVE",
"61 20 OFFCURVE",
"61 43 CURVE SMOOTH",
"61 64 OFFCURVE",
"76 82 OFFCURVE",
"103 82 CURVE SMOOTH",
"211 82 LINE",
"211 709 LINE",
"103 687 LINE",
"96 685 OFFCURVE",
"90 684 OFFCURVE",
"83 684 CURVE SMOOTH",
"60 684 OFFCURVE",
"44 701 OFFCURVE",
"44 722 CURVE SMOOTH",
"44 741 OFFCURVE",
"54 758 OFFCURVE",
"77 763 CURVE SMOOTH",
"241 796 LINE",
"250 797 OFFCURVE",
"256 798 OFFCURVE",
"259 798 CURVE SMOOTH",
"284 798 OFFCURVE",
"297 785 OFFCURVE",
"298 759 CURVE SMOOTH",
"303 639 LINE",
"342 750 OFFCURVE",
"411 813 OFFCURVE",
"496 813 CURVE SMOOTH",
"575 813 OFFCURVE",
"642 759 OFFCURVE",
"671 654 CURVE",
"718 757 OFFCURVE",
"794 813 OFFCURVE",
"878 813 CURVE SMOOTH",
"914 813 OFFCURVE",
"946 803 OFFCURVE",
"975 782 CURVE SMOOTH",
"1031 741 OFFCURVE",
"1067 656 OFFCURVE",
"1067 533 CURVE SMOOTH",
"1067 82 LINE",
"1176 82 LINE SMOOTH",
"1201 82 OFFCURVE",
"1216 63 OFFCURVE",
"1216 42 CURVE SMOOTH",
"1216 19 OFFCURVE",
"1201 0 OFFCURVE",
"1174 0 CURVE SMOOTH",
"1017 0 LINE SMOOTH",
"988 0 OFFCURVE",
"971 20 OFFCURVE",
"971 43 CURVE SMOOTH",
"971 540 LINE SMOOTH",
"971 673 OFFCURVE",
"936 731 OFFCURVE",
"872 731 CURVE SMOOTH",
"843 731 OFFCURVE",
"815 721 OFFCURVE",
"786 700 CURVE SMOOTH",
"729 658 OFFCURVE",
"688 584 OFFCURVE",
"687 509 CURVE SMOOTH",
"687 82 LINE",
"805 82 LINE SMOOTH",
"830 82 OFFCURVE",
"845 63 OFFCURVE",
"845 42 CURVE SMOOTH",
"845 19 OFFCURVE",
"830 0 OFFCURVE",
"803 0 CURVE SMOOTH",
"637 0 LINE SMOOTH",
"608 0 OFFCURVE",
"591 20 OFFCURVE",
"591 43 CURVE SMOOTH",
"591 540 LINE SMOOTH"
);
}
);
width = 1240;
}
);
note = m;
unicode = 006D;
},
{
glyphname = n;
lastChange = "2016-08-11 21:18:16 +0000";
layers = (
{
layerId = "012FDA75-DADD-42E4-B1EF-A5A6AF7510CB";
paths = (
{
closed = 1;
nodes = (
"894 661 OFFCURVE",
"833 731 OFFCURVE",
"714 731 CURVE SMOOTH",
"653 731 OFFCURVE",
"599 719 OFFCURVE",
"550 696 CURVE SMOOTH",
"452 649 OFFCURVE",
"394 572 OFFCURVE",
"394 503 CURVE SMOOTH",
"394 82 LINE",
"499 82 LINE SMOOTH",
"530 82 OFFCURVE",
"547 63 OFFCURVE",
"547 42 CURVE SMOOTH",
"547 19 OFFCURVE",
"528 0 OFFCURVE",
"497 0 CURVE SMOOTH",
"194 0 LINE SMOOTH",
"165 0 OFFCURVE",
"148 20 OFFCURVE",
"148 43 CURVE SMOOTH",
"148 64 OFFCURVE",
"163 82 OFFCURVE",
"190 82 CURVE SMOOTH",
"298 82 LINE",
"298 709 LINE",
"190 687 LINE",
"183 685 OFFCURVE",
"177 684 OFFCURVE",
"170 684 CURVE SMOOTH",
"147 684 OFFCURVE",
"131 701 OFFCURVE",
"131 722 CURVE SMOOTH",
"131 741 OFFCURVE",
"141 758 OFFCURVE",
"164 763 CURVE SMOOTH",
"328 796 LINE",
"337 797 OFFCURVE",
"343 798 OFFCURVE",
"346 798 CURVE SMOOTH",
"371 798 OFFCURVE",
"384 785 OFFCURVE",
"385 759 CURVE SMOOTH",
"390 639 LINE",
"407 672 OFFCURVE",
"431 701 OFFCURVE",
"464 728 CURVE SMOOTH",
"529 780 OFFCURVE",
"618 813 OFFCURVE",
"709 813 CURVE SMOOTH",
"897 813 OFFCURVE",
"990 712 OFFCURVE",
"990 533 CURVE SMOOTH",
"990 82 LINE",
"1099 82 LINE SMOOTH",
"1124 82 OFFCURVE",
"1139 63 OFFCURVE",
"1139 42 CURVE SMOOTH",
"1139 19 OFFCURVE",
"1124 0 OFFCURVE",
"1097 0 CURVE SMOOTH",
"752 0 LINE SMOOTH",
"723 0 OFFCURVE",
"706 20 OFFCURVE",
"706 43 CURVE SMOOTH",
"706 64 OFFCURVE",
"721 82 OFFCURVE",
"748 82 CURVE SMOOTH",
"894 82 LINE",
"894 540 LINE SMOOTH"
);
}
);
width = 1240;
}
);
note = n;
unicode = 006E;
},
{
glyphname = eng;
lastChange = "2016-08-11 21:18:16 +0000";
layers = (
{
layerId = "012FDA75-DADD-42E4-B1EF-A5A6AF7510CB";
paths = (
{
closed = 1;
nodes = (
"1012 -68 OFFCURVE",
"986 -121 OFFCURVE",
"934 -166 CURVE SMOOTH",
"829 -258 OFFCURVE",
"652 -308 OFFCURVE",
"484 -308 CURVE SMOOTH",
"453 -308 OFFCURVE",
"433 -288 OFFCURVE",
"433 -264 CURVE SMOOTH",
"433 -240 OFFCURVE",
"455 -219 OFFCURVE",
"491 -219 CURVE SMOOTH",
"554 -219 OFFCURVE",
"619 -211 OFFCURVE",
"685 -195 CURVE SMOOTH",
"816 -163 OFFCURVE",
"916 -96 OFFCURVE",
"916 1 CURVE SMOOTH",
"916 540 LINE SMOOTH",
"916 661 OFFCURVE",
"855 731 OFFCURVE",
"736 731 CURVE SMOOTH",
"675 731 OFFCURVE",
"621 719 OFFCURVE",
"572 696 CURVE SMOOTH",
"474 649 OFFCURVE",
"416 572 OFFCURVE",
"416 503 CURVE SMOOTH",
"416 82 LINE",
"521 82 LINE SMOOTH",
"552 82 OFFCURVE",
"569 63 OFFCURVE",
"569 42 CURVE SMOOTH",
"569 19 OFFCURVE",
"550 0 OFFCURVE",
"519 0 CURVE SMOOTH",
"216 0 LINE SMOOTH",
"187 0 OFFCURVE",
"170 20 OFFCURVE",
"170 43 CURVE SMOOTH",
"170 64 OFFCURVE",
"185 82 OFFCURVE",
"212 82 CURVE SMOOTH",
"320 82 LINE",
"320 709 LINE",
"212 687 LINE",
"205 685 OFFCURVE",
"198 684 OFFCURVE",
"192 684 CURVE SMOOTH",
"169 684 OFFCURVE",
"153 701 OFFCURVE",
"153 722 CURVE SMOOTH",
"153 741 OFFCURVE",
"163 758 OFFCURVE",
"186 763 CURVE SMOOTH",
"350 796 LINE",
"359 797 OFFCURVE",
"365 798 OFFCURVE",
"368 798 CURVE SMOOTH",
"393 798 OFFCURVE",
"406 785 OFFCURVE",
"407 759 CURVE SMOOTH",
"412 639 LINE",
"429 672 OFFCURVE",
"453 701 OFFCURVE",
"486 728 CURVE SMOOTH",
"551 780 OFFCURVE",
"640 813 OFFCURVE",
"731 813 CURVE SMOOTH",
"919 813 OFFCURVE",
"1012 712 OFFCURVE",
"1012 533 CURVE SMOOTH",
"1012 -9 LINE SMOOTH"
);
}
);
width = 1240;
}
);
note = eng;
unicode = 014B;
},
{
glyphname = o;
lastChange = "2016-08-11 21:18:16 +0000";
layers = (
{
layerId = "012FDA75-DADD-42E4-B1EF-A5A6AF7510CB";
paths = (
{
closed = 1;
nodes = (
"196 482 OFFCURVE",
"214 555 OFFCURVE",
"249 618 CURVE SMOOTH",
"320 743 OFFCURVE",
"452 813 OFFCURVE",
"620 813 CURVE SMOOTH",
"704 813 OFFCURVE",
"778 796 OFFCURVE",
"842 763 CURVE SMOOTH",
"970 695 OFFCURVE",
"1044 566 OFFCURVE",
"1044 398 CURVE SMOOTH",
"1044 315 OFFCURVE",
"1026 242 OFFCURVE",
"991 179 CURVE SMOOTH",
"920 54 OFFCURVE",
"788 -17 OFFCURVE",
"620 -17 CURVE SMOOTH",
"536 -17 OFFCURVE",
"462 0 OFFCURVE",
"398 34 CURVE SMOOTH",
"270 102 OFFCURVE",
"196 231 OFFCURVE",
"196 398 CURVE SMOOTH"
);
},
{
closed = 1;
nodes = (
"304 333 OFFCURVE",
"317 275 OFFCURVE",
"342 225 CURVE SMOOTH",
"392 124 OFFCURVE",
"489 65 OFFCURVE",
"620 65 CURVE SMOOTH",
"685 65 OFFCURVE",
"742 79 OFFCURVE",
"790 107 CURVE SMOOTH",
"885 163 OFFCURVE",
"936 267 OFFCURVE",
"936 398 CURVE SMOOTH",
"936 463 OFFCURVE",
"924 520 OFFCURVE",
"899 571 CURVE SMOOTH",
"849 671 OFFCURVE",
"751 731 OFFCURVE",
"620 731 CURVE SMOOTH",
"555 731 OFFCURVE",
"498 717 OFFCURVE",
"451 689 CURVE SMOOTH",
"355 632 OFFCURVE",
"304 527 OFFCURVE",
"304 398 CURVE SMOOTH"
);
}
);
width = 1240;
}
);
note = o;
unicode = 006F;
},
{
glyphname = oslash;
lastChange = "2016-08-11 21:18:16 +0000";
layers = (
{
layerId = "012FDA75-DADD-42E4-B1EF-A5A6AF7510CB";
paths = (
{
closed = 1;
nodes = (
"893 892 OFFCURVE",
"894 896 OFFCURVE",
"894 900 CURVE SMOOTH",
"894 921 OFFCURVE",
"881 934 OFFCURVE",
"861 934 CURVE SMOOTH",
"848 934 OFFCURVE",
"839 928 OFFCURVE",
"834 917 CURVE SMOOTH",
"774 791 LINE",
"725 806 OFFCURVE",
"673 813 OFFCURVE",
"620 813 CURVE SMOOTH",
"536 813 OFFCURVE",
"462 796 OFFCURVE",
"398 763 CURVE SMOOTH",
"270 695 OFFCURVE",
"196 566 OFFCURVE",
"196 398 CURVE SMOOTH",
"196 226 OFFCURVE",
"276 94 OFFCURVE",
"409 29 CURVE",
"350 -95 LINE SMOOTH",
"348 -99 OFFCURVE",
"347 -103 OFFCURVE",
"347 -108 CURVE SMOOTH",
"347 -129 OFFCURVE",
"360 -142 OFFCURVE",
"380 -142 CURVE SMOOTH",
"393 -142 OFFCURVE",
"403 -135 OFFCURVE",
"410 -121 CURVE SMOOTH",
"470 5 LINE",
"515 -10 OFFCURVE",
"565 -17 OFFCURVE",
"620 -17 CURVE SMOOTH",
"704 -17 OFFCURVE",
"778 0 OFFCURVE",
"842 34 CURVE SMOOTH",
"970 102 OFFCURVE",
"1044 231 OFFCURVE",
"1044 398 CURVE SMOOTH",
"1044 570 OFFCURVE",
"966 700 OFFCURVE",
"833 767 CURVE",
"891 888 LINE SMOOTH"
);
},
{
closed = 1;
nodes = (
"304 463 OFFCURVE",
"317 520 OFFCURVE",
"342 571 CURVE SMOOTH",
"392 671 OFFCURVE",
"489 731 OFFCURVE",
"620 731 CURVE SMOOTH",
"663 731 OFFCURVE",
"702 725 OFFCURVE",
"736 713 CURVE",
"447 109 LINE",
"355 164 OFFCURVE",
"304 269 OFFCURVE",
"304 398 CURVE SMOOTH"
);
},
{
closed = 1;
nodes = (
"580 65 OFFCURVE",
"542 71 OFFCURVE",
"507 82 CURVE",
"795 686 LINE",
"886 630 OFFCURVE",
"936 526 OFFCURVE",
"936 398 CURVE SMOOTH",
"936 333 OFFCURVE",
"924 275 OFFCURVE",
"899 225 CURVE SMOOTH",
"849 124 OFFCURVE",
"751 65 OFFCURVE",
"620 65 CURVE SMOOTH"
);
}
);
width = 1240;
}
);
note = oslash;
unicode = 00F8;
},
{
glyphname = oe;
lastChange = "2016-08-11 21:18:16 +0000";
layers = (
{
layerId = "012FDA75-DADD-42E4-B1EF-A5A6AF7510CB";
paths = (
{
closed = 1;
nodes = (
"925 812 OFFCURVE",
"965 800 OFFCURVE",
"1003 775 CURVE SMOOTH",
"1078 725 OFFCURVE",
"1128 623 OFFCURVE",
"1128 479 CURVE SMOOTH",
"1128 428 OFFCURVE",
"1098 392 OFFCURVE",
"1051 392 CURVE SMOOTH",
"675 387 LINE",
"677 318 OFFCURVE",
"688 259 OFFCURVE",
"708 210 CURVE SMOOTH",
"748 112 OFFCURVE",
"815 61 OFFCURVE",
"890 61 CURVE SMOOTH",
"953 61 OFFCURVE",
"1016 95 OFFCURVE",
"1071 162 CURVE SMOOTH",
"1077 169 OFFCURVE",
"1085 172 OFFCURVE",
"1094 172 CURVE SMOOTH",
"1114 172 OFFCURVE",
"1136 157 OFFCURVE",
"1136 137 CURVE SMOOTH",
"1136 128 OFFCURVE",
"1131 117 OFFCURVE",
"1121 105 CURVE",
"1052 28 OFFCURVE",
"973 -10 OFFCURVE",
"886 -10 CURVE SMOOTH",
"766 -10 OFFCURVE",
"675 53 OFFCURVE",
"631 205 CURVE",
"584 58 OFFCURVE",
"486 -10 OFFCURVE",
"378 -10 CURVE SMOOTH",
"329 -10 OFFCURVE",
"284 6 OFFCURVE",
"242 37 CURVE SMOOTH",
"157 99 OFFCURVE",
"99 225 OFFCURVE",
"99 398 CURVE SMOOTH",
"99 485 OFFCURVE",
"112 559 OFFCURVE",
"139 621 CURVE SMOOTH",
"192 744 OFFCURVE",
"284 807 OFFCURVE",
"383 807 CURVE SMOOTH",
"494 807 OFFCURVE",
"590 739 OFFCURVE",
"629 587 CURVE",
"673 740 OFFCURVE",
"773 812 OFFCURVE",
"882 812 CURVE SMOOTH"
);
},
{
closed = 1;
nodes = (
"849 732 OFFCURVE",
"822 721 OFFCURVE",
"796 700 CURVE SMOOTH",
"743 657 OFFCURVE",
"699 573 OFFCURVE",
"678 456 CURVE",
"1043 460 LINE",
"1043 517 OFFCURVE",
"1035 566 OFFCURVE",
"1020 607 CURVE SMOOTH",
"988 689 OFFCURVE",
"934 732 OFFCURVE",
"877 732 CURVE SMOOTH"
);
},
{
closed = 1;
nodes = (
"425 72 OFFCURVE",
"455 85 OFFCURVE",
"484 110 CURVE SMOOTH",
"540 160 OFFCURVE",
"579 259 OFFCURVE",
"579 398 CURVE SMOOTH",
"579 467 OFFCURVE",
"570 527 OFFCURVE",
"553 576 CURVE SMOOTH",
"517 674 OFFCURVE",
"457 723 OFFCURVE",
"393 723 CURVE SMOOTH",
"361 723 OFFCURVE",
"331 711 OFFCURVE",
"303 686 CURVE SMOOTH",
"246 637 OFFCURVE",
"207 537 OFFCURVE",
"207 398 CURVE SMOOTH",
"207 329 OFFCURVE",
"216 270 OFFCURVE",
"234 221 CURVE SMOOTH",
"269 123 OFFCURVE",
"329 72 OFFCURVE",
"393 72 CURVE SMOOTH"
);
}
);
width = 1240;
}
);
note = oe;
unicode = 0153;
},
{
glyphname = p;
lastChange = "2016-08-11 21:18:16 +0000";
layers = (
{
layerId = "012FDA75-DADD-42E4-B1EF-A5A6AF7510CB";
paths = (
{
closed = 1;
nodes = (
"470 762 OFFCURVE",
"574 813 OFFCURVE",
"693 813 CURVE SMOOTH",
"770 813 OFFCURVE",
"836 795 OFFCURVE",
"893 760 CURVE SMOOTH",
"1005 689 OFFCURVE",
"1067 559 OFFCURVE",
"1067 398 CURVE SMOOTH",
"1067 319 OFFCURVE",
"1052 248 OFFCURVE",
"1021 185 CURVE SMOOTH",
"960 59 OFFCURVE",
"842 -17 OFFCURVE",
"689 -17 CURVE SMOOTH",
"568 -17 OFFCURVE",
"485 20 OFFCURVE",
"405 89 CURVE",
"405 -288 LINE",
"621 -288 LINE SMOOTH",
"648 -288 OFFCURVE",
"663 -306 OFFCURVE",
"663 -327 CURVE SMOOTH",
"663 -350 OFFCURVE",
"646 -370 OFFCURVE",
"617 -370 CURVE SMOOTH",
"221 -370 LINE SMOOTH",
"194 -370 OFFCURVE",
"179 -351 OFFCURVE",
"179 -328 CURVE SMOOTH",
"179 -307 OFFCURVE",
"194 -288 OFFCURVE",
"219 -288 CURVE SMOOTH",
"309 -288 LINE",
"309 708 LINE",
"201 687 LINE SMOOTH",
"196 686 OFFCURVE",
"189 684 OFFCURVE",
"181 684 CURVE SMOOTH",
"158 684 OFFCURVE",
"142 701 OFFCURVE",
"142 722 CURVE SMOOTH",
"142 741 OFFCURVE",
"152 758 OFFCURVE",
"175 763 CURVE SMOOTH",
"339 796 LINE",
"348 797 OFFCURVE",
"354 798 OFFCURVE",
"357 798 CURVE SMOOTH",
"382 798 OFFCURVE",
"395 785 OFFCURVE",
"396 759 CURVE SMOOTH",
"399 690 LINE"
);
},
{
closed = 1;
nodes = (
"744 65 OFFCURVE",
"797 80 OFFCURVE",
"840 110 CURVE SMOOTH",
"927 170 OFFCURVE",
"971 277 OFFCURVE",
"971 398 CURVE SMOOTH",
"971 459 OFFCURVE",
"960 515 OFFCURVE",
"939 566 CURVE SMOOTH",
"896 666 OFFCURVE",
"811 731 OFFCURVE",
"691 731 CURVE SMOOTH",
"563 731 OFFCURVE",
"468 675 OFFCURVE",
"405 586 CURVE",
"405 194 LINE",
"474 108 OFFCURVE",
"566 65 OFFCURVE",
"683 65 CURVE SMOOTH"
);
}
);
width = 1240;
}
);
note = p;
unicode = 0070;
},
{
glyphname = thorn;
lastChange = "2016-08-11 21:18:16 +0000";
layers = (
{
layerId = "012FDA75-DADD-42E4-B1EF-A5A6AF7510CB";
paths = (
{
closed = 1;
nodes = (
"394 1182 OFFCURVE",
"409 1170 OFFCURVE",
"409 1150 CURVE SMOOTH",
"409 690 LINE",
"481 763 OFFCURVE",
"578 813 OFFCURVE",
"697 813 CURVE SMOOTH",
"774 813 OFFCURVE",
"840 795 OFFCURVE",
"897 760 CURVE SMOOTH",
"1009 689 OFFCURVE",
"1071 559 OFFCURVE",
"1071 398 CURVE SMOOTH",
"1071 319 OFFCURVE",
"1056 248 OFFCURVE",
"1025 185 CURVE SMOOTH",
"964 59 OFFCURVE",
"846 -17 OFFCURVE",
"693 -17 CURVE SMOOTH",
"572 -17 OFFCURVE",
"489 20 OFFCURVE",
"409 89 CURVE",
"409 -288 LINE",
"625 -288 LINE SMOOTH",
"652 -288 OFFCURVE",
"667 -306 OFFCURVE",
"667 -327 CURVE SMOOTH",
"667 -350 OFFCURVE",
"650 -370 OFFCURVE",
"621 -370 CURVE SMOOTH",
"225 -370 LINE SMOOTH",
"198 -370 OFFCURVE",
"183 -351 OFFCURVE",
"183 -328 CURVE SMOOTH",
"183 -307 OFFCURVE",
"198 -288 OFFCURVE",
"223 -288 CURVE SMOOTH",
"313 -288 LINE",
"313 1082 LINE",
"144 1058 LINE",
"136 1057 LINE",
"111 1057 OFFCURVE",
"96 1076 OFFCURVE",
"96 1099 CURVE SMOOTH",
"96 1119 OFFCURVE",
"107 1136 OFFCURVE",
"128 1139 CURVE",
"362 1181 LINE",
"373 1182 LINE"
);
},
{
closed = 1;
nodes = (
"748 65 OFFCURVE",
"801 80 OFFCURVE",
"844 110 CURVE SMOOTH",
"931 170 OFFCURVE",
"975 277 OFFCURVE",
"975 398 CURVE SMOOTH",
"975 459 OFFCURVE",
"964 515 OFFCURVE",
"943 566 CURVE SMOOTH",
"900 666 OFFCURVE",
"815 731 OFFCURVE",
"695 731 CURVE SMOOTH",
"567 731 OFFCURVE",
"472 675 OFFCURVE",
"409 586 CURVE",
"409 194 LINE",
"478 108 OFFCURVE",
"570 65 OFFCURVE",
"687 65 CURVE SMOOTH"
);
}
);
width = 1240;
}
);
note = thorn;
unicode = 00FE;
},
{
glyphname = q;
lastChange = "2016-08-11 21:18:16 +0000";
layers = (
{
layerId = "012FDA75-DADD-42E4-B1EF-A5A6AF7510CB";
paths = (
{
closed = 1;
nodes = (
"1048 -288 LINE SMOOTH",
"1073 -288 OFFCURVE",
"1088 -307 OFFCURVE",
"1088 -328 CURVE SMOOTH",
"1088 -351 OFFCURVE",
"1073 -370 OFFCURVE",
"1046 -370 CURVE SMOOTH",
"650 -370 LINE SMOOTH",
"621 -370 OFFCURVE",
"604 -350 OFFCURVE",
"604 -327 CURVE SMOOTH",
"604 -306 OFFCURVE",
"619 -288 OFFCURVE",
"646 -288 CURVE SMOOTH",
"862 -288 LINE",
"862 89 LINE",
"782 20 OFFCURVE",
"699 -17 OFFCURVE",
"578 -17 CURVE SMOOTH",
"501 -17 OFFCURVE",
"435 1 OFFCURVE",
"378 37 CURVE SMOOTH",
"264 108 OFFCURVE",
"200 239 OFFCURVE",
"200 398 CURVE SMOOTH",
"200 479 OFFCURVE",
"215 550 OFFCURVE",
"245 613 CURVE SMOOTH",
"305 738 OFFCURVE",
"421 813 OFFCURVE",
"574 813 CURVE SMOOTH",
"694 813 OFFCURVE",
"797 765 OFFCURVE",
"866 694 CURVE",
"866 726 OFFCURVE",
"868 750 OFFCURVE",
"873 765 CURVE",
"882 796 OFFCURVE",
"896 800 OFFCURVE",
"917 800 CURVE SMOOTH",
"930 800 OFFCURVE",
"940 795 OFFCURVE",
"947 785 CURVE SMOOTH",
"954 775 OFFCURVE",
"958 755 OFFCURVE",
"958 724 CURVE SMOOTH",
"958 -288 LINE"
);
},
{
closed = 1;
nodes = (
"516 731 OFFCURVE",
"465 716 OFFCURVE",
"423 686 CURVE SMOOTH",
"339 626 OFFCURVE",
"296 521 OFFCURVE",
"296 398 CURVE SMOOTH",
"296 337 OFFCURVE",
"307 282 OFFCURVE",
"329 231 CURVE SMOOTH",
"373 130 OFFCURVE",
"461 65 OFFCURVE",
"584 65 CURVE SMOOTH",
"701 65 OFFCURVE",
"793 108 OFFCURVE",
"862 194 CURVE",
"862 586 LINE",
"799 675 OFFCURVE",
"704 731 OFFCURVE",
"576 731 CURVE SMOOTH"
);
}
);
width = 1240;
}
);
note = q;
unicode = 0071;
},
{
glyphname = r;
lastChange = "2016-08-11 21:18:16 +0000";
layers = (
{
layerId = "012FDA75-DADD-42E4-B1EF-A5A6AF7510CB";
paths = (
{
closed = 1;
nodes = (
"741 731 OFFCURVE",
"593 659 OFFCURVE",
"540 526 CURVE",
"540 82 LINE",
"876 82 LINE SMOOTH",
"901 82 OFFCURVE",
"916 64 OFFCURVE",
"916 41 CURVE SMOOTH",
"916 20 OFFCURVE",
"900 0 OFFCURVE",
"875 0 CURVE SMOOTH",
"265 0 LINE SMOOTH",
"236 0 OFFCURVE",
"219 19 OFFCURVE",
"219 42 CURVE SMOOTH",
"219 63 OFFCURVE",
"234 82 OFFCURVE",
"261 82 CURVE SMOOTH",
"444 82 LINE",
"444 709 LINE",
"322 684 LINE",
"319 683 OFFCURVE",
"315 683 OFFCURVE",
"310 683 CURVE SMOOTH",
"285 683 OFFCURVE",
"270 702 OFFCURVE",
"270 723 CURVE SMOOTH",
"270 742 OFFCURVE",
"281 757 OFFCURVE",
"300 761 CURVE SMOOTH",
"471 795 LINE SMOOTH",
"480 797 OFFCURVE",
"487 798 OFFCURVE",
"494 798 CURVE SMOOTH",
"523 798 OFFCURVE",
"531 779 OFFCURVE",
"532 742 CURVE SMOOTH",
"536 638 LINE",
"612 755 OFFCURVE",
"743 813 OFFCURVE",
"928 813 CURVE SMOOTH",
"992 813 OFFCURVE",
"1016 793 OFFCURVE",
"1016 753 CURVE SMOOTH",
"1016 615 LINE SMOOTH",
"1016 579 OFFCURVE",
"994 559 OFFCURVE",
"967 559 CURVE SMOOTH",
"942 559 OFFCURVE",
"920 578 OFFCURVE",
"920 611 CURVE SMOOTH",
"920 731 LINE"
);
}
);
width = 1240;
}
);
note = r;
unicode = 0072;
},
{
glyphname = s;
lastChange = "2016-08-11 21:18:16 +0000";
layers = (
{
layerId = "012FDA75-DADD-42E4-B1EF-A5A6AF7510CB";
paths = (
{
closed = 1;
nodes = (
"287 750 OFFCURVE",
"426 813 OFFCURVE",
"609 813 CURVE SMOOTH",
"725 813 OFFCURVE",
"848 773 OFFCURVE",
"888 721 CURVE",
"888 758 LINE",
"887 789 OFFCURVE",
"907 808 OFFCURVE",
"930 808 CURVE SMOOTH",
"953 808 OFFCURVE",
"971 790 OFFCURVE",
"971 759 CURVE SMOOTH",
"969 558 LINE",
"966 533 OFFCURVE",
"956 521 OFFCURVE",
"929 521 CURVE SMOOTH",
"912 521 OFFCURVE",
"902 527 OFFCURVE",
"897 540 CURVE SMOOTH",
"892 553 OFFCURVE",
"890 575 OFFCURVE",
"889 606 CURVE",
"853 690 OFFCURVE",
"747 731 OFFCURVE",
"602 731 CURVE SMOOTH",
"461 731 OFFCURVE",
"390 688 OFFCURVE",
"390 601 CURVE SMOOTH",
"390 540 OFFCURVE",
"422 503 OFFCURVE",
"517 482 CURVE SMOOTH",
"776 430 LINE SMOOTH",
"905 405 OFFCURVE",
"978 345 OFFCURVE",
"978 208 CURVE SMOOTH",
"978 59 OFFCURVE",
"851 -17 OFFCURVE",
"652 -17 CURVE SMOOTH",
"527 -17 OFFCURVE",
"415 18 OFFCURVE",
"342 102 CURVE",
"342 42 LINE SMOOTH",
"342 14 OFFCURVE",
"326 0 OFFCURVE",
"306 0 CURVE SMOOTH",
"285 0 OFFCURVE",
"266 16 OFFCURVE",
"266 39 CURVE SMOOTH",
"268 265 LINE SMOOTH",
"268 300 OFFCURVE",
"285 317 OFFCURVE",
"304 317 CURVE SMOOTH",
"327 317 OFFCURVE",
"340 308 OFFCURVE",
"340 265 CURVE SMOOTH",
"340 228 OFFCURVE",
"354 194 OFFCURVE",
"381 163 CURVE SMOOTH",
"435 102 OFFCURVE",
"533 65 OFFCURVE",
"646 65 CURVE SMOOTH",
"798 65 OFFCURVE",
"881 112 OFFCURVE",
"881 209 CURVE SMOOTH",
"881 277 OFFCURVE",
"848 319 OFFCURVE",
"763 335 CURVE SMOOTH",
"497 387 LINE SMOOTH",
"364 412 OFFCURVE",
"287 474 OFFCURVE",
"287 586 CURVE SMOOTH"
);
}
);
width = 1240;
}
);
note = s;
unicode = 0073;
},
{
glyphname = scedilla;
lastChange = "2016-08-11 21:18:16 +0000";
layers = (
{
layerId = "012FDA75-DADD-42E4-B1EF-A5A6AF7510CB";
paths = (
{
closed = 1;
nodes = (
"978 345 OFFCURVE",
"905 405 OFFCURVE",
"776 430 CURVE SMOOTH",
"517 482 LINE SMOOTH",
"422 503 OFFCURVE",
"390 540 OFFCURVE",
"390 601 CURVE SMOOTH",
"390 688 OFFCURVE",
"461 731 OFFCURVE",
"602 731 CURVE SMOOTH",
"747 731 OFFCURVE",
"853 690 OFFCURVE",
"889 606 CURVE",
"890 575 OFFCURVE",
"892 553 OFFCURVE",
"897 540 CURVE SMOOTH",
"902 527 OFFCURVE",
"912 521 OFFCURVE",
"929 521 CURVE SMOOTH",
"956 521 OFFCURVE",
"966 533 OFFCURVE",
"969 558 CURVE",
"971 759 LINE SMOOTH",
"971 790 OFFCURVE",
"953 808 OFFCURVE",
"930 808 CURVE SMOOTH",
"907 808 OFFCURVE",
"887 789 OFFCURVE",
"888 758 CURVE SMOOTH",
"888 721 LINE",
"848 773 OFFCURVE",
"725 813 OFFCURVE",
"609 813 CURVE SMOOTH",
"426 813 OFFCURVE",
"287 750 OFFCURVE",
"287 586 CURVE SMOOTH",
"287 474 OFFCURVE",
"364 412 OFFCURVE",
"497 387 CURVE SMOOTH",
"763 335 LINE SMOOTH",
"848 319 OFFCURVE",
"881 277 OFFCURVE",
"881 209 CURVE SMOOTH",
"881 112 OFFCURVE",
"798 65 OFFCURVE",
"646 65 CURVE SMOOTH",
"589 65 OFFCURVE",
"538 74 OFFCURVE",
"491 91 CURVE SMOOTH",
"398 126 OFFCURVE",
"340 190 OFFCURVE",
"340 265 CURVE SMOOTH",
"340 308 OFFCURVE",
"327 317 OFFCURVE",
"304 317 CURVE SMOOTH",
"285 317 OFFCURVE",
"268 300 OFFCURVE",
"268 265 CURVE SMOOTH",
"266 39 LINE SMOOTH",
"266 16 OFFCURVE",
"285 0 OFFCURVE",
"306 0 CURVE SMOOTH",
"326 0 OFFCURVE",
"342 14 OFFCURVE",
"342 42 CURVE SMOOTH",
"342 102 LINE",
"406 29 OFFCURVE",
"499 -10 OFFCURVE",
"620 -16 CURVE",
"517 -310 LINE SMOOTH",
"512 -326 OFFCURVE",
"509 -340 OFFCURVE",
"509 -351 CURVE SMOOTH",
"509 -384 OFFCURVE",
"527 -405 OFFCURVE",
"558 -405 CURVE SMOOTH",
"587 -405 OFFCURVE",
"613 -381 OFFCURVE",
"620 -325 CURVE SMOOTH",
"659 -17 LINE",
"854 -14 OFFCURVE",
"978 60 OFFCURVE",
"978 208 CURVE SMOOTH"
);
}
);
width = 1240;
}
);
note = scedilla;
unicode = 015F;
},
{
glyphname = germandbls;
lastChange = "2016-08-11 21:18:16 +0000";
layers = (
{
layerId = "012FDA75-DADD-42E4-B1EF-A5A6AF7510CB";
paths = (
{
closed = 1;
nodes = (
"671 1188 OFFCURVE",
"723 1176 OFFCURVE",
"771 1153 CURVE SMOOTH",
"866 1106 OFFCURVE",
"928 1015 OFFCURVE",
"928 894 CURVE SMOOTH",
"928 852 OFFCURVE",
"918 814 OFFCURVE",
"898 779 CURVE SMOOTH",
"857 710 OFFCURVE",
"790 662 OFFCURVE",
"725 643 CURVE",
"913 606 OFFCURVE",
"1052 511 OFFCURVE",
"1052 318 CURVE SMOOTH",
"1052 139 OFFCURVE",
"943 33 OFFCURVE",
"724 0 CURVE",
"721 -1 OFFCURVE",
"716 -1 OFFCURVE",
"710 -1 CURVE SMOOTH",
"681 -1 OFFCURVE",
"663 16 OFFCURVE",
"663 44 CURVE SMOOTH",
"663 57 OFFCURVE",
"667 66 OFFCURVE",
"675 70 CURVE SMOOTH",
"683 74 OFFCURVE",
"699 78 OFFCURVE",
"724 82 CURVE SMOOTH",
"861 103 OFFCURVE",
"954 167 OFFCURVE",
"954 320 CURVE SMOOTH",
"954 384 OFFCURVE",
"936 436 OFFCURVE",
"901 477 CURVE SMOOTH",
"829 557 OFFCURVE",
"711 591 OFFCURVE",
"579 591 CURVE SMOOTH",
"548 591 OFFCURVE",
"532 612 OFFCURVE",
"532 636 CURVE SMOOTH",
"532 660 OFFCURVE",
"548 677 OFFCURVE",
"579 677 CURVE SMOOTH",
"618 677 OFFCURVE",
"657 685 OFFCURVE",
"697 702 CURVE SMOOTH",
"776 734 OFFCURVE",
"835 802 OFFCURVE",
"835 898 CURVE SMOOTH",
"835 1027 OFFCURVE",
"748 1106 OFFCURVE",
"619 1106 CURVE SMOOTH",
"463 1106 OFFCURVE",
"370 994 OFFCURVE",
"370 706 CURVE SMOOTH",
"370 82 LINE",
"526 82 LINE SMOOTH",
"562 82 OFFCURVE",
"575 71 OFFCURVE",
"575 38 CURVE SMOOTH",
"575 10 OFFCURVE",
"559 0 OFFCURVE",
"524 0 CURVE SMOOTH",
"145 0 LINE SMOOTH",
"110 0 OFFCURVE",
"94 10 OFFCURVE",
"94 38 CURVE SMOOTH",
"94 71 OFFCURVE",
"107 82 OFFCURVE",
"143 82 CURVE SMOOTH",
"274 82 LINE",
"274 700 LINE SMOOTH",
"274 1055 OFFCURVE",
"413 1188 OFFCURVE",
"614 1188 CURVE SMOOTH"
);
}
);
width = 1240;
}
);
note = germandbls;
unicode = 00DF;
},
{
glyphname = t;
lastChange = "2016-08-11 21:18:16 +0000";
layers = (
{
layerId = "012FDA75-DADD-42E4-B1EF-A5A6AF7510CB";
paths = (
{
closed = 1;
nodes = (
"505 204 LINE SMOOTH",
"505 108 OFFCURVE",
"574 65 OFFCURVE",
"677 65 CURVE SMOOTH",
"770 65 OFFCURVE",
"882 102 OFFCURVE",
"946 150 CURVE",
"949 153 OFFCURVE",
"952 154 OFFCURVE",
"957 154 CURVE SMOOTH",
"976 154 OFFCURVE",
"999 126 OFFCURVE",
"999 103 CURVE SMOOTH",
"999 98 OFFCURVE",
"997 93 OFFCURVE",
"994 88 CURVE",
"980 71 OFFCURVE",
"956 55 OFFCURVE",
"922 39 CURVE SMOOTH",
"853 6 OFFCURVE",
"756 -17 OFFCURVE",
"667 -17 CURVE SMOOTH",
"622 -17 OFFCURVE",
"579 -8 OFFCURVE",
"540 9 CURVE SMOOTH",
"460 43 OFFCURVE",
"409 104 OFFCURVE",
"409 169 CURVE SMOOTH",
"409 692 LINE",
"266 692 LINE SMOOTH",
"237 692 OFFCURVE",
"220 712 OFFCURVE",
"220 735 CURVE SMOOTH",
"220 756 OFFCURVE",
"235 774 OFFCURVE",
"262 774 CURVE SMOOTH",
"409 774 LINE",
"409 857 OFFCURVE",
"410 917 OFFCURVE",
"412 953 CURVE SMOOTH",
"416 1025 OFFCURVE",
"430 1058 OFFCURVE",
"469 1058 CURVE SMOOTH",
"498 1058 OFFCURVE",
"505 1042 OFFCURVE",
"505 1013 CURVE SMOOTH",
"505 774 LINE",
"877 774 LINE SMOOTH",
"901 774 OFFCURVE",
"916 754 OFFCURVE",
"916 733 CURVE SMOOTH",
"916 710 OFFCURVE",
"901 692 OFFCURVE",
"876 692 CURVE SMOOTH",
"505 692 LINE"
);
}
);
width = 1240;
}
);
note = t;
unicode = 0074;
},
{
glyphname = tbar;
lastChange = "2016-08-11 21:18:16 +0000";
layers = (
{
layerId = "012FDA75-DADD-42E4-B1EF-A5A6AF7510CB";
paths = (
{
closed = 1;
nodes = (
"952 154 OFFCURVE",
"949 153 OFFCURVE",
"946 150 CURVE",
"882 102 OFFCURVE",
"770 65 OFFCURVE",
"677 65 CURVE SMOOTH",
"574 65 OFFCURVE",
"505 108 OFFCURVE",
"505 204 CURVE SMOOTH",
"505 428 LINE",
"763 428 LINE SMOOTH",
"790 428 OFFCURVE",
"804 441 OFFCURVE",
"804 467 CURVE SMOOTH",
"804 490 OFFCURVE",
"796 504 OFFCURVE",
"765 504 CURVE SMOOTH",
"505 504 LINE",
"505 692 LINE",
"876 692 LINE SMOOTH",
"901 692 OFFCURVE",
"916 710 OFFCURVE",
"916 733 CURVE SMOOTH",
"916 754 OFFCURVE",
"901 774 OFFCURVE",
"877 774 CURVE SMOOTH",
"505 774 LINE",
"505 1013 LINE SMOOTH",
"505 1042 OFFCURVE",
"498 1058 OFFCURVE",
"469 1058 CURVE SMOOTH",
"430 1058 OFFCURVE",
"416 1025 OFFCURVE",
"412 953 CURVE SMOOTH",
"410 917 OFFCURVE",
"409 857 OFFCURVE",
"409 774 CURVE",
"262 774 LINE SMOOTH",
"235 774 OFFCURVE",
"220 756 OFFCURVE",
"220 735 CURVE SMOOTH",
"220 712 OFFCURVE",
"237 692 OFFCURVE",
"266 692 CURVE SMOOTH",
"409 692 LINE",
"409 504 LINE",
"316 504 LINE SMOOTH",
"288 504 OFFCURVE",
"274 492 OFFCURVE",
"274 467 CURVE SMOOTH",
"274 441 OFFCURVE",
"289 428 OFFCURVE",
"320 428 CURVE SMOOTH",
"409 428 LINE",
"409 169 LINE SMOOTH",
"409 136 OFFCURVE",
"421 106 OFFCURVE",
"445 77 CURVE SMOOTH",
"492 20 OFFCURVE",
"576 -17 OFFCURVE",
"667 -17 CURVE SMOOTH",
"712 -17 OFFCURVE",
"757 -12 OFFCURVE",
"802 -1 CURVE SMOOTH",
"893 19 OFFCURVE",
"966 55 OFFCURVE",
"994 88 CURVE",
"997 93 OFFCURVE",
"999 98 OFFCURVE",
"999 103 CURVE SMOOTH",
"999 126 OFFCURVE",
"976 154 OFFCURVE",
"957 154 CURVE SMOOTH"
);
}
);
width = 1240;
}
);
note = tbar;
unicode = 0167;
},
{
glyphname = u;
lastChange = "2016-08-11 21:18:16 +0000";
layers = (
{
layerId = "012FDA75-DADD-42E4-B1EF-A5A6AF7510CB";
paths = (
{
closed = 1;
nodes = (
"366 143 OFFCURVE",
"433 65 OFFCURVE",
"562 65 CURVE SMOOTH",
"601 65 OFFCURVE",
"642 72 OFFCURVE",
"683 87 CURVE SMOOTH",
"766 116 OFFCURVE",
"837 170 OFFCURVE",
"866 231 CURVE",
"866 706 LINE",
"769 686 LINE",
"763 684 OFFCURVE",
"757 683 OFFCURVE",
"751 683 CURVE SMOOTH",
"723 683 OFFCURVE",
"704 703 OFFCURVE",
"704 726 CURVE SMOOTH",
"704 745 OFFCURVE",
"717 760 OFFCURVE",
"742 765 CURVE SMOOTH",
"916 800 LINE SMOOTH",
"921 801 OFFCURVE",
"925 802 OFFCURVE",
"928 802 CURVE SMOOTH",
"948 802 OFFCURVE",
"962 787 OFFCURVE",
"962 768 CURVE SMOOTH",
"962 85 LINE",
"1110 96 LINE",
"1116 96 LINE SMOOTH",
"1143 96 OFFCURVE",
"1156 81 OFFCURVE",
"1156 61 CURVE SMOOTH",
"1156 41 OFFCURVE",
"1142 22 OFFCURVE",
"1118 17 CURVE",
"932 -3 LINE",
"925 -3 LINE SMOOTH",
"898 -3 OFFCURVE",
"879 14 OFFCURVE",
"878 47 CURVE SMOOTH",
"873 134 LINE",
"814 47 OFFCURVE",
"686 -17 OFFCURVE",
"561 -17 CURVE SMOOTH",
"501 -17 OFFCURVE",
"449 -5 OFFCURVE",
"405 18 CURVE SMOOTH",
"317 65 OFFCURVE",
"270 151 OFFCURVE",
"270 262 CURVE SMOOTH",
"270 706 LINE",
"172 686 LINE",
"168 685 OFFCURVE",
"162 684 OFFCURVE",
"155 684 CURVE SMOOTH",
"128 684 OFFCURVE",
"109 704 OFFCURVE",
"109 727 CURVE SMOOTH",
"109 746 OFFCURVE",
"121 760 OFFCURVE",
"145 765 CURVE SMOOTH",
"320 800 LINE SMOOTH",
"325 801 OFFCURVE",
"329 802 OFFCURVE",
"332 802 CURVE SMOOTH",
"352 802 OFFCURVE",
"366 787 OFFCURVE",
"366 768 CURVE SMOOTH",
"366 259 LINE SMOOTH"
);
}
);
width = 1240;
}
);
note = u;
unicode = 0075;
},
{
glyphname = uni01C6;
lastChange = "2016-08-11 21:18:16 +0000";
layers = (
{
layerId = "012FDA75-DADD-42E4-B1EF-A5A6AF7510CB";
paths = (
{
closed = 1;
nodes = (
"984 939 OFFCURVE",
"974 935 OFFCURVE",
"957 935 CURVE SMOOTH",
"941 935 OFFCURVE",
"931 939 OFFCURVE",
"926 946 CURVE",
"742 1229 LINE",
"737 1234 OFFCURVE",
"735 1239 OFFCURVE",
"735 1246 CURVE SMOOTH",
"735 1262 OFFCURVE",
"753 1276 OFFCURVE",
"772 1276 CURVE SMOOTH",
"783 1276 OFFCURVE",
"791 1273 OFFCURVE",
"795 1267 CURVE",
"957 1058 LINE",
"1120 1267 LINE",
"1124 1273 OFFCURVE",
"1132 1276 OFFCURVE",
"1143 1276 CURVE SMOOTH",
"1162 1276 OFFCURVE",
"1180 1262 OFFCURVE",
"1180 1246 CURVE SMOOTH",
"1180 1239 OFFCURVE",
"1178 1234 OFFCURVE",
"1173 1229 CURVE",
"989 946 LINE"
);
},
{
closed = 1;
nodes = (
"517 -3 OFFCURVE",
"498 14 OFFCURVE",
"497 47 CURVE SMOOTH",
"494 107 LINE",
"443 26 OFFCURVE",
"375 -16 OFFCURVE",
"310 -16 CURVE SMOOTH",
"266 -16 OFFCURVE",
"225 2 OFFCURVE",
"187 37 CURVE SMOOTH",
"111 108 OFFCURVE",
"63 239 OFFCURVE",
"63 398 CURVE SMOOTH",
"63 481 OFFCURVE",
"73 553 OFFCURVE",
"94 616 CURVE SMOOTH",
"134 741 OFFCURVE",
"210 813 OFFCURVE",
"299 813 CURVE SMOOTH",
"360 813 OFFCURVE",
"428 779 OFFCURVE",
"485 714 CURVE",
"485 1091 LINE",
"357 1083 LINE",
"352 1082 OFFCURVE",
"345 1080 OFFCURVE",
"337 1080 CURVE SMOOTH",
"314 1080 OFFCURVE",
"298 1097 OFFCURVE",
"298 1118 CURVE SMOOTH",
"298 1137 OFFCURVE",
"308 1155 OFFCURVE",
"331 1159 CURVE",
"520 1178 LINE SMOOTH",
"531 1179 OFFCURVE",
"537 1180 OFFCURVE",
"540 1180 CURVE SMOOTH",
"567 1180 OFFCURVE",
"581 1167 OFFCURVE",
"581 1141 CURVE SMOOTH",
"581 85 LINE",
"637 91 LINE",
"643 91 LINE SMOOTH",
"670 91 OFFCURVE",
"683 76 OFFCURVE",
"683 56 CURVE SMOOTH",
"683 36 OFFCURVE",
"669 17 OFFCURVE",
"645 12 CURVE",
"551 -3 LINE",
"544 -3 LINE SMOOTH"
);
},
{
closed = 1;
nodes = (
"1132 772 OFFCURVE",
"1150 752 OFFCURVE",
"1150 727 CURVE SMOOTH",
"1150 711 OFFCURVE",
"1136 689 OFFCURVE",
"1132 682 CURVE",
"860 82 LINE",
"1065 82 LINE",
"1076 259 LINE SMOOTH",
"1077 282 OFFCURVE",
"1097 297 OFFCURVE",
"1120 297 CURVE SMOOTH",
"1143 297 OFFCURVE",
"1161 282 OFFCURVE",
"1161 255 CURVE SMOOTH",
"1161 46 LINE SMOOTH",
"1161 22 OFFCURVE",
"1135 0 OFFCURVE",
"1110 0 CURVE SMOOTH",
"806 0 LINE SMOOTH",
"769 0 OFFCURVE",
"750 23 OFFCURVE",
"750 59 CURVE SMOOTH",
"750 83 OFFCURVE",
"764 105 OFFCURVE",
"767 109 CURVE",
"1034 692 LINE",
"831 692 LINE",
"823 535 LINE SMOOTH",
"822 507 OFFCURVE",
"804 490 OFFCURVE",
"781 490 CURVE SMOOTH",
"757 490 OFFCURVE",
"736 509 OFFCURVE",
"736 540 CURVE SMOOTH",
"736 726 LINE SMOOTH",
"736 750 OFFCURVE",
"758 772 OFFCURVE",
"782 772 CURVE SMOOTH",
"1089 772 LINE SMOOTH"
);
},
{
closed = 1;
nodes = (
"261 735 OFFCURVE",
"224 706 OFFCURVE",
"198 647 CURVE SMOOTH",
"172 588 OFFCURVE",
"159 505 OFFCURVE",
"159 398 CURVE SMOOTH",
"159 329 OFFCURVE",
"166 269 OFFCURVE",
"180 218 CURVE SMOOTH",
"207 116 OFFCURVE",
"257 60 OFFCURVE",
"318 60 CURVE SMOOTH",
"377 60 OFFCURVE",
"440 111 OFFCURVE",
"485 210 CURVE",
"485 619 LINE",
"426 696 OFFCURVE",
"362 735 OFFCURVE",
"309 735 CURVE SMOOTH"
);
}
);
width = 1240;
}
);
note = uni01C6;
unicode = 01C6;
},
{
glyphname = uni01C9;
lastChange = "2016-08-11 21:18:16 +0000";
layers = (
{
layerId = "012FDA75-DADD-42E4-B1EF-A5A6AF7510CB";
paths = (
{
closed = 1;
nodes = (
"461 1182 OFFCURVE",
"476 1170 OFFCURVE",
"476 1150 CURVE SMOOTH",
"476 82 LINE",
"696 82 LINE SMOOTH",
"720 82 OFFCURVE",
"735 62 OFFCURVE",
"735 41 CURVE SMOOTH",
"735 18 OFFCURVE",
"720 0 OFFCURVE",
"695 0 CURVE SMOOTH",
"146 0 LINE SMOOTH",
"117 0 OFFCURVE",
"100 19 OFFCURVE",
"100 42 CURVE SMOOTH",
"100 63 OFFCURVE",
"115 82 OFFCURVE",
"142 82 CURVE SMOOTH",
"380 82 LINE",
"380 1090 LINE",
"146 1061 LINE",
"139 1060 LINE",
"114 1060 OFFCURVE",
"98 1079 OFFCURVE",
"98 1102 CURVE SMOOTH",
"98 1122 OFFCURVE",
"109 1139 OFFCURVE",
"130 1142 CURVE SMOOTH",
"429 1181 LINE",
"440 1182 LINE"
);
},
{
closed = 1;
nodes = (
"916 1135 OFFCURVE",
"954 1171 OFFCURVE",
"999 1171 CURVE SMOOTH",
"1044 1171 OFFCURVE",
"1081 1135 OFFCURVE",
"1081 1088 CURVE SMOOTH",
"1081 1043 OFFCURVE",
"1046 1006 OFFCURVE",
"999 1006 CURVE SMOOTH",
"952 1006 OFFCURVE",
"916 1043 OFFCURVE",
"916 1088 CURVE SMOOTH"
);
},
{
closed = 1;
nodes = (
"1066 -73 OFFCURVE",
"1051 -126 OFFCURVE",
"1020 -171 CURVE SMOOTH",
"959 -260 OFFCURVE",
"841 -309 OFFCURVE",
"678 -309 CURVE SMOOTH",
"647 -309 OFFCURVE",
"627 -289 OFFCURVE",
"627 -265 CURVE SMOOTH",
"627 -241 OFFCURVE",
"649 -220 OFFCURVE",
"685 -220 CURVE SMOOTH",
"866 -220 OFFCURVE",
"970 -151 OFFCURVE",
"970 0 CURVE SMOOTH",
"970 732 LINE",
"704 732 LINE SMOOTH",
"676 732 OFFCURVE",
"660 752 OFFCURVE",
"660 775 CURVE SMOOTH",
"660 796 OFFCURVE",
"675 814 OFFCURVE",
"700 814 CURVE SMOOTH",
"1030 814 LINE SMOOTH",
"1051 814 OFFCURVE",
"1066 805 OFFCURVE",
"1066 785 CURVE SMOOTH",
"1066 -10 LINE SMOOTH"
);
}
);
width = 1240;
}
);
note = uni01C9;
unicode = 01C9;
},
{
glyphname = uni01CC;
lastChange = "2016-08-11 21:18:16 +0000";
layers = (
{
layerId = "012FDA75-DADD-42E4-B1EF-A5A6AF7510CB";
paths = (
{
closed = 1;
nodes = (
"961 1135 OFFCURVE",
"999 1171 OFFCURVE",
"1044 1171 CURVE SMOOTH",
"1089 1171 OFFCURVE",
"1126 1135 OFFCURVE",
"1126 1088 CURVE SMOOTH",
"1126 1043 OFFCURVE",
"1091 1006 OFFCURVE",
"1044 1006 CURVE SMOOTH",
"997 1006 OFFCURVE",
"961 1043 OFFCURVE",
"961 1088 CURVE SMOOTH"
);
},
{
closed = 1;
nodes = (
"1136 -73 OFFCURVE",
"1121 -126 OFFCURVE",
"1090 -171 CURVE SMOOTH",
"1029 -260 OFFCURVE",
"911 -309 OFFCURVE",
"748 -309 CURVE SMOOTH",
"717 -309 OFFCURVE",
"697 -289 OFFCURVE",
"697 -265 CURVE SMOOTH",
"697 -241 OFFCURVE",
"719 -220 OFFCURVE",
"755 -220 CURVE SMOOTH",
"936 -220 OFFCURVE",
"1040 -151 OFFCURVE",
"1040 0 CURVE SMOOTH",
"1040 732 LINE",
"854 732 LINE SMOOTH",
"826 732 OFFCURVE",
"810 752 OFFCURVE",
"810 775 CURVE SMOOTH",
"810 796 OFFCURVE",
"825 814 OFFCURVE",
"850 814 CURVE SMOOTH",
"1100 814 LINE SMOOTH",
"1121 814 OFFCURVE",
"1136 805 OFFCURVE",
"1136 785 CURVE SMOOTH",
"1136 -10 LINE SMOOTH"
);
},
{
closed = 1;
nodes = (
"638 665 OFFCURVE",
"594 731 OFFCURVE",
"478 731 CURVE SMOOTH",
"305 731 OFFCURVE",
"238 627 OFFCURVE",
"238 503 CURVE SMOOTH",
"238 82 LINE",
"313 82 LINE SMOOTH",
"344 82 OFFCURVE",
"361 63 OFFCURVE",
"361 42 CURVE SMOOTH",
"361 19 OFFCURVE",
"342 0 OFFCURVE",
"311 0 CURVE SMOOTH",
"88 0 LINE SMOOTH",
"59 0 OFFCURVE",
"42 20 OFFCURVE",
"42 43 CURVE SMOOTH",
"42 64 OFFCURVE",
"57 82 OFFCURVE",
"84 82 CURVE SMOOTH",
"142 82 LINE",
"142 709 LINE",
"84 699 LINE",
"77 697 OFFCURVE",
"71 696 OFFCURVE",
"64 696 CURVE SMOOTH",
"41 696 OFFCURVE",
"25 713 OFFCURVE",
"25 734 CURVE SMOOTH",
"25 753 OFFCURVE",
"35 770 OFFCURVE",
"58 775 CURVE SMOOTH",
"172 796 LINE",
"181 797 OFFCURVE",
"187 798 OFFCURVE",
"190 798 CURVE SMOOTH",
"215 798 OFFCURVE",
"228 785 OFFCURVE",
"229 759 CURVE SMOOTH",
"234 639 LINE",
"254 678 OFFCURVE",
"273 709 OFFCURVE",
"292 733 CURVE SMOOTH",
"329 781 OFFCURVE",
"385 813 OFFCURVE",
"473 813 CURVE SMOOTH",
"658 813 OFFCURVE",
"734 716 OFFCURVE",
"734 533 CURVE SMOOTH",
"734 82 LINE",
"783 82 LINE SMOOTH",
"808 82 OFFCURVE",
"823 63 OFFCURVE",
"823 42 CURVE SMOOTH",
"823 19 OFFCURVE",
"808 0 OFFCURVE",
"781 0 CURVE SMOOTH",
"556 0 LINE SMOOTH",
"527 0 OFFCURVE",
"510 20 OFFCURVE",
"510 43 CURVE SMOOTH",
"510 64 OFFCURVE",
"525 82 OFFCURVE",
"552 82 CURVE SMOOTH",
"638 82 LINE",
"638 540 LINE SMOOTH"
);
}
);
width = 1240;
}
);
note = uni01CC;
unicode = 01CC;
},
{
glyphname = uni01F3;
lastChange = "2016-08-11 21:18:16 +0000";
layers = (
{
layerId = "012FDA75-DADD-42E4-B1EF-A5A6AF7510CB";
paths = (
{
closed = 1;
nodes = (
"517 -3 OFFCURVE",
"498 14 OFFCURVE",
"497 47 CURVE SMOOTH",
"494 107 LINE",
"443 26 OFFCURVE",
"375 -16 OFFCURVE",
"310 -16 CURVE SMOOTH",
"266 -16 OFFCURVE",
"225 2 OFFCURVE",
"187 37 CURVE SMOOTH",
"111 108 OFFCURVE",
"63 239 OFFCURVE",
"63 398 CURVE SMOOTH",
"63 481 OFFCURVE",
"73 553 OFFCURVE",
"94 616 CURVE SMOOTH",
"134 741 OFFCURVE",
"210 813 OFFCURVE",
"299 813 CURVE SMOOTH",
"360 813 OFFCURVE",
"428 779 OFFCURVE",
"485 714 CURVE",
"485 1091 LINE",
"357 1083 LINE",
"352 1082 OFFCURVE",
"345 1080 OFFCURVE",
"337 1080 CURVE SMOOTH",
"314 1080 OFFCURVE",
"298 1097 OFFCURVE",
"298 1118 CURVE SMOOTH",
"298 1137 OFFCURVE",
"308 1155 OFFCURVE",
"331 1159 CURVE",
"520 1178 LINE SMOOTH",
"531 1179 OFFCURVE",
"537 1180 OFFCURVE",
"540 1180 CURVE SMOOTH",
"567 1180 OFFCURVE",
"581 1167 OFFCURVE",
"581 1141 CURVE SMOOTH",
"581 85 LINE",
"637 91 LINE",
"643 91 LINE SMOOTH",
"670 91 OFFCURVE",
"683 76 OFFCURVE",
"683 56 CURVE SMOOTH",
"683 36 OFFCURVE",
"669 17 OFFCURVE",
"645 12 CURVE",
"551 -3 LINE",
"544 -3 LINE SMOOTH"
);
},
{
closed = 1;
nodes = (
"1132 772 OFFCURVE",
"1150 752 OFFCURVE",
"1150 727 CURVE SMOOTH",
"1150 711 OFFCURVE",
"1136 689 OFFCURVE",
"1132 682 CURVE",
"860 82 LINE",
"1065 82 LINE",
"1076 259 LINE SMOOTH",
"1077 282 OFFCURVE",
"1097 297 OFFCURVE",
"1120 297 CURVE SMOOTH",
"1143 297 OFFCURVE",
"1161 282 OFFCURVE",
"1161 255 CURVE SMOOTH",
"1161 46 LINE SMOOTH",
"1161 22 OFFCURVE",
"1135 0 OFFCURVE",
"1110 0 CURVE SMOOTH",
"806 0 LINE SMOOTH",
"769 0 OFFCURVE",
"750 23 OFFCURVE",
"750 59 CURVE SMOOTH",
"750 83 OFFCURVE",
"764 105 OFFCURVE",
"767 109 CURVE",
"1034 692 LINE",
"831 692 LINE",
"823 535 LINE SMOOTH",
"822 507 OFFCURVE",
"804 490 OFFCURVE",
"781 490 CURVE SMOOTH",
"757 490 OFFCURVE",
"736 509 OFFCURVE",
"736 540 CURVE SMOOTH",
"736 726 LINE SMOOTH",
"736 750 OFFCURVE",
"758 772 OFFCURVE",
"782 772 CURVE SMOOTH",
"1089 772 LINE SMOOTH"
);
},
{
closed = 1;
nodes = (
"261 735 OFFCURVE",
"224 706 OFFCURVE",
"198 647 CURVE SMOOTH",
"172 588 OFFCURVE",
"159 505 OFFCURVE",
"159 398 CURVE SMOOTH",
"159 329 OFFCURVE",
"166 269 OFFCURVE",
"180 218 CURVE SMOOTH",
"207 116 OFFCURVE",
"257 60 OFFCURVE",
"318 60 CURVE SMOOTH",
"377 60 OFFCURVE",
"440 111 OFFCURVE",
"485 210 CURVE",
"485 619 LINE",
"426 696 OFFCURVE",
"362 735 OFFCURVE",
"309 735 CURVE SMOOTH"
);
}
);
width = 1240;
}
);
note = uni01F3;
unicode = 01F3;
},
{
glyphname = uogonek;
lastChange = "2016-08-11 21:18:16 +0000";
layers = (
{
layerId = "012FDA75-DADD-42E4-B1EF-A5A6AF7510CB";
paths = (
{
closed = 1;
nodes = (
"962 85 LINE",
"962 768 LINE SMOOTH",
"962 787 OFFCURVE",
"948 802 OFFCURVE",
"928 802 CURVE SMOOTH",
"925 802 OFFCURVE",
"921 801 OFFCURVE",
"916 800 CURVE SMOOTH",
"742 765 LINE SMOOTH",
"717 760 OFFCURVE",
"704 745 OFFCURVE",
"704 726 CURVE SMOOTH",
"704 703 OFFCURVE",
"723 683 OFFCURVE",
"751 683 CURVE SMOOTH",
"757 683 OFFCURVE",
"763 684 OFFCURVE",
"769 686 CURVE",
"866 706 LINE",
"866 231 LINE",
"851 200 OFFCURVE",
"828 172 OFFCURVE",
"795 147 CURVE SMOOTH",
"729 96 OFFCURVE",
"641 65 OFFCURVE",
"562 65 CURVE SMOOTH",
"433 65 OFFCURVE",
"366 143 OFFCURVE",
"366 259 CURVE SMOOTH",
"366 768 LINE SMOOTH",
"366 787 OFFCURVE",
"352 802 OFFCURVE",
"332 802 CURVE SMOOTH",
"329 802 OFFCURVE",
"325 801 OFFCURVE",
"320 800 CURVE SMOOTH",
"145 765 LINE SMOOTH",
"121 760 OFFCURVE",
"109 746 OFFCURVE",
"109 727 CURVE SMOOTH",
"109 704 OFFCURVE",
"128 684 OFFCURVE",
"155 684 CURVE SMOOTH",
"162 684 OFFCURVE",
"168 685 OFFCURVE",
"172 686 CURVE",
"270 706 LINE",
"270 262 LINE SMOOTH",
"270 207 OFFCURVE",
"282 158 OFFCURVE",
"305 116 CURVE SMOOTH",
"351 32 OFFCURVE",
"441 -17 OFFCURVE",
"561 -17 CURVE SMOOTH",
"686 -17 OFFCURVE",
"814 47 OFFCURVE",
"873 134 CURVE",
"878 47 LINE SMOOTH",
"880 20 OFFCURVE",
"891 3 OFFCURVE",
"912 -2 CURVE",
"877 -31 OFFCURVE",
"847 -66 OFFCURVE",
"821 -107 CURVE SMOOTH",
"769 -188 OFFCURVE",
"740 -272 OFFCURVE",
"740 -316 CURVE SMOOTH",
"740 -392 OFFCURVE",
"784 -426 OFFCURVE",
"852 -426 CURVE SMOOTH",
"873 -426 OFFCURVE",
"892 -422 OFFCURVE",
"911 -414 CURVE SMOOTH",
"948 -398 OFFCURVE",
"974 -372 OFFCURVE",
"974 -349 CURVE SMOOTH",
"974 -339 OFFCURVE",
"965 -334 OFFCURVE",
"948 -334 CURVE",
"925 -335 LINE",
"902 -335 LINE SMOOTH",
"862 -335 OFFCURVE",
"838 -327 OFFCURVE",
"838 -287 CURVE SMOOTH",
"838 -240 OFFCURVE",
"883 -143 OFFCURVE",
"939 -34 CURVE SMOOTH",
"956 0 LINE",
"1118 17 LINE",
"1142 22 OFFCURVE",
"1156 41 OFFCURVE",
"1156 61 CURVE SMOOTH",
"1156 81 OFFCURVE",
"1143 96 OFFCURVE",
"1116 96 CURVE SMOOTH",
"1110 96 LINE"
);
}
);
width = 1240;
}
);
note = uogonek;
unicode = 0173;
},
{
glyphname = v;
lastChange = "2016-08-11 21:18:16 +0000";
layers = (
{
layerId = "012FDA75-DADD-42E4-B1EF-A5A6AF7510CB";
paths = (
{
closed = 1;
nodes = (
"517 774 OFFCURVE",
"530 760 OFFCURVE",
"530 732 CURVE SMOOTH",
"530 705 OFFCURVE",
"517 692 OFFCURVE",
"492 692 CURVE SMOOTH",
"383 692 LINE",
"650 92 LINE",
"894 692 LINE",
"809 692 LINE SMOOTH",
"783 692 OFFCURVE",
"770 705 OFFCURVE",
"770 732 CURVE SMOOTH",
"770 760 OFFCURVE",
"783 774 OFFCURVE",
"810 774 CURVE SMOOTH",
"1071 774 LINE SMOOTH",
"1102 774 OFFCURVE",
"1117 760 OFFCURVE",
"1117 733 CURVE SMOOTH",
"1117 706 OFFCURVE",
"1103 692 OFFCURVE",
"1075 692 CURVE SMOOTH",
"986 692 LINE",
"719 54 LINE SMOOTH",
"695 -3 OFFCURVE",
"678 -14 OFFCURVE",
"647 -14 CURVE SMOOTH",
"615 -14 OFFCURVE",
"595 -2 OFFCURVE",
"567 59 CURVE SMOOTH",
"273 692 LINE",
"172 692 LINE SMOOTH",
"144 692 OFFCURVE",
"130 706 OFFCURVE",
"130 733 CURVE SMOOTH",
"130 760 OFFCURVE",
"145 774 OFFCURVE",
"176 774 CURVE SMOOTH",
"491 774 LINE SMOOTH"
);
}
);
width = 1240;
}
);
note = v;
unicode = 0076;
},
{
glyphname = w;
lastChange = "2016-08-11 21:18:16 +0000";
layers = (
{
layerId = "012FDA75-DADD-42E4-B1EF-A5A6AF7510CB";
paths = (
{
closed = 1;
nodes = (
"791 774 OFFCURVE",
"804 760 OFFCURVE",
"804 732 CURVE SMOOTH",
"804 705 OFFCURVE",
"791 692 OFFCURVE",
"766 692 CURVE SMOOTH",
"657 692 LINE",
"869 92 LINE",
"1038 692 LINE",
"973 692 LINE SMOOTH",
"947 692 OFFCURVE",
"934 705 OFFCURVE",
"934 732 CURVE SMOOTH",
"934 760 OFFCURVE",
"947 774 OFFCURVE",
"974 774 CURVE SMOOTH",
"1195 774 LINE SMOOTH",
"1226 774 OFFCURVE",
"1241 760 OFFCURVE",
"1241 733 CURVE SMOOTH",
"1241 706 OFFCURVE",
"1227 692 OFFCURVE",
"1199 692 CURVE SMOOTH",
"1130 692 LINE",
"938 54 LINE SMOOTH",
"921 -2 OFFCURVE",
"899 -14 OFFCURVE",
"866 -14 CURVE SMOOTH",
"833 -14 OFFCURVE",
"809 -1 OFFCURVE",
"786 59 CURVE SMOOTH",
"651 433 LINE",
"507 54 LINE SMOOTH",
"486 -3 OFFCURVE",
"467 -14 OFFCURVE",
"435 -14 CURVE SMOOTH",
"400 -14 OFFCURVE",
"375 -2 OFFCURVE",
"355 59 CURVE SMOOTH",
"146 692 LINE",
"68 692 LINE SMOOTH",
"40 692 OFFCURVE",
"26 706 OFFCURVE",
"26 733 CURVE SMOOTH",
"26 760 OFFCURVE",
"41 774 OFFCURVE",
"72 774 CURVE SMOOTH",
"307 774 LINE SMOOTH",
"333 774 OFFCURVE",
"346 760 OFFCURVE",
"346 732 CURVE SMOOTH",
"346 705 OFFCURVE",
"333 692 OFFCURVE",
"308 692 CURVE SMOOTH",
"256 692 LINE",
"438 92 LINE",
"607 555 LINE",
"558 692 LINE",
"507 692 LINE SMOOTH",
"479 692 OFFCURVE",
"465 706 OFFCURVE",
"465 733 CURVE SMOOTH",
"465 760 OFFCURVE",
"480 774 OFFCURVE",
"511 774 CURVE SMOOTH",
"765 774 LINE SMOOTH"
);
}
);
width = 1240;
}
);
note = w;
unicode = 0077;
},
{
glyphname = x;
lastChange = "2016-08-11 21:18:16 +0000";
layers = (
{
layerId = "012FDA75-DADD-42E4-B1EF-A5A6AF7510CB";
paths = (
{
closed = 1;
nodes = (
"742 0 OFFCURVE",
"722 19 OFFCURVE",
"722 42 CURVE SMOOTH",
"722 63 OFFCURVE",
"741 82 OFFCURVE",
"773 82 CURVE SMOOTH",
"853 82 LINE",
"628 340 LINE",
"407 82 LINE",
"466 82 LINE SMOOTH",
"491 82 OFFCURVE",
"504 69 OFFCURVE",
"504 42 CURVE SMOOTH",
"504 14 OFFCURVE",
"491 0 OFFCURVE",
"464 0 CURVE SMOOTH",
"217 0 LINE SMOOTH",
"186 0 OFFCURVE",
"171 14 OFFCURVE",
"171 42 CURVE SMOOTH",
"171 69 OFFCURVE",
"185 82 OFFCURVE",
"213 82 CURVE SMOOTH",
"297 82 LINE",
"570 406 LINE",
"320 692 LINE",
"232 692 LINE SMOOTH",
"201 692 OFFCURVE",
"186 706 OFFCURVE",
"186 734 CURVE SMOOTH",
"186 761 OFFCURVE",
"200 774 OFFCURVE",
"228 774 CURVE SMOOTH",
"465 774 LINE SMOOTH",
"490 774 OFFCURVE",
"503 761 OFFCURVE",
"503 734 CURVE SMOOTH",
"503 706 OFFCURVE",
"490 692 OFFCURVE",
"463 692 CURVE SMOOTH",
"423 692 LINE",
"623 469 LINE",
"811 692 LINE",
"766 692 LINE SMOOTH",
"735 692 OFFCURVE",
"720 706 OFFCURVE",
"720 734 CURVE SMOOTH",
"720 761 OFFCURVE",
"734 774 OFFCURVE",
"762 774 CURVE SMOOTH",
"1029 774 LINE SMOOTH",
"1055 774 OFFCURVE",
"1068 761 OFFCURVE",
"1068 734 CURVE SMOOTH",
"1068 706 OFFCURVE",
"1054 692 OFFCURVE",
"1027 692 CURVE SMOOTH",
"929 692 LINE",
"682 403 LINE",
"970 82 LINE",
"1041 82 LINE SMOOTH",
"1072 82 OFFCURVE",
"1090 63 OFFCURVE",
"1090 42 CURVE SMOOTH",
"1090 19 OFFCURVE",
"1071 0 OFFCURVE",
"1039 0 CURVE SMOOTH",
"778 0 LINE SMOOTH"
);
}
);
width = 1240;
}
);
note = x;
unicode = 0078;
},
{
glyphname = y;
lastChange = "2016-08-11 21:18:16 +0000";
layers = (
{
layerId = "012FDA75-DADD-42E4-B1EF-A5A6AF7510CB";
paths = (
{
closed = 1;
nodes = (
"515 774 OFFCURVE",
"529 760 OFFCURVE",
"529 732 CURVE SMOOTH",
"529 705 OFFCURVE",
"516 692 OFFCURVE",
"490 692 CURVE SMOOTH",
"388 692 LINE",
"643 95 LINE",
"871 692 LINE",
"782 692 LINE SMOOTH",
"756 692 OFFCURVE",
"743 705 OFFCURVE",
"743 732 CURVE SMOOTH",
"743 760 OFFCURVE",
"756 774 OFFCURVE",
"783 774 CURVE SMOOTH",
"1048 774 LINE SMOOTH",
"1079 774 OFFCURVE",
"1094 760 OFFCURVE",
"1094 733 CURVE SMOOTH",
"1094 706 OFFCURVE",
"1080 692 OFFCURVE",
"1052 692 CURVE SMOOTH",
"973 692 LINE",
"670 -83 LINE SMOOTH",
"602 -258 OFFCURVE",
"514 -361 OFFCURVE",
"371 -361 CURVE SMOOTH",
"319 -361 OFFCURVE",
"303 -341 OFFCURVE",
"303 -309 CURVE SMOOTH",
"303 -277 OFFCURVE",
"326 -261 OFFCURVE",
"371 -261 CURVE SMOOTH",
"395 -261 OFFCURVE",
"419 -255 OFFCURVE",
"443 -243 CURVE SMOOTH",
"491 -220 OFFCURVE",
"528 -180 OFFCURVE",
"543 -141 CURVE SMOOTH",
"597 -2 LINE",
"559 77 OFFCURVE",
"519 163 OFFCURVE",
"478 256 CURVE SMOOTH",
"395 443 OFFCURVE",
"320 613 OFFCURVE",
"284 692 CURVE",
"191 692 LINE SMOOTH",
"164 692 OFFCURVE",
"150 705 OFFCURVE",
"150 732 CURVE SMOOTH",
"150 760 OFFCURVE",
"165 774 OFFCURVE",
"196 774 CURVE SMOOTH",
"488 774 LINE SMOOTH"
);
}
);
width = 1240;
}
);
note = y;
unicode = 0079;
},
{
glyphname = z;
lastChange = "2016-08-11 21:18:16 +0000";
layers = (
{
layerId = "012FDA75-DADD-42E4-B1EF-A5A6AF7510CB";
paths = (
{
closed = 1;
nodes = (
"939 772 OFFCURVE",
"957 752 OFFCURVE",
"957 727 CURVE SMOOTH",
"957 711 OFFCURVE",
"950 693 OFFCURVE",
"939 682 CURVE",
"387 82 LINE",
"902 82 LINE",
"913 319 LINE SMOOTH",
"914 342 OFFCURVE",
"934 357 OFFCURVE",
"957 357 CURVE SMOOTH",
"980 357 OFFCURVE",
"998 342 OFFCURVE",
"998 315 CURVE SMOOTH",
"998 46 LINE SMOOTH",
"998 22 OFFCURVE",
"972 0 OFFCURVE",
"947 0 CURVE SMOOTH",
"334 0 LINE SMOOTH",
"297 0 OFFCURVE",
"278 23 OFFCURVE",
"278 59 CURVE SMOOTH",
"278 80 OFFCURVE",
"284 96 OFFCURVE",
"295 109 CURVE",
"829 692 LINE",
"368 692 LINE",
"360 495 LINE SMOOTH",
"359 467 OFFCURVE",
"341 450 OFFCURVE",
"318 450 CURVE SMOOTH",
"294 450 OFFCURVE",
"273 469 OFFCURVE",
"273 500 CURVE SMOOTH",
"273 726 LINE SMOOTH",
"273 750 OFFCURVE",
"295 772 OFFCURVE",
"319 772 CURVE SMOOTH",
"896 772 LINE SMOOTH"
);
}
);
width = 1240;
}
);
note = z;
unicode = 007A;
},
{
glyphname = uniFB01;
lastChange = "2016-08-11 21:18:16 +0000";
layers = (
{
layerId = "012FDA75-DADD-42E4-B1EF-A5A6AF7510CB";
paths = (
{
closed = 1;
nodes = (
"733 0 OFFCURVE",
"716 20 OFFCURVE",
"716 43 CURVE SMOOTH",
"716 64 OFFCURVE",
"731 82 OFFCURVE",
"758 82 CURVE SMOOTH",
"924 82 LINE",
"924 684 LINE",
"341 684 LINE",
"342 82 LINE",
"564 82 LINE SMOOTH",
"588 82 OFFCURVE",
"603 62 OFFCURVE",
"603 41 CURVE SMOOTH",
"603 18 OFFCURVE",
"588 0 OFFCURVE",
"563 0 CURVE SMOOTH",
"141 0 LINE SMOOTH",
"112 0 OFFCURVE",
"95 19 OFFCURVE",
"95 42 CURVE SMOOTH",
"95 63 OFFCURVE",
"110 82 OFFCURVE",
"137 82 CURVE SMOOTH",
"245 82 LINE",
"245 684 LINE",
"153 684 LINE SMOOTH",
"124 684 OFFCURVE",
"107 703 OFFCURVE",
"107 726 CURVE SMOOTH",
"107 747 OFFCURVE",
"122 766 OFFCURVE",
"149 766 CURVE SMOOTH",
"245 766 LINE",
"245 838 LINE SMOOTH",
"245 1079 OFFCURVE",
"369 1188 OFFCURVE",
"644 1188 CURVE SMOOTH",
"676 1188 OFFCURVE",
"701 1168 OFFCURVE",
"701 1137 CURVE SMOOTH",
"701 1020 LINE SMOOTH",
"701 984 OFFCURVE",
"679 964 OFFCURVE",
"652 964 CURVE SMOOTH",
"627 964 OFFCURVE",
"605 983 OFFCURVE",
"605 1016 CURVE SMOOTH",
"605 1109 LINE",
"528 1104 OFFCURVE",
"471 1091 OFFCURVE",
"434 1072 CURVE SMOOTH",
"359 1033 OFFCURVE",
"342 968 OFFCURVE",
"342 832 CURVE SMOOTH",
"342 766 LINE",
"973 766 LINE SMOOTH",
"1004 766 OFFCURVE",
"1020 760 OFFCURVE",
"1020 735 CURVE SMOOTH",
"1020 82 LINE",
"1156 82 LINE SMOOTH",
"1181 82 OFFCURVE",
"1196 62 OFFCURVE",
"1196 41 CURVE SMOOTH",
"1196 18 OFFCURVE",
"1180 0 OFFCURVE",
"1155 0 CURVE SMOOTH",
"762 0 LINE SMOOTH"
);
},
{
closed = 1;
nodes = (
"877 1135 OFFCURVE",
"915 1171 OFFCURVE",
"960 1171 CURVE SMOOTH",
"1005 1171 OFFCURVE",
"1042 1135 OFFCURVE",
"1042 1088 CURVE SMOOTH",
"1042 1043 OFFCURVE",
"1007 1006 OFFCURVE",
"960 1006 CURVE SMOOTH",
"913 1006 OFFCURVE",
"877 1043 OFFCURVE",
"877 1088 CURVE SMOOTH"
);
}
);
width = 1240;
}
);
note = uniFB01;
unicode = FB01;
},
{
glyphname = uniFB02;
lastChange = "2016-08-11 21:18:16 +0000";
layers = (
{
layerId = "012FDA75-DADD-42E4-B1EF-A5A6AF7510CB";
paths = (
{
closed = 1;
nodes = (
"999 1172 OFFCURVE",
"1017 1165 OFFCURVE",
"1017 1140 CURVE SMOOTH",
"1017 82 LINE",
"1120 82 LINE SMOOTH",
"1144 82 OFFCURVE",
"1159 62 OFFCURVE",
"1159 41 CURVE SMOOTH",
"1159 18 OFFCURVE",
"1144 0 OFFCURVE",
"1119 0 CURVE SMOOTH",
"796 0 LINE SMOOTH",
"767 0 OFFCURVE",
"750 19 OFFCURVE",
"750 42 CURVE SMOOTH",
"750 63 OFFCURVE",
"765 82 OFFCURVE",
"792 82 CURVE SMOOTH",
"921 82 LINE",
"921 1093 LINE",
"677 1093 LINE SMOOTH",
"599 1093 OFFCURVE",
"539 1084 OFFCURVE",
"496 1067 CURVE SMOOTH",
"410 1031 OFFCURVE",
"378 960 OFFCURVE",
"378 832 CURVE SMOOTH",
"378 766 LINE",
"527 766 LINE SMOOTH",
"552 766 OFFCURVE",
"567 746 OFFCURVE",
"567 725 CURVE SMOOTH",
"567 702 OFFCURVE",
"551 684 OFFCURVE",
"526 684 CURVE SMOOTH",
"377 684 LINE",
"378 82 LINE",
"580 82 LINE SMOOTH",
"604 82 OFFCURVE",
"619 62 OFFCURVE",
"619 41 CURVE SMOOTH",
"619 18 OFFCURVE",
"604 0 OFFCURVE",
"579 0 CURVE SMOOTH",
"164 0 LINE SMOOTH",
"135 0 OFFCURVE",
"118 19 OFFCURVE",
"118 42 CURVE SMOOTH",
"118 63 OFFCURVE",
"133 82 OFFCURVE",
"160 82 CURVE SMOOTH",
"281 82 LINE",
"281 684 LINE",
"189 684 LINE SMOOTH",
"160 684 OFFCURVE",
"143 703 OFFCURVE",
"143 726 CURVE SMOOTH",
"143 747 OFFCURVE",
"158 766 OFFCURVE",
"185 766 CURVE SMOOTH",
"281 766 LINE",
"281 838 LINE SMOOTH",
"281 917 OFFCURVE",
"295 982 OFFCURVE",
"323 1031 CURVE SMOOTH",
"379 1129 OFFCURVE",
"492 1172 OFFCURVE",
"675 1172 CURVE SMOOTH",
"970 1172 LINE SMOOTH"
);
}
);
width = 1240;
}
);
note = uniFB02;
unicode = FB02;
},
{
glyphname = ordfeminine;
lastChange = "2016-08-11 21:18:16 +0000";
layers = (
{
layerId = "012FDA75-DADD-42E4-B1EF-A5A6AF7510CB";
paths = (
{
closed = 1;
nodes = (
"734 701 OFFCURVE",
"699 757 OFFCURVE",
"599 757 CURVE SMOOTH",
"543 757 OFFCURVE",
"499 748 OFFCURVE",
"452 727 CURVE",
"451 693 OFFCURVE",
"447 667 OFFCURVE",
"440 650 CURVE SMOOTH",
"433 632 OFFCURVE",
"423 623 OFFCURVE",
"408 623 CURVE SMOOTH",
"383 623 OFFCURVE",
"369 643 OFFCURVE",
"369 671 CURVE SMOOTH",
"369 698 OFFCURVE",
"379 723 OFFCURVE",
"398 744 CURVE SMOOTH",
"437 787 OFFCURVE",
"509 812 OFFCURVE",
"600 812 CURVE SMOOTH",
"651 812 OFFCURVE",
"691 802 OFFCURVE",
"720 783 CURVE SMOOTH",
"777 744 OFFCURVE",
"798 674 OFFCURVE",
"798 565 CURVE SMOOTH",
"798 356 LINE SMOOTH",
"798 329 OFFCURVE",
"810 315 OFFCURVE",
"833 315 CURVE SMOOTH",
"856 315 OFFCURVE",
"885 332 OFFCURVE",
"900 348 CURVE SMOOTH",
"905 353 OFFCURVE",
"910 356 OFFCURVE",
"916 356 CURVE SMOOTH",
"929 356 OFFCURVE",
"941 343 OFFCURVE",
"941 328 CURVE SMOOTH",
"941 321 OFFCURVE",
"939 316 OFFCURVE",
"934 311 CURVE SMOOTH",
"905 280 OFFCURVE",
"867 262 OFFCURVE",
"828 262 CURVE SMOOTH",
"781 262 OFFCURVE",
"748 279 OFFCURVE",
"739 343 CURVE",
"695 294 OFFCURVE",
"612 256 OFFCURVE",
"520 256 CURVE SMOOTH",
"420 256 OFFCURVE",
"361 316 OFFCURVE",
"361 408 CURVE SMOOTH",
"361 455 OFFCURVE",
"376 490 OFFCURVE",
"405 514 CURVE SMOOTH",
"464 561 OFFCURVE",
"540 570 OFFCURVE",
"687 579 CURVE SMOOTH",
"734 582 LINE",
"734 596 LINE SMOOTH"
);
},
{
closed = 1;
nodes = (
"706 533 LINE SMOOTH",
"633 526 OFFCURVE",
"579 519 OFFCURVE",
"543 513 CURVE SMOOTH",
"471 500 OFFCURVE",
"426 471 OFFCURVE",
"426 408 CURVE SMOOTH",
"426 340 OFFCURVE",
"466 311 OFFCURVE",
"527 311 CURVE SMOOTH",
"606 311 OFFCURVE",
"687 343 OFFCURVE",
"734 394 CURVE",
"734 536 LINE"
);
}
);
width = 1240;
}
);
note = ordfeminine;
unicode = 00AA;
},
{
glyphname = ordmasculine;
lastChange = "2016-08-11 21:18:16 +0000";
layers = (
{
layerId = "012FDA75-DADD-42E4-B1EF-A5A6AF7510CB";
paths = (
{
closed = 1;
nodes = (
"977 200 OFFCURVE",
"966 152 OFFCURVE",
"943 111 CURVE SMOOTH",
"897 27 OFFCURVE",
"811 -20 OFFCURVE",
"702 -20 CURVE SMOOTH",
"647 -20 OFFCURVE",
"598 -9 OFFCURVE",
"556 14 CURVE SMOOTH",
"471 59 OFFCURVE",
"421 144 OFFCURVE",
"421 255 CURVE SMOOTH",
"421 310 OFFCURVE",
"433 359 OFFCURVE",
"456 400 CURVE SMOOTH",
"503 483 OFFCURVE",
"591 529 OFFCURVE",
"702 529 CURVE SMOOTH",
"757 529 OFFCURVE",
"805 518 OFFCURVE",
"846 495 CURVE SMOOTH",
"929 450 OFFCURVE",
"977 364 OFFCURVE",
"977 255 CURVE SMOOTH"
);
},
{
closed = 1;
nodes = (
"878 371 OFFCURVE",
"813 451 OFFCURVE",
"702 451 CURVE SMOOTH",
"589 451 OFFCURVE",
"522 372 OFFCURVE",
"522 255 CURVE SMOOTH",
"522 136 OFFCURVE",
"589 57 OFFCURVE",
"702 57 CURVE SMOOTH",
"813 57 OFFCURVE",
"878 139 OFFCURVE",
"878 255 CURVE SMOOTH"
);
}
);
width = 1240;
}
);
note = ordmasculine;
unicode = 00BA;
},
{
glyphname = uni03BC;
lastChange = "2016-08-11 21:18:16 +0000";
layers = (
{
layerId = "012FDA75-DADD-42E4-B1EF-A5A6AF7510CB";
paths = (
{
closed = 1;
nodes = (
"962 85 LINE",
"962 768 LINE SMOOTH",
"962 787 OFFCURVE",
"948 802 OFFCURVE",
"928 802 CURVE SMOOTH",
"925 802 OFFCURVE",
"921 801 OFFCURVE",
"916 800 CURVE SMOOTH",
"742 765 LINE SMOOTH",
"717 760 OFFCURVE",
"704 745 OFFCURVE",
"704 726 CURVE SMOOTH",
"704 703 OFFCURVE",
"723 683 OFFCURVE",
"751 683 CURVE SMOOTH",
"757 683 OFFCURVE",
"763 684 OFFCURVE",
"769 686 CURVE",
"866 706 LINE",
"866 231 LINE",
"851 200 OFFCURVE",
"828 172 OFFCURVE",
"795 147 CURVE SMOOTH",
"729 96 OFFCURVE",
"641 65 OFFCURVE",
"562 65 CURVE SMOOTH",
"433 65 OFFCURVE",
"366 143 OFFCURVE",
"366 259 CURVE SMOOTH",
"366 768 LINE SMOOTH",
"366 787 OFFCURVE",
"352 802 OFFCURVE",
"332 802 CURVE SMOOTH",
"329 802 OFFCURVE",
"325 801 OFFCURVE",
"320 800 CURVE SMOOTH",
"145 765 LINE SMOOTH",
"121 760 OFFCURVE",
"109 746 OFFCURVE",
"109 727 CURVE SMOOTH",
"109 704 OFFCURVE",
"128 684 OFFCURVE",
"155 684 CURVE SMOOTH",
"162 684 OFFCURVE",
"168 685 OFFCURVE",
"172 686 CURVE",
"270 706 LINE",
"270 -256 LINE SMOOTH",
"270 -311 OFFCURVE",
"291 -343 OFFCURVE",
"327 -343 CURVE SMOOTH",
"359 -343 OFFCURVE",
"387 -322 OFFCURVE",
"387 -278 CURVE SMOOTH",
"387 -275 OFFCURVE",
"386 -268 OFFCURVE",
"385 -257 CURVE",
"378 -216 OFFCURVE",
"362 -107 OFFCURVE",
"337 71 CURVE",
"388 14 OFFCURVE",
"465 -17 OFFCURVE",
"561 -17 CURVE SMOOTH",
"686 -17 OFFCURVE",
"814 47 OFFCURVE",
"873 134 CURVE",
"878 47 LINE SMOOTH",
"879 14 OFFCURVE",
"898 -3 OFFCURVE",
"925 -3 CURVE SMOOTH",
"932 -3 LINE",
"1118 17 LINE",
"1142 22 OFFCURVE",
"1156 41 OFFCURVE",
"1156 61 CURVE SMOOTH",
"1156 81 OFFCURVE",
"1143 96 OFFCURVE",
"1116 96 CURVE SMOOTH",
"1110 96 LINE"
);
}
);
width = 1240;
}
);
note = uni03BC;
unicode = 03BC;
},
{
glyphname = zero;
lastChange = "2016-08-11 21:18:16 +0000";
layers = (
{
layerId = "012FDA75-DADD-42E4-B1EF-A5A6AF7510CB";
paths = (
{
closed = 1;
nodes = (
"232 687 OFFCURVE",
"247 785 OFFCURVE",
"277 878 CURVE SMOOTH",
"337 1062 OFFCURVE",
"458 1187 OFFCURVE",
"619 1187 CURVE SMOOTH",
"700 1187 OFFCURVE",
"771 1159 OFFCURVE",
"830 1102 CURVE SMOOTH",
"948 988 OFFCURVE",
"1008 792 OFFCURVE",
"1008 584 CURVE SMOOTH",
"1008 481 OFFCURVE",
"993 383 OFFCURVE",
"963 292 CURVE SMOOTH",
"902 108 OFFCURVE",
"782 -16 OFFCURVE",
"619 -16 CURVE SMOOTH",
"537 -16 OFFCURVE",
"467 12 OFFCURVE",
"409 69 CURVE SMOOTH",
"292 182 OFFCURVE",
"232 377 OFFCURVE",
"232 584 CURVE SMOOTH"
);
},
{
closed = 1;
nodes = (
"328 494 OFFCURVE",
"339 410 OFFCURVE",
"362 332 CURVE SMOOTH",
"406 175 OFFCURVE",
"495 69 OFFCURVE",
"619 69 CURVE SMOOTH",
"682 69 OFFCURVE",
"735 93 OFFCURVE",
"779 142 CURVE SMOOTH",
"867 238 OFFCURVE",
"912 404 OFFCURVE",
"912 583 CURVE SMOOTH",
"912 672 OFFCURVE",
"901 757 OFFCURVE",
"878 836 CURVE SMOOTH",
"833 994 OFFCURVE",
"742 1101 OFFCURVE",
"619 1101 CURVE SMOOTH",
"557 1101 OFFCURVE",
"504 1077 OFFCURVE",
"460 1028 CURVE SMOOTH",
"372 931 OFFCURVE",
"328 762 OFFCURVE",
"328 583 CURVE SMOOTH"
);
}
);
width = 1240;
}
);
note = zero;
unicode = 0030;
},
{
glyphname = one;
lastChange = "2016-08-11 21:18:16 +0000";
layers = (
{
layerId = "012FDA75-DADD-42E4-B1EF-A5A6AF7510CB";
paths = (
{
closed = 1;
nodes = (
"717 1177 OFFCURVE",
"735 1162 OFFCURVE",
"735 1130 CURVE SMOOTH",
"735 82 LINE",
"1075 82 LINE SMOOTH",
"1099 82 OFFCURVE",
"1114 62 OFFCURVE",
"1114 41 CURVE SMOOTH",
"1114 18 OFFCURVE",
"1099 0 OFFCURVE",
"1074 0 CURVE SMOOTH",
"274 0 LINE SMOOTH",
"245 0 OFFCURVE",
"228 19 OFFCURVE",
"228 42 CURVE SMOOTH",
"228 63 OFFCURVE",
"243 82 OFFCURVE",
"270 82 CURVE SMOOTH",
"639 82 LINE",
"639 1069 LINE",
"304 917 LINE",
"299 914 OFFCURVE",
"293 913 OFFCURVE",
"287 913 CURVE SMOOTH",
"264 913 OFFCURVE",
"246 935 OFFCURVE",
"246 958 CURVE SMOOTH",
"246 975 OFFCURVE",
"254 986 OFFCURVE",
"270 993 CURVE SMOOTH",
"674 1173 LINE",
"679 1176 OFFCURVE",
"686 1177 OFFCURVE",
"694 1177 CURVE SMOOTH"
);
}
);
width = 1240;
}
);
note = one;
unicode = 0031;
},
{
glyphname = two;
lastChange = "2016-08-11 21:18:16 +0000";
layers = (
{
layerId = "012FDA75-DADD-42E4-B1EF-A5A6AF7510CB";
paths = (
{
closed = 1;
nodes = (
"264 1110 OFFCURVE",
"393 1187 OFFCURVE",
"612 1187 CURVE SMOOTH",
"816 1187 OFFCURVE",
"945 1095 OFFCURVE",
"945 914 CURVE SMOOTH",
"945 861 OFFCURVE",
"932 809 OFFCURVE",
"905 758 CURVE SMOOTH",
"852 655 OFFCURVE",
"781 581 OFFCURVE",
"649 448 CURVE SMOOTH",
"596 395 OFFCURVE",
"554 351 OFFCURVE",
"522 316 CURVE SMOOTH",
"457 245 OFFCURVE",
"395 163 OFFCURVE",
"367 82 CURVE",
"863 82 LINE",
"875 264 LINE SMOOTH",
"876 291 OFFCURVE",
"902 309 OFFCURVE",
"927 309 CURVE SMOOTH",
"952 309 OFFCURVE",
"971 291 OFFCURVE",
"971 258 CURVE SMOOTH",
"971 50 LINE SMOOTH",
"971 19 OFFCURVE",
"949 0 OFFCURVE",
"917 0 CURVE SMOOTH",
"279 0 LINE",
"278 3 OFFCURVE",
"277 8 OFFCURVE",
"275 15 CURVE SMOOTH",
"273 22 OFFCURVE",
"272 29 OFFCURVE",
"272 37 CURVE SMOOTH",
"272 86 OFFCURVE",
"286 135 OFFCURVE",
"314 186 CURVE SMOOTH",
"369 287 OFFCURVE",
"442 365 OFFCURVE",
"575 500 CURVE SMOOTH",
"636 562 OFFCURVE",
"685 614 OFFCURVE",
"721 655 CURVE SMOOTH",
"793 737 OFFCURVE",
"849 827 OFFCURVE",
"849 907 CURVE SMOOTH",
"849 1050 OFFCURVE",
"765 1101 OFFCURVE",
"597 1101 CURVE SMOOTH",
"521 1101 OFFCURVE",
"452 1086 OFFCURVE",
"390 1055 CURVE",
"389 1047 OFFCURVE",
"387 1034 OFFCURVE",
"386 1017 CURVE",
"381 976 OFFCURVE",
"376 945 OFFCURVE",
"373 925 CURVE",
"365 884 OFFCURVE",
"351 858 OFFCURVE",
"324 858 CURVE SMOOTH",
"285 858 OFFCURVE",
"264 890 OFFCURVE",
"264 938 CURVE SMOOTH"
);
}
);
width = 1240;
}
);
note = two;
unicode = 0032;
},
{
glyphname = three;
lastChange = "2016-08-11 21:18:16 +0000";
layers = (
{
layerId = "012FDA75-DADD-42E4-B1EF-A5A6AF7510CB";
paths = (
{
closed = 1;
nodes = (
"593 609 OFFCURVE",
"571 607 OFFCURVE",
"534 604 CURVE",
"519 602 OFFCURVE",
"509 601 OFFCURVE",
"503 601 CURVE SMOOTH",
"479 601 OFFCURVE",
"465 614 OFFCURVE",
"465 638 CURVE SMOOTH",
"465 651 OFFCURVE",
"475 667 OFFCURVE",
"496 679 CURVE SMOOTH",
"563 720 LINE SMOOTH",
"617 752 OFFCURVE",
"659 778 OFFCURVE",
"688 799 CURVE SMOOTH",
"747 840 OFFCURVE",
"787 891 OFFCURVE",
"787 959 CURVE SMOOTH",
"787 1039 OFFCURVE",
"728 1102 OFFCURVE",
"613 1102 CURVE SMOOTH",
"572 1102 OFFCURVE",
"539 1099 OFFCURVE",
"514 1093 CURVE SMOOTH",
"465 1081 OFFCURVE",
"446 1066 OFFCURVE",
"422 1039 CURVE",
"399 1015 OFFCURVE",
"385 1004 OFFCURVE",
"348 1004 CURVE SMOOTH",
"323 1004 OFFCURVE",
"307 1020 OFFCURVE",
"307 1037 CURVE SMOOTH",
"307 1067 OFFCURVE",
"325 1093 OFFCURVE",
"360 1116 CURVE SMOOTH",
"430 1161 OFFCURVE",
"540 1187 OFFCURVE",
"615 1187 CURVE SMOOTH",
"666 1187 OFFCURVE",
"711 1178 OFFCURVE",
"752 1160 CURVE SMOOTH",
"833 1124 OFFCURVE",
"883 1054 OFFCURVE",
"883 959 CURVE SMOOTH",
"883 910 OFFCURVE",
"868 867 OFFCURVE",
"838 829 CURVE SMOOTH",
"778 753 OFFCURVE",
"708 715 OFFCURVE",
"625 675 CURVE",
"694 675 OFFCURVE",
"752 662 OFFCURVE",
"801 635 CURVE SMOOTH",
"898 582 OFFCURVE",
"950 484 OFFCURVE",
"950 360 CURVE SMOOTH",
"950 288 OFFCURVE",
"932 223 OFFCURVE",
"896 166 CURVE SMOOTH",
"824 51 OFFCURVE",
"695 -17 OFFCURVE",
"544 -17 CURVE SMOOTH",
"499 -17 OFFCURVE",
"455 -11 OFFCURVE",
"412 2 CURVE SMOOTH",
"324 26 OFFCURVE",
"263 68 OFFCURVE",
"263 108 CURVE SMOOTH",
"263 121 OFFCURVE",
"280 141 OFFCURVE",
"301 141 CURVE SMOOTH",
"333 141 OFFCURVE",
"350 133 OFFCURVE",
"379 114 CURVE SMOOTH",
"423 85 OFFCURVE",
"460 69 OFFCURVE",
"547 69 CURVE SMOOTH",
"609 69 OFFCURVE",
"663 82 OFFCURVE",
"710 108 CURVE SMOOTH",
"802 159 OFFCURVE",
"854 253 OFFCURVE",
"854 366 CURVE SMOOTH",
"854 517 OFFCURVE",
"755 609 OFFCURVE",
"602 609 CURVE SMOOTH"
);
}
);
width = 1240;
}
);
note = three;
unicode = 0033;
},
{
glyphname = four;
lastChange = "2016-08-11 21:18:16 +0000";
layers = (
{
layerId = "012FDA75-DADD-42E4-B1EF-A5A6AF7510CB";
paths = (
{
closed = 1;
nodes = (
"405 0 OFFCURVE",
"395 15 OFFCURVE",
"395 34 CURVE SMOOTH",
"395 51 OFFCURVE",
"404 65 OFFCURVE",
"419 65 CURVE SMOOTH",
"707 65 LINE",
"707 371 LINE",
"245 371 LINE SMOOTH",
"226 371 OFFCURVE",
"207 392 OFFCURVE",
"207 415 CURVE SMOOTH",
"207 425 OFFCURVE",
"210 434 OFFCURVE",
"217 443 CURVE",
"728 1167 LINE",
"732 1172 OFFCURVE",
"748 1179 OFFCURVE",
"764 1179 CURVE SMOOTH",
"787 1179 OFFCURVE",
"803 1164 OFFCURVE",
"803 1125 CURVE SMOOTH",
"803 449 LINE",
"1005 449 LINE SMOOTH",
"1028 449 OFFCURVE",
"1040 433 OFFCURVE",
"1040 410 CURVE SMOOTH",
"1040 389 OFFCURVE",
"1027 371 OFFCURVE",
"1003 371 CURVE SMOOTH",
"803 371 LINE",
"803 65 LINE",
"961 65 LINE SMOOTH",
"976 65 OFFCURVE",
"985 51 OFFCURVE",
"985 34 CURVE SMOOTH",
"985 15 OFFCURVE",
"975 0 OFFCURVE",
"960 0 CURVE SMOOTH",
"420 0 LINE SMOOTH"
);
},
{
closed = 1;
nodes = (
"707 1019 LINE",
"322 449 LINE",
"707 449 LINE"
);
}
);
width = 1240;
}
);
note = four;
unicode = 0034;
},
{
glyphname = five;
lastChange = "2016-08-11 21:18:16 +0000";
layers = (
{
layerId = "012FDA75-DADD-42E4-B1EF-A5A6AF7510CB";
paths = (
{
closed = 1;
nodes = (
"1011 314 OFFCURVE",
"992 242 OFFCURVE",
"954 179 CURVE SMOOTH",
"877 54 OFFCURVE",
"739 -17 OFFCURVE",
"579 -17 CURVE SMOOTH",
"488 -17 OFFCURVE",
"405 9 OFFCURVE",
"340 54 CURVE SMOOTH",
"322 67 OFFCURVE",
"313 81 OFFCURVE",
"313 98 CURVE SMOOTH",
"313 119 OFFCURVE",
"332 138 OFFCURVE",
"353 138 CURVE SMOOTH",
"362 138 OFFCURVE",
"370 135 OFFCURVE",
"377 130 CURVE SMOOTH",
"440 85 OFFCURVE",
"517 65 OFFCURVE",
"592 65 CURVE SMOOTH",
"643 65 OFFCURVE",
"694 77 OFFCURVE",
"744 102 CURVE SMOOTH",
"844 150 OFFCURVE",
"915 248 OFFCURVE",
"915 381 CURVE SMOOTH",
"915 444 OFFCURVE",
"904 496 OFFCURVE",
"882 537 CURVE SMOOTH",
"838 620 OFFCURVE",
"764 657 OFFCURVE",
"679 657 CURVE SMOOTH",
"576 657 OFFCURVE",
"471 600 OFFCURVE",
"430 517 CURVE",
"425 502 OFFCURVE",
"411 495 OFFCURVE",
"395 495 CURVE SMOOTH",
"375 495 OFFCURVE",
"358 508 OFFCURVE",
"358 529 CURVE SMOOTH",
"378 1111 LINE SMOOTH",
"378 1163 OFFCURVE",
"426 1171 OFFCURVE",
"514 1171 CURVE SMOOTH",
"838 1171 LINE",
"847 1207 OFFCURVE",
"855 1231 OFFCURVE",
"862 1243 CURVE SMOOTH",
"868 1254 OFFCURVE",
"877 1260 OFFCURVE",
"889 1260 CURVE SMOOTH",
"914 1260 OFFCURVE",
"934 1248 OFFCURVE",
"934 1227 CURVE SMOOTH",
"934 1147 OFFCURVE",
"905 1089 OFFCURVE",
"857 1089 CURVE SMOOTH",
"487 1089 LINE SMOOTH",
"482 1089 OFFCURVE",
"479 1086 OFFCURVE",
"479 1081 CURVE",
"444 642 LINE",
"519 705 OFFCURVE",
"604 735 OFFCURVE",
"687 735 CURVE SMOOTH",
"745 735 OFFCURVE",
"799 721 OFFCURVE",
"849 693 CURVE SMOOTH",
"948 636 OFFCURVE",
"1011 528 OFFCURVE",
"1011 396 CURVE SMOOTH"
);
}
);
width = 1240;
}
);
note = five;
unicode = 0035;
},
{
glyphname = six;
lastChange = "2016-08-11 21:18:16 +0000";
layers = (
{
layerId = "012FDA75-DADD-42E4-B1EF-A5A6AF7510CB";
paths = (
{
closed = 1;
nodes = (
"742 741 OFFCURVE",
"806 725 OFFCURVE",
"860 693 CURVE SMOOTH",
"968 628 OFFCURVE",
"1027 508 OFFCURVE",
"1027 357 CURVE SMOOTH",
"1027 282 OFFCURVE",
"1011 216 OFFCURVE",
"980 160 CURVE SMOOTH",
"916 47 OFFCURVE",
"797 -17 OFFCURVE",
"648 -17 CURVE SMOOTH",
"389 -17 OFFCURVE",
"257 151 OFFCURVE",
"257 426 CURVE SMOOTH",
"257 773 OFFCURVE",
"412 1018 OFFCURVE",
"659 1241 CURVE SMOOTH",
"668 1249 OFFCURVE",
"678 1253 OFFCURVE",
"687 1253 CURVE SMOOTH",
"711 1253 OFFCURVE",
"733 1230 OFFCURVE",
"733 1207 CURVE SMOOTH",
"733 1198 OFFCURVE",
"729 1190 OFFCURVE",
"721 1183 CURVE SMOOTH",
"544 1035 OFFCURVE",
"394 824 OFFCURVE",
"361 591 CURVE",
"434 690 OFFCURVE",
"553 741 OFFCURVE",
"668 741 CURVE SMOOTH"
);
},
{
closed = 1;
nodes = (
"353 309 OFFCURVE",
"363 259 OFFCURVE",
"384 214 CURVE SMOOTH",
"425 124 OFFCURVE",
"513 65 OFFCURVE",
"648 65 CURVE SMOOTH",
"707 65 OFFCURVE",
"758 78 OFFCURVE",
"801 104 CURVE SMOOTH",
"887 156 OFFCURVE",
"931 249 OFFCURVE",
"931 354 CURVE SMOOTH",
"931 409 OFFCURVE",
"922 459 OFFCURVE",
"904 505 CURVE SMOOTH",
"867 597 OFFCURVE",
"788 659 OFFCURVE",
"671 659 CURVE SMOOTH",
"607 659 OFFCURVE",
"551 646 OFFCURVE",
"503 619 CURVE SMOOTH",
"406 565 OFFCURVE",
"353 469 OFFCURVE",
"353 364 CURVE SMOOTH"
);
}
);
width = 1240;
}
);
note = six;
unicode = 0036;
},
{
glyphname = seven;
lastChange = "2016-08-11 21:18:16 +0000";
layers = (
{
layerId = "012FDA75-DADD-42E4-B1EF-A5A6AF7510CB";
paths = (
{
closed = 1;
nodes = (
"592 -7 OFFCURVE",
"569 14 OFFCURVE",
"569 47 CURVE SMOOTH",
"569 181 OFFCURVE",
"582 308 OFFCURVE",
"609 428 CURVE SMOOTH",
"662 668 OFFCURVE",
"744 856 OFFCURVE",
"864 1085 CURVE",
"370 1085 LINE",
"370 916 LINE SMOOTH",
"370 883 OFFCURVE",
"348 863 OFFCURVE",
"321 863 CURVE SMOOTH",
"296 863 OFFCURVE",
"274 883 OFFCURVE",
"274 916 CURVE SMOOTH",
"274 1117 LINE SMOOTH",
"274 1150 OFFCURVE",
"297 1171 OFFCURVE",
"330 1171 CURVE SMOOTH",
"928 1171 LINE SMOOTH",
"952 1171 OFFCURVE",
"971 1142 OFFCURVE",
"971 1111 CURVE SMOOTH",
"971 1100 OFFCURVE",
"969 1090 OFFCURVE",
"964 1081 CURVE SMOOTH",
"897 953 OFFCURVE",
"844 840 OFFCURVE",
"803 742 CURVE SMOOTH",
"721 545 OFFCURVE",
"665 315 OFFCURVE",
"665 46 CURVE SMOOTH",
"665 13 OFFCURVE",
"644 -7 OFFCURVE",
"619 -7 CURVE SMOOTH"
);
}
);
width = 1240;
}
);
note = seven;
unicode = 0037;
},
{
glyphname = eight;
lastChange = "2016-08-11 21:18:16 +0000";
layers = (
{
layerId = "012FDA75-DADD-42E4-B1EF-A5A6AF7510CB";
paths = (
{
closed = 1;
nodes = (
"290 958 OFFCURVE",
"304 1010 OFFCURVE",
"333 1054 CURVE SMOOTH",
"390 1141 OFFCURVE",
"495 1187 OFFCURVE",
"620 1187 CURVE SMOOTH",
"833 1187 OFFCURVE",
"970 1096 OFFCURVE",
"970 913 CURVE SMOOTH",
"970 865 OFFCURVE",
"958 822 OFFCURVE",
"935 784 CURVE SMOOTH",
"887 707 OFFCURVE",
"835 668 OFFCURVE",
"728 595 CURVE",
"792 558 OFFCURVE",
"843 527 OFFCURVE",
"880 502 CURVE SMOOTH",
"954 451 OFFCURVE",
"1022 372 OFFCURVE",
"1022 268 CURVE SMOOTH",
"1022 71 OFFCURVE",
"870 -17 OFFCURVE",
"642 -17 CURVE SMOOTH",
"423 -17 OFFCURVE",
"260 70 OFFCURVE",
"260 274 CURVE SMOOTH",
"260 323 OFFCURVE",
"275 368 OFFCURVE",
"305 409 CURVE SMOOTH",
"364 490 OFFCURVE",
"435 535 OFFCURVE",
"544 599 CURVE",
"526 610 LINE SMOOTH",
"477 640 OFFCURVE",
"436 667 OFFCURVE",
"405 691 CURVE SMOOTH",
"342 739 OFFCURVE",
"290 809 OFFCURVE",
"290 897 CURVE SMOOTH"
);
},
{
closed = 1;
nodes = (
"878 1042 OFFCURVE",
"784 1101 OFFCURVE",
"628 1101 CURVE SMOOTH",
"585 1101 OFFCURVE",
"544 1094 OFFCURVE",
"507 1081 CURVE SMOOTH",
"432 1054 OFFCURVE",
"382 995 OFFCURVE",
"382 906 CURVE SMOOTH",
"382 866 OFFCURVE",
"392 832 OFFCURVE",
"411 803 CURVE SMOOTH",
"450 745 OFFCURVE",
"501 713 OFFCURVE",
"616 649 CURVE SMOOTH",
"642 635 LINE",
"693 664 OFFCURVE",
"735 692 OFFCURVE",
"768 717 CURVE SMOOTH",
"835 767 OFFCURVE",
"878 829 OFFCURVE",
"878 905 CURVE SMOOTH"
);
},
{
closed = 1;
nodes = (
"356 125 OFFCURVE",
"484 69 OFFCURVE",
"648 69 CURVE SMOOTH",
"833 69 OFFCURVE",
"926 135 OFFCURVE",
"926 266 CURVE SMOOTH",
"926 308 OFFCURVE",
"914 345 OFFCURVE",
"889 378 CURVE SMOOTH",
"840 443 OFFCURVE",
"777 480 OFFCURVE",
"673 535 CURVE SMOOTH",
"626 560 LINE",
"577 533 OFFCURVE",
"535 507 OFFCURVE",
"499 482 CURVE SMOOTH",
"426 433 OFFCURVE",
"356 359 OFFCURVE",
"356 282 CURVE SMOOTH"
);
}
);
width = 1240;
}
);
note = eight;
unicode = 0038;
},
{
glyphname = nine;
lastChange = "2016-08-11 21:18:16 +0000";
layers = (
{
layerId = "012FDA75-DADD-42E4-B1EF-A5A6AF7510CB";
paths = (
{
closed = 1;
nodes = (
"535 429 OFFCURVE",
"471 445 OFFCURVE",
"417 478 CURVE SMOOTH",
"309 542 OFFCURVE",
"250 662 OFFCURVE",
"250 813 CURVE SMOOTH",
"250 888 OFFCURVE",
"266 954 OFFCURVE",
"298 1011 CURVE SMOOTH",
"361 1123 OFFCURVE",
"480 1187 OFFCURVE",
"629 1187 CURVE SMOOTH",
"888 1187 OFFCURVE",
"1020 1019 OFFCURVE",
"1020 744 CURVE SMOOTH",
"1020 625 OFFCURVE",
"1002 517 OFFCURVE",
"966 422 CURVE SMOOTH",
"893 230 OFFCURVE",
"779 95 OFFCURVE",
"616 -52 CURVE SMOOTH",
"607 -60 OFFCURVE",
"598 -64 OFFCURVE",
"588 -64 CURVE SMOOTH",
"564 -64 OFFCURVE",
"542 -41 OFFCURVE",
"542 -18 CURVE SMOOTH",
"542 -9 OFFCURVE",
"546 -1 OFFCURVE",
"554 6 CURVE SMOOTH",
"766 183 OFFCURVE",
"887 374 OFFCURVE",
"916 579 CURVE",
"843 480 OFFCURVE",
"724 429 OFFCURVE",
"609 429 CURVE SMOOTH"
);
},
{
closed = 1;
nodes = (
"924 861 OFFCURVE",
"914 912 OFFCURVE",
"893 957 CURVE SMOOTH",
"852 1047 OFFCURVE",
"764 1105 OFFCURVE",
"629 1105 CURVE SMOOTH",
"570 1105 OFFCURVE",
"520 1092 OFFCURVE",
"477 1066 CURVE SMOOTH",
"391 1014 OFFCURVE",
"346 921 OFFCURVE",
"346 816 CURVE SMOOTH",
"346 761 OFFCURVE",
"355 711 OFFCURVE",
"374 665 CURVE SMOOTH",
"410 573 OFFCURVE",
"489 511 OFFCURVE",
"606 511 CURVE SMOOTH",
"670 511 OFFCURVE",
"726 525 OFFCURVE",
"775 552 CURVE SMOOTH",
"871 606 OFFCURVE",
"924 701 OFFCURVE",
"924 806 CURVE SMOOTH"
);
}
);
width = 1240;
}
);
note = nine;
unicode = 0039;
},
{
glyphname = uni00B9;
lastChange = "2016-08-11 21:18:16 +0000";
layers = (
{
layerId = "012FDA75-DADD-42E4-B1EF-A5A6AF7510CB";
paths = (
{
closed = 1;
nodes = (
"645 1174 OFFCURVE",
"658 1163 OFFCURVE",
"658 1140 CURVE SMOOTH",
"658 455 LINE",
"764 455 LINE SMOOTH",
"781 455 OFFCURVE",
"792 441 OFFCURVE",
"792 425 CURVE SMOOTH",
"792 409 OFFCURVE",
"782 396 OFFCURVE",
"763 396 CURVE SMOOTH",
"468 396 LINE SMOOTH",
"447 396 OFFCURVE",
"434 410 OFFCURVE",
"434 426 CURVE SMOOTH",
"434 441 OFFCURVE",
"446 455 OFFCURVE",
"465 455 CURVE SMOOTH",
"589 455 LINE",
"589 1096 LINE",
"465 1041 LINE",
"461 1039 OFFCURVE",
"457 1038 OFFCURVE",
"453 1038 CURVE SMOOTH",
"437 1038 OFFCURVE",
"424 1054 OFFCURVE",
"424 1070 CURVE SMOOTH",
"424 1082 OFFCURVE",
"430 1090 OFFCURVE",
"441 1095 CURVE SMOOTH",
"614 1171 LINE",
"618 1173 OFFCURVE",
"623 1174 OFFCURVE",
"628 1174 CURVE SMOOTH"
);
}
);
width = 1240;
}
);
note = uni00B9;
unicode = 00B9;
},
